{
	"asset":{
		"generator":"Khronos glTF Blender I/O v4.4.56",
		"version":"2.0"
	},
	"scene":0,
	"scenes":[
		{
			"name":"Scene",
			"nodes":[
				0,
				1,
				2,
				3
			]
		}
	],
	"nodes":[
		{
			"mesh":0,
			"name":"walls_curve_.002",
			"scale":[
				3.1250882148742676,
				3.1250882148742676,
				3.1250882148742676
			],
			"translation":[
				-67.69673919677734,
				-52.862022399902344,
				-1.4776192903518677
			]
		},
		{
			"mesh":1,
			"name":"Cube",
			"rotation":[
				-1,
				0,
				0,
				4.371138828673793e-08
			],
			"translation":[
				0.29275065660476685,
				-0.012286379933357239,
				-3.318519115447998
			]
		},
		{
			"mesh":2,
			"name":"Cube.001",
			"translation":[
				-48.68104553222656,
				0.09675027430057526,
				-3.0943081378936768
			]
		},
		{
			"mesh":3,
			"name":"Cube.002",
			"translation":[
				-21.106441497802734,
				-38.067359924316406,
				-3.344864845275879
			]
		}
	],
	"materials":[
		{
			"doubleSided":true,
			"name":"Material.005",
			"pbrMetallicRoughness":{
				"baseColorFactor":[
					0.3056640625,
					0.31396484375,
					0.32177734375,
					1
				],
				"metallicFactor":0,
				"roughnessFactor":0.5
			}
		},
		{
			"doubleSided":true,
			"name":"Material.001",
			"pbrMetallicRoughness":{
				"baseColorFactor":[
					0.7758175730705261,
					0.6038278341293335,
					0.4341539740562439,
					1
				],
				"metallicFactor":0,
				"roughnessFactor":0.5
			}
		},
		{
			"doubleSided":true,
			"name":"Material.002",
			"pbrMetallicRoughness":{
				"baseColorFactor":[
					0.7529377341270447,
					0.6038278341293335,
					0.4341539740562439,
					1
				],
				"metallicFactor":0,
				"roughnessFactor":0.5
			}
		},
		{
			"doubleSided":true,
			"name":"Material.003",
			"pbrMetallicRoughness":{
				"baseColorFactor":[
					0.7529377341270447,
					0.6038278341293335,
					0.4341539740562439,
					1
				],
				"metallicFactor":0,
				"roughnessFactor":0.5
			}
		}
	],
	"meshes":[
		{
			"name":"walls_curve_.002",
			"primitives":[
				{
					"attributes":{
						"POSITION":0,
						"NORMAL":1,
						"TEXCOORD_0":2
					},
					"indices":3,
					"material":0
				}
			]
		},
		{
			"name":"Cube.001",
			"primitives":[
				{
					"attributes":{
						"POSITION":4,
						"NORMAL":5,
						"TEXCOORD_0":6
					},
					"indices":7,
					"material":1
				}
			]
		},
		{
			"name":"Cube.002",
			"primitives":[
				{
					"attributes":{
						"POSITION":8,
						"NORMAL":9,
						"TEXCOORD_0":10
					},
					"indices":7,
					"material":2
				}
			]
		},
		{
			"name":"Cube.003",
			"primitives":[
				{
					"attributes":{
						"POSITION":11,
						"NORMAL":12,
						"TEXCOORD_0":13
					},
					"indices":7,
					"material":3
				}
			]
		}
	],
	"accessors":[
		{
			"bufferView":0,
			"componentType":5126,
			"count":214412,
			"max":[
				36.991641998291016,
				28.32968521118164,
				0.619999885559082
			],
			"min":[
				5.512693405151367,
				3.6758270263671875,
				-0.619999885559082
			],
			"type":"VEC3"
		},
		{
			"bufferView":1,
			"componentType":5126,
			"count":214412,
			"type":"VEC3"
		},
		{
			"bufferView":2,
			"componentType":5126,
			"count":214412,
			"type":"VEC2"
		},
		{
			"bufferView":3,
			"componentType":5125,
			"count":321684,
			"type":"SCALAR"
		},
		{
			"bufferView":4,
			"componentType":5126,
			"count":16,
			"max":[
				47.336570739746094,
				35.45263671875,
				0
			],
			"min":[
				-47.336570739746094,
				-35.45263671875,
				0
			],
			"type":"VEC3"
		},
		{
			"bufferView":5,
			"componentType":5126,
			"count":16,
			"type":"VEC3"
		},
		{
			"bufferView":6,
			"componentType":5126,
			"count":16,
			"type":"VEC2"
		},
		{
			"bufferView":7,
			"componentType":5123,
			"count":36,
			"type":"SCALAR"
		},
		{
			"bufferView":8,
			"componentType":5126,
			"count":16,
			"max":[
				1.7261600494384766,
				4.514566421508789,
				0
			],
			"min":[
				-1.7261600494384766,
				-4.514566421508789,
				0
			],
			"type":"VEC3"
		},
		{
			"bufferView":9,
			"componentType":5126,
			"count":16,
			"type":"VEC3"
		},
		{
			"bufferView":10,
			"componentType":5126,
			"count":16,
			"type":"VEC2"
		},
		{
			"bufferView":11,
			"componentType":5126,
			"count":16,
			"max":[
				3.6514902114868164,
				2.7884063720703125,
				0
			],
			"min":[
				-3.6514902114868164,
				-2.7884063720703125,
				0
			],
			"type":"VEC3"
		},
		{
			"bufferView":12,
			"componentType":5126,
			"count":16,
			"type":"VEC3"
		},
		{
			"bufferView":13,
			"componentType":5126,
			"count":16,
			"type":"VEC2"
		}
	],
	"bufferViews":[
		{
			"buffer":0,
			"byteLength":2572944,
			"byteOffset":0,
			"target":34962
		},
		{
			"buffer":0,
			"byteLength":2572944,
			"byteOffset":2572944,
			"target":34962
		},
		{
			"buffer":0,
			"byteLength":1715296,
			"byteOffset":5145888,
			"target":34962
		},
		{
			"buffer":0,
			"byteLength":1286736,
			"byteOffset":6861184,
			"target":34963
		},
		{
			"buffer":0,
			"byteLength":192,
			"byteOffset":8147920,
			"target":34962
		},
		{
			"buffer":0,
			"byteLength":192,
			"byteOffset":8148112,
			"target":34962
		},
		{
			"buffer":0,
			"byteLength":128,
			"byteOffset":8148304,
			"target":34962
		},
		{
			"buffer":0,
			"byteLength":72,
			"byteOffset":8148432,
			"target":34963
		},
		{
			"buffer":0,
			"byteLength":192,
			"byteOffset":8148504,
			"target":34962
		},
		{
			"buffer":0,
			"byteLength":192,
			"byteOffset":8148696,
			"target":34962
		},
		{
			"buffer":0,
			"byteLength":128,
			"byteOffset":8148888,
			"target":34962
		},
		{
			"buffer":0,
			"byteLength":192,
			"byteOffset":8149016,
			"target":34962
		},
		{
			"buffer":0,
			"byteLength":192,
			"byteOffset":8149208,
			"target":34962
		},
		{
			"buffer":0,
			"byteLength":128,
			"byteOffset":8149400,
			"target":34962
		}
	],
	"buffers":[
		{
			"byteLength":8149528,
			"uri":"CH.bin"
		}
	]
}
