<?xml version="1.0" encoding="UTF-8"?>
<svg xmlns="http://www.w3.org/2000/svg" viewBox="0 0 782.61 838">
  <defs>
    <style>
      .cls-1 {
        stroke: red;
      }

      .cls-1, .cls-2, .cls-3, .cls-4, .cls-5, .cls-6, .cls-7, .cls-8, .cls-9 {
        fill: none;
      }

      .cls-1, .cls-5, .cls-6 {
        stroke-linecap: round;
        stroke-linejoin: round;
        stroke-width: .71px;
      }

      .cls-2, .cls-3, .cls-4, .cls-7, .cls-10, .cls-8, .cls-11, .cls-9 {
        stroke-miterlimit: 10;
      }

      .cls-2, .cls-10 {
        stroke: #231f20;
      }

      .cls-12 {
        fill: #e3dfff;
      }

      .cls-3 {
        opacity: .98;
      }

      .cls-3, .cls-8 {
        stroke: #00acda;
      }

      .cls-13 {
        font-family: MyriadPro-Regular, 'Myriad Pro';
        font-size: 31.76px;
      }

      .cls-4 {
        stroke: #00b4ee;
      }

      .cls-14 {
        fill: #dfffd0;
      }

      .cls-5 {
        stroke: #333;
      }

      .cls-15 {
        fill: #ffe3ec;
      }

      .cls-6 {
        stroke: #000;
      }

      .cls-7 {
        stroke: #00acda;
      }

      .cls-10, .cls-11 {
        fill: #fff;
      }

      .cls-16 {
        letter-spacing: -.01em;
      }

      .cls-11, .cls-9 {
        stroke: #00aee0;
      }
    </style>
  </defs>
  <g id="Layer_3" data-name="Layer 3">
    <polyline class="cls-14" points="71.28 81.12 72.66 125.42 48.99 127.49 53.26 283.28 80.62 280.89 81.69 298.86 420.13 270.12 419.14 238.17 410.75 188.18 406.33 45.4"/>
    <polygon class="cls-14" points="483.92 63.39 493.44 262.53 659.25 246.58 668.96 92.42 657.07 89.47 653.54 82.9 483.92 63.39"/>
    <polygon class="cls-12" points="768.89 96.82 739.2 640.26 611.42 655.04 604.2 472.61 635.42 470.53 632.71 411.37 602.25 415.05 601.12 380.6 613.16 378.79 624.08 375.29 623.26 269.88 668.96 265.97 670.84 258.5 672.8 209.12 668.88 209.12 662.5 210.89 661.22 201.83 665.26 151.11 668.96 92.42 768.89 96.82"/>
    <polygon class="cls-15" points="548.64 786.22 544.95 662.54 70.87 706.91 76.03 830.56 548.64 786.22"/>
  </g>
  <g id="Layer_2" data-name="Layer 2">
    <line class="cls-10" x1="71.91" y1="118.02" x2="70.75" y2="80.61"/>
    <line class="cls-10" x1="80.62" y1="280.89" x2="53.26" y2="283.28"/>
    <line class="cls-10" x1="338.18" y1="82.72" x2="338.16" y2="82.72"/>
    <line class="cls-10" x1="217.75" y1="252.36" x2="217.74" y2="252.36"/>
    <line class="cls-10" x1="477.24" y1="239.95" x2="477.02" y2="232.86"/>
    <line class="cls-4" x1="402.06" y1="271.5" x2="401.07" y2="239.5"/>
    <line class="cls-4" x1="384.66" y1="273.02" x2="383.67" y2="241.02"/>
    <line class="cls-4" x1="367.71" y1="274.5" x2="366.71" y2="242.5"/>
    <line class="cls-4" x1="349.81" y1="276.07" x2="348.82" y2="244.06"/>
    <line class="cls-4" x1="332.05" y1="277.62" x2="331.06" y2="245.62"/>
    <line class="cls-4" x1="314.29" y1="279.17" x2="313.57" y2="247.14"/>
    <line class="cls-4" x1="296.53" y1="280.72" x2="295.53" y2="248.72"/>
    <line class="cls-4" x1="280.35" y1="282.26" x2="279.35" y2="250.14"/>
    <line class="cls-9" x1="261.87" y1="283.75" x2="260.88" y2="251.75"/>
    <line class="cls-9" x1="243.34" y1="285.37" x2="242.35" y2="253.37"/>
    <line class="cls-9" x1="226.96" y1="286.92" x2="225.97" y2="254.8"/>
    <line class="cls-9" x1="208.28" y1="288.44" x2="207.28" y2="256.43"/>
    <line class="cls-9" x1="190.67" y1="289.98" x2="189.67" y2="257.97"/>
    <line class="cls-9" x1="173.36" y1="291.49" x2="172.37" y2="259.49"/>
    <line class="cls-9" x1="155.27" y1="293.07" x2="154.28" y2="261.07"/>
    <line class="cls-9" x1="409.66" y1="151.69" x2="142.08" y2="175.08"/>
    <polygon class="cls-2" points="141.29 175.42 142.22 205.71 141.51 211.12 138.7 214.38 136.91 215.74 133.82 216.88 129.89 216.95 126.62 216.37 123.99 214.59 122.2 211.67 121.97 206.27 119.76 154.69 120.43 152.36 122.26 150.21 124.32 148.11 126.98 146.97 129.47 146.48 133.14 146.57 134.65 147.37 136.87 148.78 138.56 151.04 139.17 152.59 139.92 153.93 140.55 157.24 141.29 175.42"/>
    <line class="cls-4" x1="393.85" y1="120.42" x2="395.98" y2="189.13"/>
    <line class="cls-4" x1="377.79" y1="121.82" x2="379.92" y2="190.54"/>
    <line class="cls-4" x1="362.73" y1="155.79" x2="361.72" y2="123.23"/>
    <line class="cls-4" x1="332.04" y1="196.88" x2="330.82" y2="157.43"/>
    <line class="cls-4" x1="316.89" y1="199.35" x2="315.67" y2="159.9"/>
    <line class="cls-4" x1="346.13" y1="157.24" x2="345.12" y2="124.68"/>
    <line class="cls-4" x1="330.85" y1="158.58" x2="329.84" y2="126.01"/>
    <line class="cls-4" x1="300.9" y1="201.32" x2="299.68" y2="161.87"/>
    <line class="cls-4" x1="314.66" y1="127.34" x2="315.67" y2="159.9"/>
    <line class="cls-4" x1="283.48" y1="161.57" x2="284.7" y2="201.02"/>
    <line class="cls-4" x1="298.65" y1="128.74" x2="299.66" y2="161.3"/>
    <line class="cls-4" x1="283.52" y1="162.71" x2="282.51" y2="130.15"/>
    <line class="cls-4" x1="267.92" y1="164.08" x2="266.91" y2="131.51"/>
    <line class="cls-4" x1="252.33" y1="165.44" x2="251.32" y2="132.88"/>
    <line class="cls-4" x1="236.6" y1="166.81" x2="235.59" y2="134.25"/>
    <line class="cls-4" x1="222.34" y1="207.62" x2="221.09" y2="167.03"/>
    <line class="cls-4" x1="237.82" y1="206.26" x2="236.56" y2="165.67"/>
    <line class="cls-4" x1="253.59" y1="206.03" x2="252.33" y2="165.44"/>
    <line class="cls-4" x1="269.15" y1="203.53" x2="267.92" y2="164.08"/>
    <path class="cls-4" d="M157.91,173.69c-.32-10.44-.65-20.89-.97-31.33"/>
    <path class="cls-4" d="M172.98,172.38c-.31-10.01-.62-20.02-.93-30.03"/>
    <line class="cls-4" x1="189.47" y1="170.93" x2="188.47" y2="138.37"/>
    <line class="cls-4" x1="205.36" y1="169.55" x2="204.35" y2="136.98"/>
    <line class="cls-4" x1="205.34" y1="168.97" x2="206.6" y2="209.57"/>
    <line class="cls-4" x1="189.47" y1="170.93" x2="190.7" y2="210.38"/>
    <line class="cls-4" x1="172.98" y1="172.38" x2="174.24" y2="212.97"/>
    <path class="cls-4" d="M250.12,93.98c-.34-10.99-.68-21.99-1.02-32.98"/>
    <line class="cls-4" x1="157.91" y1="173.5" x2="159.18" y2="214.47"/>
    <line class="cls-4" x1="221.12" y1="168.17" x2="220.11" y2="135.6"/>
    <line class="cls-4" x1="362.73" y1="155.79" x2="363.85" y2="191.94"/>
    <line class="cls-4" x1="346.13" y1="157.24" x2="347.25" y2="193.39"/>
    <line class="cls-4" x1="392.54" y1="77.96" x2="391.56" y2="46.41"/>
    <path class="cls-4" d="M376.58,82.77c-.36-11.47-.71-22.95-1.07-34.42"/>
    <path class="cls-4" d="M377.85,123.79l-.13-4.3"/>
    <path class="cls-4" d="M392.65,81.54c-.36-11.71-.73-23.42-1.09-35.13"/>
    <path class="cls-4" d="M393.91,122.38c-.05-1.71-.11-3.42-.16-5.13"/>
    <path class="cls-4" d="M360.4,80.69c-.32-10.28-.64-20.57-.96-30.85"/>
    <path class="cls-4" d="M361.78,125.19c-.05-1.72-.11-3.44-.16-5.16"/>
    <path class="cls-4" d="M343.91,85.62c-.35-11.34-.7-22.68-1.05-34.02"/>
    <path class="cls-4" d="M345.18,126.64c-.05-1.47-.09-2.93-.14-4.4"/>
    <path class="cls-4" d="M328.62,86.44c-.34-11.07-.69-22.14-1.03-33.21"/>
    <path class="cls-4" d="M329.9,127.98c-.04-1.44-.09-2.89-.13-4.33"/>
    <path class="cls-4" d="M313.45,88.21c-.33-10.65-.66-21.3-.99-31.95"/>
    <path class="cls-4" d="M314.72,129.31c-.04-1.44-.09-2.89-.13-4.33"/>
    <path class="cls-4" d="M297.51,91.76c-.35-11.37-.7-22.74-1.06-34.1"/>
    <path class="cls-4" d="M281.34,92.42c-.35-11.38-.71-22.76-1.06-34.14"/>
    <path class="cls-4" d="M265.73,93.22c-.34-10.93-.68-21.86-1.02-32.79"/>
    <path class="cls-4" d="M234.41,96.28c-.34-11-.68-22.01-1.02-33.01"/>
    <path class="cls-4" d="M218.92,97.3c-.33-10.79-.67-21.59-1-32.38"/>
    <path class="cls-4" d="M203.16,98.71c-.33-10.71-.66-21.41-1-32.12"/>
    <path class="cls-4" d="M187.3,100.66c-.33-10.79-.67-21.58-1-32.37"/>
    <path class="cls-4" d="M170.77,101c-.33-10.52-.65-21.05-.98-31.57"/>
    <path class="cls-4" d="M155.71,102.52c-.32-10.29-.64-20.58-.96-30.86"/>
    <line class="cls-4" x1="139.12" y1="105.37" x2="138.13" y2="73.43"/>
    <line class="cls-4" x1="121.81" y1="106.88" x2="120.86" y2="76.23"/>
    <line class="cls-4" x1="106.26" y1="108.24" x2="105.29" y2="76.93"/>
    <line class="cls-4" x1="88.85" y1="111.43" x2="87.85" y2="79.11"/>
    <line class="cls-11" x1="77.68" y1="142.08" x2="48.98" y2="144.58"/>
    <line class="cls-11" x1="78.19" y1="158.66" x2="49.5" y2="161.16"/>
    <line class="cls-11" x1="78.76" y1="177.1" x2="50.07" y2="179.61"/>
    <line class="cls-11" x1="79.27" y1="193.5" x2="50.58" y2="196"/>
    <line class="cls-11" x1="79.82" y1="211.28" x2="51.13" y2="213.79"/>
    <line class="cls-11" x1="80.37" y1="229.05" x2="51.68" y2="231.56"/>
    <line class="cls-11" x1="80.9" y1="246.09" x2="52.21" y2="248.59"/>
    <line class="cls-11" x1="82.37" y1="263.61" x2="52.75" y2="266.2"/>
    <line class="cls-11" x1="518" y1="261.09" x2="516.79" y2="222.13"/>
    <line class="cls-11" x1="558.32" y1="255.94" x2="557.16" y2="218.6"/>
    <line class="cls-11" x1="600.59" y1="252.25" x2="599.43" y2="214.91"/>
    <line class="cls-11" x1="642.58" y1="247.22" x2="641.47" y2="211.23"/>
    <g>
      <line class="cls-11" x1="626.32" y1="250" x2="625.16" y2="212.66"/>
      <line class="cls-11" x1="617.47" y1="249.42" x2="616.35" y2="213.43"/>
      <line class="cls-11" x1="625.16" y1="212.66" x2="616.35" y2="213.43"/>
    </g>
    <line class="cls-11" x1="584.34" y1="253.67" x2="583.18" y2="216.33"/>
    <line class="cls-11" x1="574.68" y1="254.51" x2="573.52" y2="217.17"/>
    <line class="cls-11" x1="583.18" y1="216.33" x2="573.52" y2="217.17"/>
    <line class="cls-11" x1="542.05" y1="257.36" x2="540.89" y2="220.03"/>
    <line class="cls-11" x1="533.89" y1="258.08" x2="532.73" y2="220.74"/>
    <line class="cls-11" x1="540.89" y1="220.03" x2="532.73" y2="220.74"/>
    <line class="cls-11" x1="501.47" y1="261.83" x2="500.28" y2="223.58"/>
    <line class="cls-11" x1="493.44" y1="262.53" x2="492.26" y2="224.28"/>
    <line class="cls-11" x1="500.28" y1="223.58" x2="492.26" y2="224.28"/>
    <path class="cls-11" d="M621.75,250.05c1.29-1.41,2.62-2.78,4-4.11"/>
    <path class="cls-11" d="M617.61,248.5c1.6-.62,2.61-2.19,3.66-3.54.77-.98,1.61-1.9,2.53-2.75.76-.7,1.58-1.36,2.08-2.25"/>
    <path class="cls-11" d="M617.52,243.14c2.84-2.49,4.85-5.81,7.78-8.2"/>
    <path class="cls-11" d="M617.6,237.16c2.7-3,5.4-6.01,8.09-9.01"/>
    <path class="cls-11" d="M617.58,230.85c2.34-2.93,4.82-5.76,7.42-8.47"/>
    <path class="cls-11" d="M617.29,225.06c2.69-2.59,5.28-5.27,7.77-8.04"/>
    <path class="cls-11" d="M617.16,219.4c1.85-2.26,3.77-4.47,5.76-6.63"/>
    <path class="cls-11" d="M575.68,254.06c.89-.22,1.54-.98,2.15-1.67,1.72-1.92,3.71-3.59,5.69-5.25"/>
    <path class="cls-11" d="M574.92,249.87c2.74-2.97,5.48-5.93,8.22-8.9"/>
    <path class="cls-11" d="M574.98,243.38c2.66-2.84,5.33-5.69,7.99-8.53"/>
    <path class="cls-11" d="M574.77,237.22c2.54-2.78,5.19-5.46,7.94-8.03"/>
    <path class="cls-11" d="M574.61,231.85c1.9-2.6,4.19-4.93,6.76-6.89"/>
    <path class="cls-11" d="M575.05,225.51c1.98-3.09,4.48-5.86,7.36-8.16"/>
    <path class="cls-11" d="M574.73,231.65c2.73-2.65,5.35-5.42,7.84-8.3"/>
    <path class="cls-11" d="M536.01,258.41c1.67-1.51,3.35-3.01,5.02-4.52"/>
    <path class="cls-11" d="M534.53,254.06c2.17-2.22,4.34-4.45,6.51-6.67"/>
    <path class="cls-11" d="M534.29,248.21c2.08-2.37,4.19-4.71,6.35-7.01"/>
    <path class="cls-11" d="M534.2,242.22c2.12-2.72,4.42-5.31,6.88-7.75"/>
    <path class="cls-11" d="M533.81,236.43c1.92-2.31,3.96-4.52,6.1-6.63"/>
    <path class="cls-11" d="M533.69,230.68c2.53-2.8,5.05-5.6,7.58-8.4"/>
    <path class="cls-11" d="M534.42,224.28s-.07.11-.1.05.01-.13.06-.18c.94-1.17,1.98-2.26.05.13Z"/>
    <path class="cls-11" d="M495.96,262.39c1.75-1.58,3.37-3.31,4.84-5.15"/>
    <path class="cls-11" d="M493.53,259.16c2.19-2.77,4.59-5.39,7.15-7.83"/>
    <path class="cls-11" d="M493.61,253.31c2.44-2.65,4.88-5.31,7.33-7.96"/>
    <path class="cls-11" d="M493.48,247.02c2.14-2.61,4.38-5.13,6.72-7.56"/>
    <path class="cls-11" d="M499.93,233.58c-2.53,2.1-4.27,4.97-6.19,6.83,1.89-2.27,3.86-4.48,6.19-6.83Z"/>
    <path class="cls-11" d="M493.49,235.25c1.79-2.91,3.98-5.6,6.47-7.97"/>
    <path class="cls-11" d="M493.26,229.02c1.41-1.56,2.89-3.07,4.42-4.52"/>
    <line class="cls-7" x1="533.75" y1="142.64" x2="487.06" y2="151.67"/>
    <line class="cls-7" x1="518.47" y1="145.59" x2="517.5" y2="114.46"/>
    <line class="cls-7" x1="502.08" y1="148.76" x2="501.03" y2="114.66"/>
    <line class="cls-7" x1="506.96" y1="183.88" x2="505.86" y2="148.43"/>
    <line class="cls-7" x1="525.1" y1="179.9" x2="524" y2="144.52"/>
    <line class="cls-7" x1="542.47" y1="178.38" x2="541.35" y2="141.97"/>
    <line class="cls-7" x1="560.28" y1="173.43" x2="559.2" y2="138.61"/>
    <line class="cls-7" x1="577.81" y1="170.02" x2="576.76" y2="136.04"/>
    <line class="cls-7" x1="596.27" y1="167.79" x2="595.24" y2="134.42"/>
    <line class="cls-7" x1="614.19" y1="164.31" x2="613.15" y2="130.69"/>
    <line class="cls-7" x1="631.51" y1="161.19" x2="630.52" y2="129.17"/>
    <line class="cls-7" x1="647.23" y1="157.75" x2="646.24" y2="125.83"/>
    <line class="cls-7" x1="734.53" y1="115.08" x2="768.58" y2="117.54"/>
    <line class="cls-7" x1="735.2" y1="134.06" x2="767.64" y2="135.26"/>
    <line class="cls-7" x1="732.92" y1="152.22" x2="764.72" y2="153.4"/>
    <line class="cls-7" x1="731.87" y1="168.89" x2="765.24" y2="170.04"/>
    <line class="cls-7" x1="730.88" y1="186.37" x2="764.85" y2="187.41"/>
    <line class="cls-7" x1="729.62" y1="203.53" x2="763.92" y2="204.92"/>
    <line class="cls-7" x1="728.7" y1="221.65" x2="762.98" y2="222.51"/>
    <line class="cls-7" x1="727.37" y1="238.91" x2="762.05" y2="239.9"/>
    <line class="cls-7" x1="726.11" y1="255.55" x2="761.16" y2="256.68"/>
    <line class="cls-7" x1="724.47" y1="273.12" x2="760.23" y2="274.09"/>
    <line class="cls-7" x1="723.39" y1="290.42" x2="759.31" y2="291.38"/>
    <line class="cls-7" x1="722.64" y1="308" x2="758.38" y2="308.67"/>
    <line class="cls-7" x1="720.97" y1="325.35" x2="757.43" y2="326.53"/>
    <line class="cls-7" x1="719.12" y1="342.83" x2="756.6" y2="342.14"/>
    <line class="cls-7" x1="718.31" y1="360.33" x2="755.65" y2="359.86"/>
    <line class="cls-7" x1="716.5" y1="377.26" x2="754.69" y2="377.88"/>
    <line class="cls-7" x1="715.62" y1="394.82" x2="753.77" y2="395.15"/>
    <line class="cls-7" x1="714.36" y1="411.99" x2="752.86" y2="412.12"/>
    <line class="cls-7" x1="751.94" y1="429.3" x2="714.89" y2="429.13"/>
    <line class="cls-7" x1="715.4" y1="445.7" x2="750.48" y2="446.15"/>
    <line class="cls-7" x1="712.56" y1="639.27" x2="740.68" y2="640.32"/>
    <line class="cls-7" x1="712" y1="621.29" x2="741.7" y2="621.23"/>
    <line class="cls-7" x1="717.5" y1="602.97" x2="742.62" y2="604.11"/>
    <line class="cls-7" x1="717.02" y1="587.48" x2="743.45" y2="588.41"/>
    <line class="cls-7" x1="716.49" y1="570.54" x2="742.93" y2="571.61"/>
    <line class="cls-7" x1="715.94" y1="552.59" x2="745.31" y2="553.67"/>
    <line class="cls-7" x1="715.43" y1="536.12" x2="744.79" y2="536.84"/>
    <line class="cls-7" x1="714.85" y1="517.44" x2="747.21" y2="518.05"/>
    <line class="cls-7" x1="714.31" y1="500.18" x2="748.15" y2="500.49"/>
    <line class="cls-7" x1="716.55" y1="482.59" x2="747.61" y2="483.07"/>
    <line class="cls-7" x1="715.94" y1="462.89" x2="748.97" y2="463"/>
    <line class="cls-7" x1="666.31" y1="286.46" x2="625.31" y2="290.05"/>
    <line class="cls-7" x1="666.88" y1="305.04" x2="624.33" y2="308.76"/>
    <line class="cls-7" x1="666.8" y1="323.17" x2="624.89" y2="326.83"/>
    <line class="cls-7" x1="667.39" y1="342.25" x2="625.16" y2="345.94"/>
    <line class="cls-7" x1="668" y1="361.97" x2="625.77" y2="365.66"/>
    <line class="cls-7" x1="635.88" y1="393.67" x2="601.89" y2="396.64"/>
    <line class="cls-7" x1="605.25" y1="504.94" x2="627.96" y2="502.96"/>
    <line class="cls-7" x1="629.04" y1="537.84" x2="606.68" y2="539.79"/>
    <line class="cls-8" x1="630.13" y1="572.82" x2="607.85" y2="574.76"/>
    <line class="cls-2" x1="117.88" y1="703.2" x2="136.7" y2="701.56"/>
    <line class="cls-8" x1="118.87" y1="735.09" x2="117.88" y2="703.2"/>
    <line class="cls-8" x1="135.68" y1="733.63" x2="134.69" y2="701.73"/>
    <line class="cls-8" x1="151.64" y1="730.84" x2="150.69" y2="700.34"/>
    <line class="cls-8" x1="167.89" y1="729.42" x2="166.94" y2="698.91"/>
    <line class="cls-8" x1="185.05" y1="727.92" x2="184.1" y2="697.42"/>
    <line class="cls-8" x1="201.34" y1="727.89" x2="200.35" y2="695.99"/>
    <line class="cls-8" x1="217.55" y1="725.08" x2="216.6" y2="694.57"/>
    <line class="cls-8" x1="234.13" y1="723.63" x2="233.18" y2="693.12"/>
    <line class="cls-8" x1="250.95" y1="722.16" x2="250.01" y2="691.65"/>
    <line class="cls-8" x1="267.48" y1="720.72" x2="266.51" y2="689.29"/>
    <line class="cls-8" x1="283.63" y1="719.31" x2="282.66" y2="687.88"/>
    <line class="cls-8" x1="299.95" y1="717.88" x2="298.98" y2="686.45"/>
    <line class="cls-3" x1="315.55" y1="715.71" x2="314.6" y2="684.75"/>
    <line class="cls-8" x1="332.79" y1="713.54" x2="331.86" y2="683.58"/>
    <line class="cls-8" x1="349.37" y1="712.75" x2="348.42" y2="682.13"/>
    <line class="cls-8" x1="365.99" y1="711.3" x2="365.02" y2="679.98"/>
    <line class="cls-8" x1="382.04" y1="709.9" x2="381.07" y2="678.47"/>
    <line class="cls-8" x1="398.36" y1="708.47" x2="397.39" y2="677.15"/>
    <line class="cls-8" x1="415.26" y1="706.33" x2="414.31" y2="675.68"/>
    <line class="cls-8" x1="431.66" y1="704.9" x2="430.7" y2="674.13"/>
    <line class="cls-8" x1="448.04" y1="704.13" x2="447.07" y2="672.7"/>
    <line class="cls-8" x1="464.52" y1="702.69" x2="463.53" y2="670.67"/>
    <line class="cls-8" x1="480.77" y1="701.27" x2="479.78" y2="669.14"/>
    <line class="cls-8" x1="497.34" y1="699.15" x2="496.35" y2="667.23"/>
    <line class="cls-8" x1="514.1" y1="697.69" x2="513.13" y2="666.22"/>
    <line class="cls-8" x1="530.34" y1="696.27" x2="529.35" y2="664.34"/>
    <line class="cls-8" x1="512.85" y1="790.22" x2="511.93" y2="764.3"/>
    <line class="cls-8" x1="497" y1="790.97" x2="496.22" y2="765.68"/>
    <line class="cls-8" x1="482.44" y1="793.07" x2="481.63" y2="766.95"/>
    <line class="cls-8" x1="467.36" y1="794.19" x2="466.55" y2="768.27"/>
    <line class="cls-8" x1="451.42" y1="795.59" x2="450.62" y2="769.66"/>
    <line class="cls-8" x1="436.66" y1="796.88" x2="435.86" y2="770.95"/>
    <line class="cls-8" x1="421.27" y1="798.22" x2="420.47" y2="772.3"/>
    <line class="cls-8" x1="406.06" y1="799.75" x2="405.25" y2="773.63"/>
    <line class="cls-8" x1="390.82" y1="801.08" x2="390.01" y2="774.96"/>
    <line class="cls-8" x1="375.21" y1="803.13" x2="374.38" y2="776.33"/>
    <line class="cls-8" x1="360.3" y1="804.53" x2="359.46" y2="777.63"/>
    <line class="cls-8" x1="344.81" y1="805.79" x2="343.98" y2="778.98"/>
    <line class="cls-8" x1="329.81" y1="807.1" x2="328.98" y2="780.29"/>
    <line class="cls-8" x1="314.3" y1="808.85" x2="313.45" y2="781.65"/>
    <line class="cls-8" x1="299.24" y1="810.16" x2="298.4" y2="782.97"/>
    <line class="cls-8" x1="283.76" y1="811.71" x2="282.91" y2="784.32"/>
    <line class="cls-8" x1="268.75" y1="813.12" x2="267.89" y2="785.63"/>
    <line class="cls-8" x1="253.56" y1="814.35" x2="252.71" y2="786.96"/>
    <line class="cls-8" x1="238.14" y1="815.99" x2="237.29" y2="788.31"/>
    <line class="cls-8" x1="226.58" y1="819.51" x2="225.74" y2="792.12"/>
    <line class="cls-8" x1="211.31" y1="821.34" x2="210.44" y2="793.46"/>
    <line class="cls-8" x1="195.99" y1="822.77" x2="195.12" y2="794.8"/>
    <line class="cls-8" x1="181.02" y1="824.18" x2="180.15" y2="796.11"/>
    <line class="cls-8" x1="165.68" y1="825.52" x2="164.81" y2="797.45"/>
    <line class="cls-8" x1="150.58" y1="827.03" x2="149.71" y2="798.77"/>
    <line class="cls-8" x1="135.31" y1="828.37" x2="134.43" y2="800.1"/>
    <line class="cls-8" x1="120.08" y1="829.7" x2="119.2" y2="801.43"/>
    <line class="cls-8" x1="104.95" y1="831.32" x2="104.06" y2="802.76"/>
    <line class="cls-8" x1="89.56" y1="832.66" x2="88.67" y2="804.1"/>
    <line class="cls-2" x1="545.18" y1="662.96" x2="136.7" y2="701.56"/>
    <line class="cls-10" x1="478.01" y1="264.86" x2="477.09" y2="235.25"/>
    <path class="cls-10" d="M635.42,469.22c-9.87,1.33-20.2,1.56-30.09,2.63"/>
    <line class="cls-10" x1="632.74" y1="412.36" x2="602.9" y2="414.97"/>
    <line class="cls-10" x1="632.71" y1="411.37" x2="635.42" y2="469.22"/>
    <text/>
    <g>
      <line class="cls-10" x1="538.51" y1="113.26" x2="547.54" y2="99.77"/>
      <g>
        <line class="cls-10" x1="71.81" y1="98.03" x2="72.66" y2="125.42"/>
        <g>
          <g>
            <g>
              <line class="cls-10" x1="140.92" y1="294.65" x2="420.18" y2="270.24"/>
              <line class="cls-10" x1="420.13" y1="270.12" x2="419.14" y2="238.17"/>
              <line class="cls-10" x1="476.9" y1="233.12" x2="419.14" y2="238.17"/>
            </g>
            <g>
              <line class="cls-10" x1="48.99" y1="127.49" x2="72.66" y2="125.42"/>
              <line class="cls-10" x1="53.82" y1="283.46" x2="48.99" y2="127.49"/>
              <g>
                <line class="cls-10" x1="424.57" y1="186.97" x2="420.15" y2="44.2"/>
                <g>
                  <line class="cls-10" x1="410.75" y1="188.18" x2="424.57" y2="186.97"/>
                  <line class="cls-10" x1="406.33" y1="45.4" x2="410.75" y2="188.18"/>
                </g>
                <line class="cls-10" x1="420.15" y1="44.2" x2="412.92" y2="34.47"/>
                <g>
                  <line class="cls-10" x1="399.3" y1="29.61" x2="412.83" y2="34.44"/>
                  <line class="cls-10" x1="0" y1="36.91" x2="399.3" y2="29.61"/>
                  <path class="cls-2" d="M406.34,45.58c-.69-.85-2.15-2.29-2.15-2.29l-3.42-.62-329.63,25.43-25.04,1.77,2.78,57.75"/>
                  <line class="cls-10" x1="71.28" y1="81.12" x2="406.33" y2="45.4"/>
                </g>
              </g>
            </g>
          </g>
          <g>
            <path class="cls-2" d="M484.14,62.22c.28,9.09.55,18.17.81,27.26"/>
            <path class="cls-2" d="M471.55,171.88c-1.86-38.86-.48-76.82-4.24-115.59-.35-11.32,12.17-19.98,20.98-24.54,62.91,8.38,125.71,12.98,188.66,22.61,9.24,9.28,16.04,22.56,10.06,35.7-8.85,3.3-20.36,3.04-29.41.05-1.31-1.15-2.75-6.07-4.06-7.21-18.09-5.99-37.25-5.57-57.77-7.56-38.45-2.95-74.47-9.89-111.84-11.94"/>
            <path class="cls-2" d="M484.95,88.47c.93,30.52,1.83,59.46,2.76,89.65.16,5.03-4.79,10.51-11.72,7.67l-1.5-1.17-.99-1.23-1.03-1.57-.51-2.18-.26-2.33v-1.72s-.04-1.59-.04-1.59l-.03-1.12-.08-1.34"/>
            <g>
              <path class="cls-10" d="M672.89,113.82c-41.56-5.02-83.91-10.14-125.34-14.05"/>
              <polyline class="cls-2" points="672.11 113.52 674.7 115.61 675.83 118.26 676.34 120.79 676.19 124.32 675.84 146.74 675.55 148.51 674.03 150.76 670.96 152.38 668.17 152.73 666.79 152.23 665.69 150.35 665.59 147.18 665.02 123.45 534.66 142.6 533.4 138.41 534.01 133.96 534.51 129.33 535.12 124.78 536.01 120.67 536.76 117.76 537.86 114.36 547.54 99.66"/>
              <g>
                <g>
                  <line class="cls-10" x1="82.03" y1="309.57" x2="81.14" y2="281.07"/>
                  <polyline class="cls-2" points="81.84 306.42 81.57 310.9 79.59 313.2 72.77 315.01 63.97 315.57 57.6 315.32 56.27 361.68 57.77 390.64 60.84 476.62 63.06 541.34 69.58 676.23 76.03 830.56 548.64 786.22 544.95 662.54 658.99 649.68 739.79 642.18 768.89 96.82 738.3 94.97 734.18 92.27 733.59 87.32 734.22 82.6 735.67 76.53 738.11 71.9 740.74 68.19 746.07 65.27 753.28 62.01 763.41 61.29 782.56 63.1"/>
                  <path class="cls-2" d="M602.22,415.7c-.34-.46-.93-.68-1.54-.75"/>
                  <path class="cls-2" d="M602.16,415.67c.06-.19.03-.42.08-.62-.98-.16-.43.63,0,0-.63.08-1.22.38-1.69.77"/>
                  <path class="cls-2" d="M602.29,415.73c.02-.21-.03-.47-.04-.68-.25.18-.45.4-.59.66"/>
                  <path class="cls-2" d="M602.26,415.57c0-.17,0-.35-.01-.52-.15.18-.26.38-.34.59"/>
                  <path class="cls-2" d="M139.89,294.74c-10.87.67-21.19.51-31.86,2.3-3,.29-6.46-.15-9.36,2.43-.8,32.33,2.67,63.86,3.16,96.06.08,1.91-2.87,3.35-2.79,5.26-1.3,10.11-.04,19.58-.07,29.19,1.2,39.05,3.25,77.63,6.16,116.51.11,2.68,3.59,3.49,5.79,4.82,2.84,36.97,1.8,73.93,4.21,110.94.3,7.27,6.21,14.76,14.77,13.94,44.62-2.37,88.72-6.6,132.8-11.6,12.85-1.23,25.69-2.47,38.54-3.7,7.72-.36,15.04-.29,22.73-1.42,5.55-.92,12.42-1.19,15.21-6.45,1.57-3.61,1-7.01,2.57-10.61,1.6-2.84,5.46-3.21,8.47-3.12,19.33-.32,38.18-2.13,57.39-4.13"/>
                </g>
                <path class="cls-2" d="M604.2,472.61c1.37,45.24,3.69,90.39,4.29,135.71-3.48,9.56-14.42,15.61-24.7,16.99-45.83,5.94-92.2,9.24-138.05,14.8-10.71,1.41-21.89,1.72-32.61,2.75-3.02-.09-3.99-2.69-5.8-4.83-.46-.72-.51-1.87-.31-3.16"/>
                <path class="cls-2" d="M478.15,264.4c10.44-.27,20.72-1.65,31.01-2.63,49.77-4.4,99.51-9.56,149.26-14.34.43-.04.84-.47.83-.85.76-2.38.22-5.02.55-7.36,1.74-9.78-.8-19.15,2.69-28.33,2.13-.59,4.24-1.56,6.39-1.77,1.3.26,2.21,1.33,3.1,2.01,1.37,1.79.59,3.79.67,5.7-.22,15.4-.86,30.85-1.94,46.33-.38,1.19-1.17,2.8-2.03,2.89-14.98,2.21-30.47,2.54-45.42,3.82.02,1.08,1.25-.1,0,0,.47,23.18.98,45.82,1.09,68.89.08,12.3.6,24.55-.18,36.93-2.99.67-5.92,2.49-8.91,3.16-4.7.84-9.42,1.29-14.14,1.74.5,11.87.12,23.45,1.1,35.13"/>
              </g>
            </g>
          </g>
        </g>
      </g>
    </g>
  </g>
  <g id="Text">
    <text class="cls-13" transform="translate(642.03 394.98) rotate(-5) scale(1.15 1)"><tspan class="cls-16" x="0" y="0">L</tspan><tspan x="14.54" y="0">ot B</tspan></text>
    <text class="cls-13" transform="translate(200.85 129.31) rotate(-5) scale(1.15 1)"><tspan class="cls-16" x="0" y="0">L</tspan><tspan x="14.54" y="0">ot A</tspan></text>
    <text class="cls-13" transform="translate(271.33 762.23) rotate(-5) scale(1.15 1)"><tspan class="cls-16" x="0" y="0">L</tspan><tspan x="14.54" y="0">ot C</tspan></text>
  </g>
  <g id="Layer_5" data-name="Layer 5">
    <g id="LINE">
      <line class="cls-6" x1="439.37" y1="236" x2="418.36" y2="237.28"/>
    </g>
    <g id="LINE-2" data-name="LINE">
      <line class="cls-6" x1="420.49" y1="256.75" x2="440.85" y2="255.32"/>
    </g>
    <g id="LINE-3" data-name="LINE">
      <line class="cls-6" x1="419.41" y1="238.19" x2="439.43" y2="236.96"/>
    </g>
    <g id="LINE-4" data-name="LINE">
      <line class="cls-6" x1="420.75" y1="255.76" x2="440.78" y2="254.35"/>
    </g>
    <g id="LINE-5" data-name="LINE">
      <line class="cls-6" x1="420.53" y1="256.47" x2="419.41" y2="238.19"/>
    </g>
    <g id="LINE-6" data-name="LINE">
      <line class="cls-6" x1="456.56" y1="254.21" x2="477.78" y2="252.72"/>
    </g>
    <g id="LINE-7" data-name="LINE">
      <line class="cls-6" x1="456.29" y1="254.28" x2="476.97" y2="253.02"/>
    </g>
    <g id="LINE-8" data-name="LINE">
      <line class="cls-6" x1="440.85" y1="255.32" x2="440.78" y2="254.35"/>
    </g>
    <g id="LINE-9" data-name="LINE">
      <line class="cls-6" x1="456.56" y1="254.21" x2="456.5" y2="253.24"/>
    </g>
    <g id="LINE-10" data-name="LINE">
      <line class="cls-6" x1="455.09" y1="235.03" x2="476.81" y2="233.7"/>
    </g>
    <g id="LINE-11" data-name="LINE">
      <line class="cls-6" x1="455.15" y1="236" x2="475.85" y2="234.73"/>
    </g>
    <g id="LINE-12" data-name="LINE">
      <line class="cls-6" x1="420.14" y1="250.13" x2="419.77" y2="244.16"/>
    </g>
    <g id="LINE-13" data-name="LINE">
      <line class="cls-6" x1="439.43" y1="236.96" x2="439.4" y2="236.51"/>
    </g>
    <g id="LINE-14" data-name="LINE">
      <line class="cls-6" x1="439.43" y1="236.96" x2="439.37" y2="236"/>
    </g>
    <g id="LINE-15" data-name="LINE">
      <line class="cls-6" x1="455.15" y1="236" x2="455.09" y2="235.03"/>
    </g>
    <g id="LINE-16" data-name="LINE">
      <line class="cls-6" x1="455.15" y1="236" x2="455.12" y2="235.54"/>
    </g>
    <g id="LINE-17" data-name="LINE">
      <line class="cls-6" x1="455.1" y1="235.25" x2="455.15" y2="236"/>
    </g>
    <g id="LINE-18" data-name="LINE">
      <line class="cls-6" x1="476.97" y1="253.02" x2="475.85" y2="234.73"/>
    </g>
    <g id="LINE-19" data-name="LINE">
      <line class="cls-6" x1="476.71" y1="246.66" x2="475.92" y2="233.76"/>
    </g>
    <g id="LINE-20" data-name="LINE">
      <line class="cls-5" x1="419.67" y1="250.16" x2="420.14" y2="250.13"/>
    </g>
    <g id="LINE-21" data-name="LINE">
      <line class="cls-5" x1="439.39" y1="236.45" x2="418.86" y2="237.71"/>
    </g>
    <g id="LINE-22" data-name="LINE">
      <line class="cls-5" x1="439.4" y1="236.51" x2="418.91" y2="237.76"/>
    </g>
    <g id="LINE-23" data-name="LINE">
      <line class="cls-5" x1="420.25" y1="256.25" x2="440.81" y2="254.81"/>
    </g>
    <g id="LINE-24" data-name="LINE">
      <line class="cls-5" x1="420.26" y1="256.31" x2="440.82" y2="254.86"/>
    </g>
    <g id="LINE-25" data-name="LINE">
      <line class="cls-5" x1="420.11" y1="249.7" x2="419.13" y2="249.76"/>
    </g>
    <g id="LINE-26" data-name="LINE">
      <line class="cls-5" x1="419.77" y1="244.16" x2="418.79" y2="244.22"/>
    </g>
    <g id="LINE-27" data-name="LINE">
      <line class="cls-5" x1="419.75" y1="243.73" x2="418.76" y2="243.79"/>
    </g>
    <g id="LINE-28" data-name="LINE">
      <line class="cls-5" x1="419.67" y1="250.16" x2="418.91" y2="237.71"/>
    </g>
    <g id="LINE-29" data-name="LINE">
      <line class="cls-5" x1="419.62" y1="250.16" x2="418.86" y2="237.71"/>
    </g>
    <g id="LINE-30" data-name="LINE">
      <line class="cls-5" x1="419.15" y1="250.19" x2="419.62" y2="250.16"/>
    </g>
    <g id="LINE-31" data-name="LINE">
      <line class="cls-5" x1="456.96" y1="253.67" x2="466.41" y2="253"/>
    </g>
    <g id="LINE-32" data-name="LINE">
      <line class="cls-5" x1="456.97" y1="253.72" x2="466.42" y2="253.06"/>
    </g>
    <g id="LINE-33" data-name="LINE">
      <line class="cls-5" x1="477.78" y1="252.72" x2="467.33" y2="253.45"/>
    </g>
    <g id="LINE-34" data-name="LINE">
      <line class="cls-5" x1="430.75" y1="255.06" x2="430.81" y2="256.02"/>
    </g>
    <g id="LINE-35" data-name="LINE">
      <line class="cls-5" x1="430.38" y1="256.05" x2="430.31" y2="255.09"/>
    </g>
    <g id="LINE-36" data-name="LINE">
      <line class="cls-5" x1="440.4" y1="254.38" x2="440.47" y2="255.34"/>
    </g>
    <g id="LINE-37" data-name="LINE">
      <line class="cls-5" x1="456.93" y1="253.21" x2="457" y2="254.18"/>
    </g>
    <g id="LINE-38" data-name="LINE">
      <line class="cls-5" x1="466.18" y1="253.68" x2="466.24" y2="254.64"/>
    </g>
    <g id="LINE-39" data-name="LINE">
      <line class="cls-5" x1="466.68" y1="254.62" x2="466.62" y2="253.65"/>
    </g>
    <g id="LINE-40" data-name="LINE">
      <line class="cls-5" x1="455.56" y1="235.46" x2="465.03" y2="234.88"/>
    </g>
    <g id="LINE-41" data-name="LINE">
      <line class="cls-5" x1="455.56" y1="235.52" x2="465.03" y2="234.94"/>
    </g>
    <g id="LINE-42" data-name="LINE">
      <line class="cls-5" x1="428.97" y1="237.6" x2="428.91" y2="236.64"/>
    </g>
    <g id="LINE-43" data-name="LINE">
      <line class="cls-5" x1="429.35" y1="236.61" x2="429.41" y2="237.58"/>
    </g>
    <g id="LINE-44" data-name="LINE">
      <line class="cls-5" x1="438.93" y1="236.02" x2="438.99" y2="236.99"/>
    </g>
    <g id="LINE-45" data-name="LINE">
      <line class="cls-5" x1="455.53" y1="235.01" x2="455.59" y2="235.97"/>
    </g>
    <g id="LINE-46" data-name="LINE">
      <line class="cls-5" x1="465.5" y1="235.37" x2="465.44" y2="234.4"/>
    </g>
    <g id="LINE-47" data-name="LINE">
      <line class="cls-5" x1="465" y1="234.43" x2="465.06" y2="235.39"/>
    </g>
    <g id="LINE-48" data-name="LINE">
      <line class="cls-5" x1="476.22" y1="246.26" x2="475.88" y2="240.72"/>
    </g>
    <g id="LINE-49" data-name="LINE">
      <line class="cls-5" x1="477.04" y1="246.21" x2="476.7" y2="240.67"/>
    </g>
    <g id="LINE-50" data-name="LINE">
      <line class="cls-5" x1="477.04" y1="246.21" x2="476.7" y2="240.67"/>
    </g>
    <g id="LINE-51" data-name="LINE">
      <line class="cls-5" x1="477.23" y1="240.64" x2="476.21" y2="240.7"/>
    </g>
    <g id="LINE-52" data-name="LINE">
      <line class="cls-5" x1="477.2" y1="240.21" x2="476.19" y2="240.27"/>
    </g>
    <g id="LINE-53" data-name="LINE">
      <line class="cls-5" x1="476.55" y1="246.24" x2="477.58" y2="246.18"/>
    </g>
    <g id="LINE-54" data-name="LINE">
      <line class="cls-5" x1="476.58" y1="246.66" x2="477.58" y2="246.6"/>
    </g>
    <g id="LINE-55" data-name="LINE">
      <line class="cls-5" x1="476.73" y1="240.24" x2="476.36" y2="234.19"/>
    </g>
    <g id="LINE-56" data-name="LINE">
      <line class="cls-5" x1="476.67" y1="240.24" x2="476.3" y2="234.19"/>
    </g>
    <g id="LINE-57" data-name="LINE">
      <line class="cls-5" x1="476.67" y1="240.24" x2="476.3" y2="234.19"/>
    </g>
    <g id="LINE-58" data-name="LINE">
      <line class="cls-5" x1="465.92" y1="234.88" x2="476.36" y2="234.24"/>
    </g>
    <g id="LINE-59" data-name="LINE">
      <line class="cls-5" x1="465.91" y1="234.83" x2="476.36" y2="234.19"/>
    </g>
    <g id="LINE-60" data-name="LINE">
      <line class="cls-5" x1="467.1" y1="254.13" x2="477.68" y2="253.48"/>
    </g>
    <g id="LINE-61" data-name="LINE">
      <line class="cls-5" x1="467.09" y1="254.08" x2="477.68" y2="253.43"/>
    </g>
    <g id="ARC">
      <path class="cls-1" d="M448.43,254.76c-.26-4.28-3.99-7.53-8.34-7.26"/>
    </g>
    <g id="ARC-2" data-name="ARC">
      <path class="cls-1" d="M455.82,246.54c-4.34.27-7.65,3.95-7.39,8.23"/>
    </g>
    <g id="LINE-62" data-name="LINE">
      <line class="cls-1" x1="456.29" y1="254.28" x2="455.82" y2="246.54"/>
    </g>
    <g id="LINE-63" data-name="LINE">
      <line class="cls-1" x1="440.57" y1="255.25" x2="440.09" y2="247.5"/>
    </g>
    <g id="ARC-3" data-name="ARC">
      <path class="cls-1" d="M447.25,236.38c.1-4.28-3.34-7.83-7.69-7.92-.22,0-.44,0-.66.01"/>
    </g>
    <g id="LINE-64" data-name="LINE">
      <line class="cls-1" x1="439.38" y1="236.21" x2="438.9" y2="228.47"/>
    </g>
    <g id="ARC-4" data-name="ARC">
      <path class="cls-1" d="M454.63,227.5c-4.34.24-7.68,3.9-7.45,8.17.01.23.04.47.07.7"/>
    </g>
    <g id="LINE-65" data-name="LINE">
      <line class="cls-1" x1="455.1" y1="235.25" x2="454.63" y2="227.5"/>
    </g>
    <g id="LINE-66" data-name="LINE">
      <line class="cls-6" x1="633.82" y1="433.08" x2="632.93" y2="412.05"/>
    </g>
    <g id="LINE-67" data-name="LINE">
      <line class="cls-6" x1="613.43" y1="413.81" x2="614.48" y2="434.2"/>
    </g>
    <g id="LINE-68" data-name="LINE">
      <line class="cls-6" x1="632" y1="413.08" x2="632.85" y2="433.12"/>
    </g>
    <g id="LINE-69" data-name="LINE">
      <line class="cls-6" x1="614.41" y1="414.1" x2="615.45" y2="434.15"/>
    </g>
    <g id="LINE-70" data-name="LINE">
      <line class="cls-6" x1="613.7" y1="413.86" x2="632" y2="413.08"/>
    </g>
    <g id="LINE-71" data-name="LINE">
      <line class="cls-6" x1="615.29" y1="449.93" x2="616.39" y2="471.17"/>
    </g>
    <g id="LINE-72" data-name="LINE">
      <line class="cls-6" x1="615.22" y1="449.66" x2="616.1" y2="470.35"/>
    </g>
    <g id="LINE-73" data-name="LINE">
      <line class="cls-6" x1="614.48" y1="434.2" x2="615.45" y2="434.15"/>
    </g>
    <g id="LINE-74" data-name="LINE">
      <line class="cls-6" x1="615.29" y1="449.93" x2="616.26" y2="449.88"/>
    </g>
    <g id="LINE-75" data-name="LINE">
      <line class="cls-6" x1="634.49" y1="448.82" x2="635.41" y2="470.56"/>
    </g>
    <g id="LINE-76" data-name="LINE">
      <line class="cls-6" x1="633.52" y1="448.86" x2="634.4" y2="469.58"/>
    </g>
    <g id="LINE-77" data-name="LINE">
      <line class="cls-6" x1="620.05" y1="413.59" x2="626.03" y2="413.33"/>
    </g>
    <g id="LINE-78" data-name="LINE">
      <line class="cls-6" x1="632.85" y1="433.12" x2="633.31" y2="433.1"/>
    </g>
    <g id="LINE-79" data-name="LINE">
      <line class="cls-6" x1="632.85" y1="433.12" x2="633.82" y2="433.08"/>
    </g>
    <g id="LINE-80" data-name="LINE">
      <line class="cls-6" x1="633.52" y1="448.86" x2="634.49" y2="448.82"/>
    </g>
    <g id="LINE-81" data-name="LINE">
      <line class="cls-6" x1="633.52" y1="448.86" x2="633.98" y2="448.84"/>
    </g>
    <g id="LINE-82" data-name="LINE">
      <line class="cls-6" x1="634.28" y1="448.83" x2="633.52" y2="448.86"/>
    </g>
    <g id="LINE-83" data-name="LINE">
      <line class="cls-6" x1="616.1" y1="470.35" x2="634.4" y2="469.58"/>
    </g>
    <g id="LINE-84" data-name="LINE">
      <line class="cls-6" x1="622.46" y1="470.21" x2="635.38" y2="469.66"/>
    </g>
    <g id="LINE-85" data-name="LINE">
      <line class="cls-5" x1="620.04" y1="413.12" x2="620.05" y2="413.59"/>
    </g>
    <g id="LINE-86" data-name="LINE">
      <line class="cls-5" x1="633.37" y1="433.1" x2="632.49" y2="412.54"/>
    </g>
    <g id="LINE-87" data-name="LINE">
      <line class="cls-5" x1="633.31" y1="433.1" x2="632.44" y2="412.6"/>
    </g>
    <g id="LINE-88" data-name="LINE">
      <line class="cls-5" x1="613.93" y1="413.59" x2="614.99" y2="434.17"/>
    </g>
    <g id="LINE-89" data-name="LINE">
      <line class="cls-5" x1="613.87" y1="413.59" x2="614.94" y2="434.17"/>
    </g>
    <g id="LINE-90" data-name="LINE">
      <line class="cls-5" x1="620.49" y1="413.57" x2="620.44" y2="412.58"/>
    </g>
    <g id="LINE-91" data-name="LINE">
      <line class="cls-5" x1="626.03" y1="413.33" x2="625.99" y2="412.35"/>
    </g>
    <g id="LINE-92" data-name="LINE">
      <line class="cls-5" x1="626.46" y1="413.32" x2="626.42" y2="412.33"/>
    </g>
    <g id="LINE-93" data-name="LINE">
      <line class="cls-5" x1="620.04" y1="413.12" x2="632.5" y2="412.59"/>
    </g>
    <g id="LINE-94" data-name="LINE">
      <line class="cls-5" x1="620.03" y1="413.07" x2="632.49" y2="412.54"/>
    </g>
    <g id="LINE-95" data-name="LINE">
      <line class="cls-5" x1="620.01" y1="412.6" x2="620.03" y2="413.07"/>
    </g>
    <g id="LINE-96" data-name="LINE">
      <line class="cls-5" x1="615.82" y1="450.34" x2="616.31" y2="459.8"/>
    </g>
    <g id="LINE-97" data-name="LINE">
      <line class="cls-5" x1="615.77" y1="450.34" x2="616.26" y2="459.8"/>
    </g>
    <g id="LINE-98" data-name="LINE">
      <line class="cls-5" x1="616.39" y1="471.17" x2="615.85" y2="460.71"/>
    </g>
    <g id="LINE-99" data-name="LINE">
      <line class="cls-5" x1="614.93" y1="424.1" x2="613.96" y2="424.15"/>
    </g>
    <g id="LINE-100" data-name="LINE">
      <line class="cls-5" x1="613.94" y1="423.71" x2="614.91" y2="423.66"/>
    </g>
    <g id="LINE-101" data-name="LINE">
      <line class="cls-5" x1="615.43" y1="433.76" x2="614.46" y2="433.81"/>
    </g>
    <g id="LINE-102" data-name="LINE">
      <line class="cls-5" x1="616.28" y1="450.32" x2="615.31" y2="450.37"/>
    </g>
    <g id="LINE-103" data-name="LINE">
      <line class="cls-5" x1="615.64" y1="459.56" x2="614.67" y2="459.6"/>
    </g>
    <g id="LINE-104" data-name="LINE">
      <line class="cls-5" x1="614.69" y1="460.04" x2="615.66" y2="459.99"/>
    </g>
    <g id="LINE-105" data-name="LINE">
      <line class="cls-5" x1="634.05" y1="449.28" x2="634.45" y2="458.76"/>
    </g>
    <g id="LINE-106" data-name="LINE">
      <line class="cls-5" x1="634" y1="449.28" x2="634.4" y2="458.76"/>
    </g>
    <g id="LINE-107" data-name="LINE">
      <line class="cls-5" x1="632.41" y1="422.65" x2="633.38" y2="422.61"/>
    </g>
    <g id="LINE-108" data-name="LINE">
      <line class="cls-5" x1="633.4" y1="423.05" x2="632.43" y2="423.09"/>
    </g>
    <g id="LINE-109" data-name="LINE">
      <line class="cls-5" x1="633.8" y1="432.64" x2="632.84" y2="432.68"/>
    </g>
    <g id="LINE-110" data-name="LINE">
      <line class="cls-5" x1="634.51" y1="449.26" x2="633.54" y2="449.3"/>
    </g>
    <g id="LINE-111" data-name="LINE">
      <line class="cls-5" x1="633.96" y1="459.22" x2="634.93" y2="459.18"/>
    </g>
    <g id="LINE-112" data-name="LINE">
      <line class="cls-5" x1="634.91" y1="458.74" x2="633.94" y2="458.78"/>
    </g>
    <g id="LINE-113" data-name="LINE">
      <line class="cls-5" x1="622.87" y1="469.73" x2="628.41" y2="469.49"/>
    </g>
    <g id="LINE-114" data-name="LINE">
      <line class="cls-5" x1="622.9" y1="470.55" x2="628.45" y2="470.32"/>
    </g>
    <g id="LINE-115" data-name="LINE">
      <line class="cls-5" x1="622.9" y1="470.55" x2="628.45" y2="470.32"/>
    </g>
    <g id="LINE-116" data-name="LINE">
      <line class="cls-5" x1="628.47" y1="470.84" x2="628.43" y2="469.83"/>
    </g>
    <g id="LINE-117" data-name="LINE">
      <line class="cls-5" x1="628.9" y1="470.83" x2="628.86" y2="469.81"/>
    </g>
    <g id="LINE-118" data-name="LINE">
      <line class="cls-5" x1="622.88" y1="470.07" x2="622.93" y2="471.09"/>
    </g>
    <g id="LINE-119" data-name="LINE">
      <line class="cls-5" x1="622.46" y1="470.08" x2="622.5" y2="471.09"/>
    </g>
    <g id="LINE-120" data-name="LINE">
      <line class="cls-5" x1="628.88" y1="470.36" x2="634.94" y2="470.1"/>
    </g>
    <g id="LINE-121" data-name="LINE">
      <line class="cls-5" x1="628.88" y1="470.3" x2="634.93" y2="470.04"/>
    </g>
    <g id="LINE-122" data-name="LINE">
      <line class="cls-5" x1="628.88" y1="470.3" x2="634.93" y2="470.04"/>
    </g>
    <g id="LINE-123" data-name="LINE">
      <line class="cls-5" x1="634.44" y1="459.65" x2="634.88" y2="470.1"/>
    </g>
    <g id="LINE-124" data-name="LINE">
      <line class="cls-5" x1="634.49" y1="459.64" x2="634.94" y2="470.1"/>
    </g>
    <g id="LINE-125" data-name="LINE">
      <line class="cls-5" x1="615.17" y1="460.46" x2="615.62" y2="471.06"/>
    </g>
    <g id="LINE-126" data-name="LINE">
      <line class="cls-5" x1="615.22" y1="460.46" x2="615.67" y2="471.06"/>
    </g>
    <g id="ARC-5" data-name="ARC">
      <path class="cls-1" d="M614.89,441.79c4.28-.18,7.6-3.85,7.42-8.2"/>
    </g>
    <g id="ARC-6" data-name="ARC">
      <path class="cls-1" d="M622.97,449.33c-.18-4.35-3.8-7.72-8.08-7.54"/>
    </g>
    <g id="LINE-127" data-name="LINE">
      <line class="cls-1" x1="615.22" y1="449.66" x2="622.97" y2="449.33"/>
    </g>
    <g id="LINE-128" data-name="LINE">
      <line class="cls-1" x1="614.55" y1="433.92" x2="622.31" y2="433.59"/>
    </g>
    <g id="ARC-7" data-name="ARC">
      <path class="cls-1" d="M633.29,440.96c4.28.18,7.89-3.2,8.07-7.54,0-.22,0-.44,0-.66"/>
    </g>
    <g id="LINE-129" data-name="LINE">
      <line class="cls-1" x1="633.61" y1="433.09" x2="641.36" y2="432.76"/>
    </g>
    <g id="ARC-8" data-name="ARC">
      <path class="cls-1" d="M642.03,448.5c-.15-4.35-3.75-7.75-8.03-7.6-.23,0-.47.03-.7.06"/>
    </g>
    <g id="LINE-130" data-name="LINE">
      <line class="cls-1" x1="634.28" y1="448.83" x2="642.03" y2="448.5"/>
    </g>
  </g>
</svg>