<?xml version="1.0" encoding="UTF-8"?>
<svg xmlns="http://www.w3.org/2000/svg" width="832.06" height="729.89" viewBox="0 0 832.06 729.89">
  <defs>
    <style>
      .cls-1, .cls-2, .cls-3, .cls-4 {
        stroke: #231f20;
        stroke-miterlimit: 10;
      }

      .cls-1, .cls-2, .cls-3, .cls-4, .cls-5 {
        stroke-width: 2px;
      }

      .cls-1, .cls-6 {
        fill: #e2ccb0;
      }

      .cls-7 {
        font-size: 28.81px;
      }

      .cls-7, .cls-8, .cls-9 {
        fill: #010101;
      }

      .cls-7, .cls-8, .cls-9, .cls-10, .cls-11, .cls-12, .cls-13 {
        font-family: MyriadPro-Regular, 'Myriad Pro';
      }

      .cls-8 {
        font-size: 28.81px;
      }

      .cls-9 {
        font-size: 29.28px;
      }

      .cls-2, .cls-14, .cls-15 {
        fill: #fff;
      }

      .cls-10 {
        font-size: 5.65px;
      }

      .cls-10, .cls-11, .cls-12, .cls-13 {
        fill: #231f20;
      }

      .cls-11 {
        font-size: 5.76px;
      }

      .cls-12 {
        font-size: 5.76px;
      }

      .cls-14 {
        opacity: .25;
      }

      .cls-13 {
        font-size: 5.57px;
      }

      .cls-3 {
        fill: gray;
      }

      .cls-16 {
        letter-spacing: 0em;
      }

      .cls-4, .cls-5 {
        fill: none;
      }

      .cls-17 {
        letter-spacing: 0em;
      }

      .cls-5 {
        stroke: #ed2224;
        stroke-linecap: round;
        stroke-linejoin: round;
      }

      .cls-18 {
        letter-spacing: -.08em;
      }

      .cls-19 {
        letter-spacing: -.02em;
      }

      .cls-20 {
        letter-spacing: -.01em;
      }

      .cls-21 {
        letter-spacing: -.01em;
      }

      .cls-22 {
        letter-spacing: -.01em;
      }

      .cls-23 {
        letter-spacing: -.01em;
      }

      .cls-24 {
        letter-spacing: .02em;
      }

      .cls-25 {
        letter-spacing: .04em;
      }

      .cls-26 {
        letter-spacing: 0em;
      }
    </style>
  </defs>
  <g id="streets">
    <path class="cls-4" d="M597.98,540.15l-.27,2.88.27-2.88Z"/>
    <polygon class="cls-3" points="597.19 543.04 600.52 535.71 602.71 531.16 605.45 526.79 613.73 512.78 622.05 498.72 633.04 480.21 640.45 466.85 646.93 456.66 650.93 449.15 656.37 439.15 660.77 432.96 662 431.45 662.58 429.03 662.6 427.29 662.63 419.7 662.44 417.96 662.06 415.99 661.65 414.45 661.02 413.1 657.82 409.25 655.25 406.58 651.99 403.56 649.07 401.35 638.24 394.78 636.05 394.05 633.86 393.55 631.59 393.09 629.76 393.03 628.01 392.98 626.37 393.03 624.67 393.32 616.58 395.11 613.65 396.23 610.64 398.47 608.13 400.55 604.57 405.69 600.06 412.5 594.78 422.2 592.73 425.86 591.94 427.66 591.2 428.64 590.43 428.85 589.61 428.7 588.54 428.44 587.37 427.97 586.25 427.45 585.29 426.75 581.19 424.77 575.55 421.65 570.74 418.77 567.29 416.61 563.41 412.42 561.93 410.03 561 408.34 560.59 406.55 560.29 404.42 560.27 402.52 559.47 396.59 559.2 393.92 558.87 391.47 558.41 388.8 557.61 386.85 556.68 385.08 552.17 374.53 549.93 372.21 545.63 367.87 543.67 366.65 542.02 366.65 540.33 367.12 539.1 368.08 538.25 369.15 537.92 370.5 537.92 372.03 538.82 373.26 539.95 374.63 545.69 380.95 547.06 384.01 548.4 387.5 549.68 390.46 549.87 393.4 550.37 397.22 550.94 402.16 551.4 405.49 551.92 408.66 552.77 411.07 554.19 413.67 555.18 415.99 566.28 426.3 571.81 428.9 575.99 431.76 580.26 434.08 582.86 435.97 584.22 436.86 585.26 437.77 585.62 438.47 585.54 439.28 585.15 440.37 584.63 441.59 579.25 451.34 577.47 454.32 575.61 455.49 574.16 456.79 571.37 458.41 568.83 460.23 564.61 463.37 562.04 465.58 560.68 468.13 559.96 470.6 558.02 478.32 556.3 484.94 555.48 489.86 557.37 486.43 559.83 481.98 562.7 477.69 566.56 472.78 569.26 470.28 571.97 468.26 574.27 466.54 576.27 465.44 577.8 465.92 578.6 466.96 579.44 468.88 580.18 471.45 581.16 474.26 581.49 477.22 581.57 481.44 581.57 485.41 581.16 488.61 579.93 494.07 577.39 500.23 572.71 507.56 565.33 519.22 556.87 530.87 553.02 536.41 549.98 539.06 547.93 540.7 544.9 542.8 534.23 547.33 521.84 553.72 516.92 556.14 513.06 559.34 509.78 563 504.86 567.99 496.82 576.18 492.3 580.23 486.31 584.76 481.06 588.5 476.96 591.32 472.45 593.8 468.43 596.06 464.98 597.78 462.19 599.65 458.99 601.37 456.7 602.77 455.63 603.16 453.99 602.22 452.68 600.51 451.77 598.87 450.95 596.61 450.24 594.5 449.48 590.92 449.15 587.72 449.07 584.83 449.31 581.53 450.2 579.45 451.77 577.11 458.83 570.17 464.57 564.72 468.51 561.21 472.7 558.56 478.27 554.66 482.46 551.93 485.99 549.59 488.69 548.11 492.96 545.85 496.57 543.66 499.2 542.57 501.58 541.09 504.94 538.28 507.4 536.8 508.47 536.18 504.61 529.16 501.82 530.8 498.46 532.9 494.6 534.85 483.77 540.78 477.62 544.36 472.78 547.48 467.61 550.99 462.28 554.97 458.83 558.24 454.32 563.23 450.2 567.13 445.37 571.58 442.42 576.02 440.7 579.38 440.2 583.04 440.12 586.86 440.29 590.29 441.11 593.26 442.17 598.25 443.57 602.61 444.8 605.27 445.7 607.45 445.29 609.4 443.32 610.49 432.57 615.09 416.33 622.34 403.2 628.03 396.8 630.84 390.49 634.35 385.32 637.08 379.16 640.12 375.8 642.69 373.99 644.96 371.7 646.98 369.81 649.01 368.33 649.09 366.94 648.78 364.56 647.45 347.25 633.65 324.85 616.57 314.02 608.77 304.25 602.69 298.84 599.26 292.6 595.91 286.45 593.1 281.45 591.15 272.01 588.73 266.35 587.17 258.55 585.46 247.64 583.28 240.26 581.4 226.31 578.83 217.94 576.34 212.45 574.15 204.81 571.89 199.65 569.94 195.05 567.52 185.21 560.19 181.27 555.2 178.31 551.51 176.18 547.33 172.32 538.67 169.86 530.02 168.8 521.75 169.21 517.07 169.53 512.94 170.36 508.18 173.47 501.01 175.77 495.55 178.81 491.57 182.5 486.58 186.35 481.67 190.62 476.52 210.07 450.56 224.1 430.36 237.22 412.03 252.48 390.75 269.8 366.89 285.14 346.06 295.15 332.57 307.21 316.04 340.19 270.97 392.86 197.59 454.81 114.55 459.73 108.07 460.72 106.75 461.95 106.36 463.59 106.36 465.06 106.98 453.33 99.73 167.16 493.1 161.9 503.04 159.38 515.2 159.38 526.85 161.58 536.41 166.5 547.64 171.91 558.87 184.55 570.06 198.33 580.08 212.77 583.82 231.25 589.19 252.81 593.18 271.51 596.61 283.33 601.29 298.66 609.24 306.54 614.76 317.95 623.11 328.29 630.92 342.08 641.84 356.52 652.75 361.35 656.5 363.57 659.93 359.64 664.92 353.72 675.52 351.6 682.07 348.97 690.18 347.66 693.93 342.41 701.41 353.73 706.87 351.92 704.22 353.56 701.88 356.68 696.89 357.5 692.52 358.49 688 360.78 682.7 363.74 677.4 367.51 668.51 371.29 661.96 374.4 657.28 376.21 654 380.97 649.17 391.63 643.71 398.53 639.34 412.31 633.57 436.1 622.81 451.03 615.64 457.27 612.05 463.51 607.99 470.56 604.56 477.62 601.13 484.02 597.08 499.11 585.85 504.36 580.7 511.26 574 519.13 565.57 523.24 562.17 531.38 558.56 540.95 553.41 549.82 549.04 554.91 546.39 558.13 543.73 563.6 536.41 565.9 533.45 567.7 532.06 626.7 566.74 632.85 570.56 637.44 574.7 637.69 577.04 636.87 579.53 635.15 582.34 633.34 584.99 632.44 587.56 631.86 590.92 631.86 593.33 633.26 596.22 634.74 598.48 637.36 601.52 639.49 603 642.53 604.64 644.99 605.89 646.06 606.28 648.36 602.69 645.89 601.13 643.6 599.81 640.48 597.47 638.92 595.44 637.85 593.33 636.95 590.45 637.2 588.11 638.18 586.16 639.33 584.21 641.38 581.4 642.04 579.45 642.37 576.88 642.04 573.37 639.41 570.56 636.38 567.84 631.78 564.48 627.27 561.6 572.63 527.29 571.64 525.57 572.3 524.01 574.84 520.81 580.34 512.47 583.79 506.47 586.82 500.38 588.95 493.37 590.19 486.11 590.6 479.1 590.35 472.55 588.79 468.18 587.31 465.29 586.41 463.27 586 460.77 586 457.89 586.74 455.16 596.26 438.16 600.93 428.96 605.94 419.36 609.79 412.81 613.24 408.21 615.54 405.09 619.72 402.91 623.82 401.74 627.02 401.35 632.03 401.9 635.8 403.07 639.08 405.02 641.96 407.2 644.25 409.23 650.57 414.14 653.36 418.19 654.43 424.04 652.38 430.52 648.52 436.36 638.51 453.36 624.56 477.61 606.18 507.56 598.88 520.81 591.99 531.97 588.82 537.22 597.19 543.04"/>
  </g>
  <g id="outline">
    <polygon id="bottom_lot_left_" data-name="bottom lot(left)" class="cls-2" points="395.99 159.85 324.61 261.34 319.24 257.94 312.8 267.13 144.25 160.58 153.66 147.14 138.76 137.73 203.05 45.87 218.41 55.59 229.47 39.78 391.32 142.09 383.84 152.12 395.99 159.85"/>
    <path id="bottom_lot_right_" data-name="bottom lot(right)" class="cls-2" d="M132.31,498.06l1.3.02c1.25-.91,2.31-1.99,3.15-3.2l95.38-136.51-.44-2.64-9.53-6.02-1.32-1.07c-2.03-2.54-1.84-5.39.6-6.36.71-.28,2.1-.25,2.96-.1l2.3,1.03,20.84,12.98,2.49,3.3c.53.76,1.98,3.15,2.11,3.92.44,2.58.63,3.59.68,3.71.06.15-.04,1.74,0,1.89.03.13-.53,1.33-.58,1.43l64.2-90.67-3.52.24-4.13-.64-7.37-2.78-5.36-3.69c-3.13-2.28-5.18-8.2-2.72-10.3l3.76-5.38-26.89-17-9.07,12.97-2.09.16-4.25-3.14-1.09-3.02.44-2.55,5.26-7.52-74.79-47.18-4.74,6.77-1.09.33c-2.31.7-5.1.68-8-.05l-2.04-.51-7.5-4.34c-3.54-2.23-8.45-1.54-9.52-.4l-1.19.43L2.82,403.27c-.6.86-.68,2-.25,3.2,1,2.8,2.77,5.6,5.18,8.16.34.36.73.69,1.15,1l1.57,1.16,115.81,78.24,3.54,2.24c.78.5,1.67.78,2.49.79ZM202.88,255.23l-6.88-4.35-4.02-2.54-1.5-1.65-1.35-1.87-.77-1.57-.7-2.09-.31-1.66.2-1.27.68-.97.86-1.23,1.18-.71,1.83-.37,2.62.33,31.94,20.19.68,1.13.27.74.61.96.24.78-.74,1.06-1.32.62-1.71.06-2.23-.33-1.83-.33-4.61-.57-2.79-.37-2.91-.76-3.53-1.28-2.09-.81-1.84-1.16ZM228.64,294.56l2.15-3.08,2.63-3.18,2.55-2.78,2.79-2.56,2.39-2.56,1.31-.59,1.35.21,1.18.75.44.8.03.67-11.15,15.93-5.69-3.6ZM254.47,310.88l18.6-25.49,1.1.05,1.41.32,6.46,4.09.85.94.5,1.45,1.92,7.15,1.41,6.26.84,5.82.28,5.54-.2,1.01-.86,2.3-5.33,7.61-26.99-17.06ZM220.83,312.44l-.65-.93.08-1.11.35-1.78,2.75-5.5,2.45-3.49,1.47-2.11,5.2,3.29-8.5,12.14-.79.41-1.18-.17-1.18-.75ZM250.83,332.82l-2.83-3.34-1.7-2.79-.4-2.13.72-2.47,6.08-8.68,26.99,17.06-3.71,5.3-2.89,2.16-4.93,1.28-4.51.32-4.58-1.19-4.43-2.31-3.8-3.21ZM85.63,429.79l-1.16-.73-1.7-1.08-.76-1.43-.66-1.3-.23-1.35.17-1.22,39.48-56.41,6.62-9.45,4.28-5.41,6.45-8.1,7.93-9.64,6.66-7.97,6.18-7,5.55-6.39,1.85-.67,2.06.29,1.69.81,1.43,1.6.46,1.31-.07,1.22-5.82,8.31-35.69,51-37.57,53.69-1.16.53-1.19.58-2.01.06-1.47-.42-1.29-.82Z"/>
    <path id="top_parkinglot" data-name="top parkinglot" class="cls-2" d="M638.2,378.62l-3.26-1.28s-.03-.02-.04-.03l-2.27-3.12s-.11-.05-.13,0l-9.62,18.48c-.03.06.05.12.11.1l1.88-.73s.01,0,.02,0l2.61-.4s0,0,0,0l3.84-.26s.02,0,.02,0l3.76.81s0,0,.01,0l4.21,1.43s.01,0,.02,0l3.06,1.85s.01,0,.02.01l3.32,3.22s.01.02.02.03l1.7,4.04s0,0,0,.01l.63,3.39s0,.01,0,.02l-.42,2.23s0,.01,0,.02l-1.06,1.58s-.02.02-.03.02l-3.25,1.03s-.02,0-.03,0l-4.27-.52s-.01,0-.02,0l-10.39-3.37s-.08,0-.09.04l-4.83,21.5-2.14,8.83s0,0,0,0l-3.27,8.58-3.92,11.65-3,7.53-3.45,8.66s0,.07.05.09l11.05,4.63s.01,0,.02,0l2.96,1.96s.03.02.03.04l1.24,3.4s0,.02,0,.03l-.57,3.09s0,0,0,.01l-5.09,10.33-9.83,18.2-5.34,9.41-6.91,10.62-7.47,11.14s0,0,0,0l-10.8,13.37-10.79,13.03-6.76,7.34-1.57,1.7s-.03.02-.05.02l-1.61.04s-.01,0-.02,0l-1.81-.33s-.02,0-.03-.01l-1.75-1.06s0,0,0,0l-3.06-2.2-7.66-6.01s-.08-.03-.11,0l-7.59,7.8-5.65,5.84-7.77,7.24s0,0,0,0l-12.3,10.12-14.26,11.44s0,0,0,0l-11.34,7.41-15.22,9.48-18.39,10.5s0,0,0,0l-13.6,6.74-11.25,5.65-12.94,5.92s0,0,0,0l-3.36,1.04s-.05.05-.03.09l2.25,3.5,4.3,6.73.86,1.49s0,.02,0,.03l.07.99s0,.01,0,.02l-.2.99s0,.01,0,.02l-.46.69-.5.75-.53.79s-.02.02-.03.02l-.74.28s0,0,0,0l-2.84.84s-.05.05-.03.09l11.13,17.86s.05.04.08.04l1.03-.08s0,0,.01,0l1.07.06s.02,0,.03,0l1.68.65s.02,0,.03.02l1.37,1.12s.01.01.02.02l.73,1.26,5.28,9.61s.07.06.11.04l18.13-8.1,10.44-4.94,7.3-3.61,10.94-5.69,9.87-5.21,12.54-6.82,9.44-5.55s0,0,0,0l18.2-12.18,13.18-8.76s0,0,0,0l20.41-17.3s0,0,0,0l7.91-7.75,6.65-6.56,8.34-9.22,10.73-11.53,5.24-6.14,5.07-6.02,6.63-7.93,6.62-8.76,4.95-6.83s0-.07-.03-.1l-10.39-6.29s0,0-.01,0l-1.5-1.21s-.02-.02-.02-.03l-.88-1.72s0-.02,0-.02l-.1-1.08s0-.02,0-.03l.61-1.19s0,0,0,0l3.83-5.99s.01-.02.03-.02l1.83-.81s.02,0,.03,0l1.62.03s.03,0,.05.01l1.98,1.2,9.8,5.93s.09.02.1-.02l13.61-22.39s0,0,0,0l7.14-14.15,6.09-12.16,7.69-17.34s0,0,0,0l5.42-16.47,6.17-20.52,4.41-18.88.99-3.53s-.02-.08-.06-.09l-9.06-2.29-3.15-.86s-.03,0-.04-.02l-2.02-1.67s-.02-.02-.02-.03l-.81-1.97s0-.01,0-.02l-.12-2.32-.04-6.93s0,0,0,0l-.98-6.07s0,0,0-.01l-1.91-5.66s0,0,0-.01l-3.21-5.39s0,0,0-.01l-4.34-5.1s0,0-.01-.01l-5.61-4.75s0,0-.02-.01l-4.21-2.33s-.03-.01-.04-.01l-3.85-.04c-.09,0-3.21,0-3.12.02l-3.24-.1h0"/>
    <polygon id="left_parking_lot" data-name="left parking lot" class="cls-2" points="613.59 351.92 528.61 296.66 525.43 288.87 553.16 254.16 641.11 313.71 613.59 351.92"/>
    <polygon id="middle_left_lot" data-name="middle left lot" class="cls-14" points="525.72 365.98 516.64 377.79 495.15 362.87 496.3 361.37 484.9 353.46 485.24 353.01 480.77 349.91 501.41 323.05 500.82 322.64 501.35 321.95 503.74 321.81 505.81 321.83 506.7 321.95 512.95 313.82 514.28 313.19 515.76 312.79 517.08 312.78 518 312.86 518.76 313.39 533.91 323.91 534.81 324.53 535.27 325.28 535.75 326.36 536.11 327.42 536 328.58 535.37 329.57 524.12 344.21 523.29 345.62 522.57 347.41 522.6 348.99 522.37 350.81 522.33 352.65 522.33 354.94 522.38 357.08 522.35 358.99 522.44 360.66 522.7 362.27 523.52 364.08 524.35 364.97 525.03 365.69 525.72 365.98"/>
    <polygon id="bottom_lot_left_left_" data-name="bottom lot (left left)" class="cls-2" points="401.11 152.74 402.31 151.07 429.43 113.41 332.93 50.66 308.63 84.41 399.47 143.48 401.07 145.27 402.01 147.16 402.62 149.36 401.11 152.74"/>
    <polyline class="cls-15" points="189.62 187.13 300.38 248.73 287.38 268.72 180.88 197.9"/>
    <polygon class="cls-15" points="246.9 233.67 248.37 272.93 281.94 267.67 271.98 223.85 246.9 233.67"/>
  </g>
  <g id="berlin">
    <polyline class="cls-1" points="756.56 391.63 747.04 385.43 746.29 386.48 727.41 374.2 728.22 373.08 722.73 369.51 722.03 370.5 713.53 364.97 714.18 364.07 709.87 361.26 706.58 365.82 707.25 366.25 702.03 373.51 689.74 365.51 677.1 383.07 687.96 390.13 687.47 390.81 693.94 395.01 694.74 393.9 705.44 400.85 704.63 401.97 711.27 406.28 711.7 405.69 728.19 416.41 727.76 417.01 734.64 421.48 737.05 418.13 735.99 417.44 747.21 401.86 747.5 401.45 746.74 400.96 747.17 400.88 749.03 402.09 756.56 391.63 749.03 402.09 756.56 391.63"/>
    <polyline class="cls-1" points="689.74 365.51 685.87 363 696.7 347.95 694 346.2 699.32 338.81 696.4 336.91 695.53 338.11 679.53 327.71 697.49 302.76 705.59 308.03 704.08 310.12 706.63 311.78 709.57 307.71 716.09 311.96 713.19 316 716.69 318.27 718.15 316.24 726.09 321.41 724.74 325.45 696.12 365.2 692.8 367.65"/>
    <polyline class="cls-1" points="657.06 360.42 663.32 364.5 663.03 364.9 665.22 366.32 673.37 355.01 684.96 362.55 685.79 363.1 696.7 347.95 694 346.2 699.32 338.81 696.4 336.91 695.56 338.06 679.56 327.66 656.32 359.95"/>
    <g id="LWPOLYLINE">
      <polygon class="cls-4" points="661.17 371.65 664.64 366.83 655.56 360.92 652.08 365.75 661.17 371.65"/>
    </g>
    <g id="POLYLINE">
      <polyline class="cls-4" points="665.73 372.9 663.84 371.67 671.21 361.43 677.89 365.78 681.4 360.9 685.8 363.76 695.06 350.9 694.17 350.33 696.14 347.59 696.98 348.14 699.91 350.04 682.68 373.97 682.68 373.97 682.68 373.97 682.68 373.97 680.93 376.39 680.93 376.39 677.48 374.15 677.06 374.74 679 376 676.36 379.67 674.13 378.21 673.18 379.53 669.66 377.24 669.52 377.15 671.24 374.76 670.63 374.36 669.79 375.54 668.02 374.39"/>
    </g>
    <g id="LWPOLYLINE-2" data-name="LWPOLYLINE">
      <polygon class="cls-4" points="680.93 360.59 677.74 365.02 670.23 360.13 673.41 355.71 680.93 360.59"/>
    </g>
    <g id="LWPOLYLINE-3" data-name="LWPOLYLINE">
      <polygon class="cls-4" points="699.01 344.03 696.53 347.47 694.44 346.11 696.92 342.67 699.01 344.03"/>
    </g>
    <g id="LWPOLYLINE-4" data-name="LWPOLYLINE">
      <polygon class="cls-4" points="695.97 360.92 695.54 361.52 692.79 359.73 693.22 359.14 695.97 360.92"/>
    </g>
    <path class="cls-4" d="M711.15,310.46l.05.03.84-1.17-.05-.03-.66,1.27c.62.28,1.3.15,1.77-.31l.13-.16-2.08.37Z"/>
    <text class="cls-11" transform="translate(706.03 389.22) rotate(.07) scale(1.05 1)"><tspan x="0" y="0">DIA</tspan><tspan class="cls-18" x="8.74" y="0">L</tspan><tspan class="cls-20" x="10.98" y="0">Y</tspan><tspan class="cls-16" x="14.02" y="0">SIS</tspan></text>
    <text class="cls-12" transform="translate(673.1 344.16) rotate(1.62) scale(1.05 1) skewX(-.17)"><tspan class="cls-26" x="0" y="0">R</tspan><tspan x="3.13" y="0">AD</tspan><tspan x="0" y="6.91">ADMIN</tspan></text>
    <text class="cls-10" transform="translate(692.21 318.65) rotate(-.18) scale(1.05 1) skewX(.02)"><tspan class="cls-19" x="0" y="0">C</tspan><tspan x="3.16" y="0">OMM</tspan><tspan x="0" y="6.78">MR</tspan><tspan class="cls-24" x="7.58" y="6.78">K</tspan><tspan x="10.76" y="6.78">TING</tspan><tspan x="0" y="13.55">PH LANTH</tspan></text>
  </g>
  <g id="faulknerfloor1">
    <g>
      <polygon class="cls-2" points="299.96 591.32 318.59 565.23 324.67 569.18 335.23 554.51 377.6 582.06 434.81 502.59 464.48 521.89 465.96 520.83 476.31 527.56 481.72 526.75 490.34 523.61 497.03 520.59 508.52 513.9 513.7 509.98 521.02 502.95 526.93 495.88 532.01 487.68 536.11 477.85 539.09 467.3 540.75 458.15 540.95 448.74 539.93 439.04 528.19 431.4 531.52 426.78 519.91 419.23 530.23 404.9 508.84 390.99 537.24 351.54 530.74 347.31 531.27 346.57 452.39 300.29 501.9 231.77 479.27 216.29 484.26 209.36 456.16 191.08 431.71 225.04 421.33 218.29 398.77 249.64 409.67 256.73 389.27 285.06 378.37 277.97 259.61 442.94 270.2 449.83 249.73 478.26 239.14 471.37 216.43 502.92 226.91 509.66 202.24 543.84 230.19 561.81 237.99 551.41 299.96 591.32"/>
      <polyline class="cls-4" points="406.15 413.59 359.87 383.5 365.85 375.19 354.95 368.1 339.35 389.77 355.7 400.41 361.88 391.84 402.98 418.57 389.89 436.75 332.29 399.29 324.22 410.5 334.56 417.23 238.17 551.13 243.69 554.72 249.02 547.32 251.01 548.61 254.34 543.99 252.56 542.83 304.78 470.3 310.82 474.23 314.34 469.34 308.37 465.45 344.89 414.72 400.78 451.06 318.59 565.23 323.42 568.36 405.51 454.33 436.51 474.49 423.28 492.88 428.31 496.15 458.3 454.49 464.94 458.81 464.19 459.85 465.77 460.87 464.59 462.51 466.54 463.78 465.82 464.79 469.28 467.04"/>
      <polygon class="cls-4" points="465.96 520.83 476.31 527.56 481.72 526.75 490.34 523.61 497.03 520.59 508.52 513.9 513.7 509.98 521.02 502.95 526.93 495.88 532.01 487.68 536.11 477.85 539.09 467.3 540.75 458.15 540.95 448.74 539.93 439.04 528.19 431.4 531.52 426.78 519.91 419.23 530.23 404.9 508.84 390.99 537.24 351.54 530.74 347.31 531.27 346.57 472.55 308.39 472.3 309.31 455.03 298.08 502.86 231.63 479.27 216.29 484.26 209.36 456.16 191.08 431.71 225.04 421.33 218.29 398.77 249.64 409.67 256.73 389.27 285.06 378.37 277.97 259.61 442.94 270.2 449.83 249.73 478.26 239.14 471.37 216.43 502.92 226.6 509.53 202.01 543.69 230.42 562.17 238.31 551.22 299.96 591.32 318.7 565.29 324.67 569.18 335.23 554.51 377.6 582.06 434.81 502.59 464.48 521.89 465.96 520.83"/>
      <polyline class="cls-4" points="455.03 298.08 448.81 294.03 417.32 337.77 438.3 351.41 432.99 358.77 441.94 364.59 443.72 362.11 448.55 365.25 442.04 374.29 489.92 405.43 502.8 387.55 508.6 391.32"/>
      <polygon class="cls-1" points="526.5 433.74 512.13 453.7 499.9 445.75 497.54 449.03 481.74 438.76 484.29 435.21 486.53 436.66 489.81 432.11 481.21 426.52 494.33 408.3 513.55 420.8 511.53 423.61 526.5 433.74"/>
      <polygon class="cls-1" points="480.41 492.6 460.97 519.6 439.9 505.9 450.24 491.53 438.08 483.62 449.81 467.33 468.83 479.69 466.22 483.31 480.41 492.6"/>
      <text/>
      <polygon class="cls-1" points="348.84 409.66 358.07 415.66 362.07 410.1 369.13 414.69 373.85 408.13 367.21 403.81 371.26 398.19 362.66 392.59 359.43 397.08 363.42 399.67 359.37 405.3 354.34 402.03 348.84 409.66"/>
      <polygon class="cls-1" points="365.76 420.66 381.13 430.66 386.1 423.76 381.84 420.99 382.9 419.52 376.19 415.15 382.94 405.78 378.53 402.91 365.76 420.66"/>
      <polygon class="cls-1" points="387.38 423.42 395.63 428.78 402.86 418.73 396.85 414.82 395.6 416.56 393.36 415.11 387.38 423.42"/>
      <polygon class="cls-1" points="393.34 413.13 386.4 422.78 382.42 420.19 382.9 419.52 383.52 418.65 377.58 414.78 383.71 406.28 390.91 410.96 390.62 411.36 393.34 413.13"/>
      <polygon class="cls-1" points="394.68 440.36 439.42 469.45 452.39 451.43 407.65 422.34 394.68 440.36"/>
      <polygon class="cls-1" points="411.32 417.25 425.58 426.52 437.25 410.32 445.36 415.59 451.82 406.61 444.13 401.61 456.33 384.67 441.65 375.12 411.32 417.25"/>
      <polygon class="cls-1" points="457.94 447.57 426.28 426.98 437.46 411.44 444.87 416.26 442.51 419.54 451.39 425.31 452.93 423.17 468.31 433.17 457.94 447.57"/>
      <polygon class="cls-1" points="474.48 424.6 466.58 419.46 469.62 415.24 466.83 413.42 463.35 418.25 454.83 412.7 465.63 397.7 480.38 407.29 482.54 413.41 474.48 424.6"/>
      <polygon class="cls-1" points="464.02 389.67 458.38 397.5 451.38 392.96 445.26 401.46 452.25 406.01 457.31 398.98 461.58 401.75 468.28 392.44 464.02 389.67"/>
      <polygon class="cls-4" points="334.44 417.41 271.8 504.41 265.3 500.18 263.03 503.33 256.39 499.01 222.49 546.1 208.58 537.05 263.99 460.09 271.89 465.23 279.5 454.65 271.39 449.37 311.51 393.65 328.08 404.42 323.64 410.58 334.44 417.41"/>
      <polygon class="cls-4" points="400.71 451.16 364.26 501.8 348.98 491.86 314.02 540.42 309.9 537.74 304.04 545.88 295.27 540.17 292.37 544.19 293.39 544.85 281.4 561.5 276.9 558.56 268.63 570.05 244.33 554.25 249.23 547.46 251.01 548.61 254.34 543.99 252.56 542.83 304.78 470.3 310.82 474.23 314.34 469.34 308.37 465.45 344.89 414.72 400.71 451.16"/>
      <line class="cls-4" x1="385.46" y1="482.54" x2="405.42" y2="454.81"/>
      <polygon class="cls-4" points="363.59 502.44 300.23 590.45 274.05 573.43 274.25 573.14 269.61 570.12 276.97 559.89 281.6 562.9 294.76 544.62 293.49 543.79 295.39 541.15 304.27 546.93 310.13 538.79 314.31 541.51 349.29 492.91 363.7 502.28 363.59 502.44"/>
      <polyline class="cls-4" points="202.01 543.69 230.42 562.17 238.17 551.13 334.56 417.23 324.22 410.5 332.29 399.29 389.89 436.75 402.86 418.73"/>
      <polyline class="cls-4" points="428.31 496.15 437.57 483.29 450.24 491.53 439.9 505.9 434.81 502.59 378.08 581.59 334.54 553.27 385.46 482.54"/>
      <polygon class="cls-4" points="422.79 492.56 435.76 474.54 405.42 454.81 435.76 474.54 422.79 492.56"/>
      <polyline class="cls-4" points="442.04 374.29 411.32 417.25 458.04 447.63 471.75 428.59 471.05 428.13 468.41 431.8 454.01 422.43 458.16 416.67 461.61 418.91 462.24 418.93 462.74 418.63 463.01 418.35 463.35 418.25 466.83 413.42 469.62 415.24 466.58 419.46 474.48 424.6 482.54 413.41 480.38 407.29 478.35 405.97 482.3 400.48"/>
      <polyline class="cls-4" points="471.96 468.59 478.71 472.97 479.14 472.37 481.17 473.69 482.45 471.91 484.44 473.21 483.77 474.15 484.95 474.92 485.89 473.61 487.26 474.5 486.63 475.37 489.46 477.21 487.65 479.72 489.79 481.11 490.58 480.01 493.13 481.67 491.06 484.55 492.91 485.75 491.27 488.03 490.71 487.66 479.36 503.44 480.13 503.94 478.34 506.42 475.55 504.6 466.46 517.22 469.23 519.22 472.99 518.91 479.35 517.64 486.01 515.43 492.15 513.04 496.75 510.71 501.46 508.02 506.16 504.49 509.2 501.75 512.52 498.65 514.18 496.98 516.8 493.91 519.3 490.86 520.94 488.59 522.01 486.53 524.02 482.67 528.09 473.03 530.19 464.9 531.35 456.81 531.38 449.06 530.82 444.42 530.1 440.36 529.15 436.55 528.89 435.49 526.41 433.88 516.69 447.37 519.49 449.19 517.8 451.54 516.89 450.95 505.61 466.62 506.59 467.26 504.92 469.57 504.12 469.04 502.91 470.72 499.06 469.15 495.18 467.56 495.71 466.82 493.65 465.48 491.74 468.13 490.38 467.24 491.23 466.07 490.07 465.32 489.23 466.49 487.31 465.24 488.34 463.8 487.1 462.11 486.5 461.72 486.84 461.25 486.14 460.8 486.58 460.19 484.72 458.99"/>
      <polyline class="cls-4" points="359.81 383.59 406.25 413.79 438.72 368.69 429.53 362.72 432.84 358.13 433.26 358.41 432.99 358.77 441.94 364.59 443.72 362.11 448.55 365.25 442.04 374.29 489.92 405.43 502.8 387.55 508.52 391.43 508.84 390.99 530.23 404.9 526.93 409.49 523.57 407.3 511.37 399.37 511.62 399.04 503.09 393.49 498.82 399.42 499.45 399.83 498.61 401 499.16 401.36 498.18 402.74 500.69 404.37 501.05 403.87 506.23 407.23 506.66 406.63 505.33 405.77 509.89 399.44 525.41 409.53 518.1 419.68 519.15 420.36 516.86 423.54 515.88 422.9 515.16 423.91 513.06 422.55 514.08 421.14 494.33 408.3 482.39 424.87 481.76 424.46 462.55 451.16 467.9 454.63 468.86 453.29 470.57 454.41 471.73 452.8 474.07 453.98 475.34 452.2"/>
      <polygon class="cls-4" points="479.09 445 492.02 453.41 487.19 460.13 483.6 457.8 483.93 457.34 482.68 456.53 482.42 456.89 478.68 454.45 478.92 454.12 478.32 453.72 478.09 454.04 474.34 451.6 479.09 445"/>
      <polyline class="cls-4" points="472 468.42 471.58 469 470.35 470.7 477.21 475.16 476.96 475.49 482.42 479.04 478.19 484.91 476.88 484.06 476.64 484.4 472.57 481.75 472.46 481.89 465.33 477.25 465.5 477.02 463.39 475.65 463.63 475.31 462.51 474.59 467.01 468.33 467.96 468.95 469.44 466.88"/>
      <polyline class="cls-4" points="491.06 484.83 489.12 487.53 489.33 487.66 487.58 490.09 483.46 487.4 485.24 484.93 480.97 482.15 486.01 475.13 486.42 475.4"/>
      <polyline class="cls-4" points="455.09 458.96 459.02 461.52 458.59 462.12 455.21 459.92 449.86 467.36 457.08 472.05 462.42 464.64 461.23 463.87 461.68 463.24 462.61 463.85 464.7 460.95 463.75 460.33 464.12 459.8"/>
      <polyline class="cls-1" points="464.1 449.28 470.16 453.22 479.36 440.45 473.16 436.42"/>
      <polyline class="cls-1" points="474.84 434.27 480.95 438.24 483.55 434.62 485.95 436.19 489.04 431.9 481.95 427.29 480.65 429.1 479.14 428.12"/>
      <polyline class="cls-4" points="365.19 372.65 366 373.18 370.47 366.96 361.5 361.13 356.8 367.2 357.31 367.53 356.35 368.87 358.74 370.42 359.7 369.08 362.8 371.1 361.66 372.67 364.16 374.09 365.19 372.65"/>
      <polyline class="cls-4" points="366.31 387.82 373.89 377.28 383.45 383.5 377.21 392.17 370.25 387.65 368.98 389.42"/>
    </g>
    <path class="cls-5" d="M518.35,500.65c-3.43-2.23-4.31-6.68-1.96-9.94,2.35-3.26,7.03-4.09,10.46-1.86s4.31,6.68,1.96,9.94c-2.35,3.26-7.03,4.09-10.46,1.86Z"/>
    <path class="cls-5" d="M522.6,494.75l4.66,3.03-4.66-3.03Z"/>
    <polyline class="cls-5" points="517.23 495.71 522.27 494.59 521.9 489.21"/>
    <polyline id="emergency_department" data-name="emergency department" class="cls-6" points="536.87 352.03 530.41 347.83 530.94 347.1 472.61 309.17 472.08 309.9 449.03 294.91 417.78 338.31 438.61 351.86 433.35 359.17 442.24 364.95 444.01 362.49 448.8 365.61 442.34 374.58 489.91 405.51 502.68 387.77 508.2 391.36 508.7 391.27"/>
    <polygon id="operations_room" data-name="operations room" class="cls-6" points="400.68 451.2 344.81 414.87 308.36 465.49 314.34 469.38 310.82 474.26 304.77 470.33 252.57 542.85 254.35 544.01 251.02 548.63 249.03 547.34 244.14 554.13 268.63 570.06 276.9 558.58 281.41 561.51 293.39 544.87 292.37 544.21 295.27 540.19 304.04 545.9 309.89 537.76 314.02 540.44 348.97 491.9 364.24 501.83 400.68 451.2"/>
    <polygon class="cls-1" points="366.61 372.35 383.74 383.49 375.89 394.39 406.2 414.1 438.75 368.88 429.51 362.87 437.26 352.11 409.24 333.89 381.68 372.17 371.51 365.56 366.61 372.35"/>
    <polygon id="recovery" class="cls-6" points="363.57 502.47 349.16 493.1 314.3 541.52 310.13 538.81 304.27 546.94 295.39 541.17 293.49 543.8 294.76 544.63 281.6 562.91 276.98 559.91 269.62 570.13 274.26 573.15 274.05 573.44 300.23 590.46 363.57 502.47"/>
    <polygon id="labs" class="cls-6" points="334.55 417.28 324.21 410.55 328.42 404.71 311.51 393.71 271.4 449.42 279.51 454.69 271.89 465.27 263.99 460.13 208.61 537.07 222.51 546.12 256.4 499.04 263.04 503.36 265.31 500.21 271.81 504.44 334.55 417.28"/>
    <polygon class="cls-1" points="334.53 553.29 405.39 454.86 435.72 474.58 422.75 492.59 428.27 496.18 437.53 483.33 450.2 491.57 439.86 505.93 434.77 502.62 377.96 581.53 334.53 553.29"/>
    <polygon class="cls-1" points="271.81 504.44 235.65 554.66 222.51 546.12 256.4 499.04 263.04 503.36 265.31 500.21 271.81 504.44"/>
    <line class="cls-1" x1="274.72" y1="500.39" x2="238.26" y2="551.51"/>
    <text class="cls-13" transform="translate(491.75 437.31) rotate(-.73) scale(1.05 1) skewX(.07)"><tspan x="0" y="0">ADMI</tspan><tspan class="cls-25" x="12.93" y="0">T</tspan><tspan x="15.91" y="0">TING</tspan></text>
    <polygon class="cls-2" points="434.77 502.62 438.69 497.17 431.27 492.34 437.69 483.43 450.2 491.57 439.86 505.93 434.77 502.62"/>
  </g>
  <g id="Icon">
    <text class="cls-7" transform="translate(499.38 631.97) scale(1.05 1)"><tspan class="cls-21" x="0" y="0">L</tspan><tspan x="13.19" y="0">ot A</tspan></text>
    <text class="cls-9" transform="translate(553.19 295.83) rotate(32.28) scale(1.02 1) skewX(-2.63)"><tspan class="cls-23" x="0" y="0">L</tspan><tspan x="13.41" y="0">ot B</tspan></text>
    <text class="cls-8" transform="translate(236.55 211.47) rotate(-1.95) scale(1.05 1) skewX(.2)"><tspan class="cls-22" x="0" y="0">L</tspan><tspan class="cls-17" x="13.19" y="0">ot C</tspan></text>
  </g>
</svg>