<?xml version="1.0" encoding="UTF-8"?>
<svg xmlns="http://www.w3.org/2000/svg" width="906.14" height="729.89" viewBox="0 0 906.14 729.89">
  <defs>
    <style>
      .cls-1, .cls-2, .cls-3, .cls-4 {
        stroke: #231f20;
        stroke-miterlimit: 10;
      }

      .cls-1, .cls-2, .cls-3, .cls-4, .cls-5 {
        stroke-width: 2px;
      }

      .cls-1, .cls-6 {
        fill: #e2ccb0;
      }

      .cls-7 {
        font-size: 30.25px;
      }

      .cls-7, .cls-8, .cls-9 {
        fill: #010101;
      }

      .cls-7, .cls-8, .cls-9, .cls-10, .cls-11, .cls-12, .cls-13 {
        font-family: MyriadPro-Regular, 'Myriad Pro';
      }

      .cls-8 {
        font-size: 29.14px;
      }

      .cls-9 {
        font-size: 29.14px;
      }

      .cls-2, .cls-14, .cls-15 {
        fill: #fff;
      }

      .cls-10 {
        font-size: 5.63px;
      }

      .cls-10, .cls-11, .cls-12, .cls-13 {
        fill: #231f20;
      }

      .cls-11 {
        font-size: 5.83px;
      }

      .cls-12 {
        font-size: 5.83px;
      }

      .cls-14 {
        opacity: .25;
      }

      .cls-13 {
        font-size: 5.71px;
      }

      .cls-3 {
        fill: gray;
      }

      .cls-4, .cls-5 {
        fill: none;
      }

      .cls-5 {
        stroke: #ed2224;
        stroke-linecap: round;
        stroke-linejoin: round;
      }

      .cls-16 {
        letter-spacing: -.08em;
      }

      .cls-17 {
        letter-spacing: -.02em;
      }

      .cls-18 {
        letter-spacing: -.01em;
      }

      .cls-19 {
        letter-spacing: -.01em;
      }

      .cls-20 {
        letter-spacing: -.01em;
      }

      .cls-21 {
        letter-spacing: -.01em;
      }

      .cls-22 {
        letter-spacing: .02em;
      }

      .cls-23 {
        letter-spacing: .04em;
      }

      .cls-24 {
        letter-spacing: 0em;
      }
    </style>
  </defs>
  <g id="streets">
    <path class="cls-4" d="M654.06,543.57l-.29,2.92.29-2.92Z"/>
    <polygon class="cls-3" points="653.2 546.48 656.8 539.07 659.15 534.47 662.1 530.05 671.02 515.89 679.98 501.66 691.81 482.95 699.8 469.43 706.78 459.13 711.08 451.53 716.94 441.41 721.68 435.15 723.01 433.63 723.62 431.18 723.65 429.42 723.68 421.75 723.48 419.98 723.06 417.99 722.62 416.44 721.94 415.07 718.5 411.18 715.73 408.47 712.23 405.42 709.07 403.19 697.41 396.54 695.05 395.8 692.7 395.3 690.25 394.83 688.28 394.77 686.4 394.72 684.63 394.77 682.8 395.06 674.08 396.88 670.93 398.01 667.69 400.27 664.98 402.37 661.16 407.58 656.3 414.46 650.61 424.27 648.4 427.98 647.55 429.79 646.75 430.79 645.93 431 645.04 430.84 643.9 430.58 642.63 430.11 641.42 429.58 640.39 428.87 635.97 426.87 629.91 423.72 624.72 420.8 621.01 418.62 616.83 414.39 615.24 411.97 614.24 410.26 613.8 408.44 613.47 406.29 613.44 404.37 612.59 398.38 612.29 395.67 611.94 393.2 611.44 390.49 610.59 388.52 609.58 386.73 604.72 376.06 602.31 373.72 597.69 369.33 595.56 368.09 593.8 368.09 591.97 368.56 590.65 369.54 589.73 370.61 589.38 371.98 589.38 373.53 590.35 374.77 591.56 376.16 597.74 382.55 599.22 385.65 600.66 389.17 602.04 392.17 602.25 395.14 602.78 399.01 603.4 404 603.9 407.37 604.46 410.57 605.37 413.02 606.9 415.65 607.96 417.99 619.92 428.42 625.87 431.05 630.38 433.94 634.97 436.28 637.77 438.2 639.24 439.1 640.36 440.02 640.74 440.73 640.66 441.54 640.24 442.65 639.68 443.88 633.88 453.74 631.97 456.76 629.97 457.95 628.4 459.26 625.4 460.89 622.66 462.73 618.13 465.91 615.36 468.15 613.88 470.72 613.12 473.22 611.03 481.03 609.17 487.73 608.29 492.7 610.32 489.23 612.97 484.73 616.06 480.4 620.22 475.43 623.13 472.9 626.05 470.85 628.52 469.12 630.68 468.01 632.32 468.49 633.19 469.54 634.09 471.48 634.88 474.09 635.94 476.93 636.3 479.92 636.39 484.18 636.39 488.2 635.94 491.44 634.62 496.96 631.88 503.19 626.84 510.6 618.89 522.4 609.79 534.18 605.64 539.78 602.37 542.46 600.16 544.12 596.89 546.25 585.4 550.82 572.06 557.29 566.76 559.73 562.61 562.97 559.07 566.67 553.77 571.72 545.11 580 540.25 584.1 533.8 588.68 528.15 592.46 523.73 595.31 518.87 597.83 514.54 600.11 510.83 601.85 507.83 603.74 504.38 605.48 501.91 606.9 500.76 607.29 498.99 606.34 497.58 604.61 496.6 602.95 495.72 600.67 494.96 598.54 494.13 594.91 493.78 591.68 493.69 588.76 493.95 585.42 494.91 583.32 496.6 580.95 504.2 573.93 510.39 568.41 514.63 564.86 519.14 562.18 525.14 558.24 529.65 555.48 533.45 553.11 536.37 551.61 540.96 549.32 544.85 547.12 547.68 546.01 550.24 544.51 553.86 541.67 556.51 540.18 557.66 539.55 553.51 532.45 550.5 534.1 546.88 536.23 542.73 538.2 531.06 544.2 524.44 547.83 519.22 550.98 513.66 554.53 507.91 558.55 504.2 561.86 499.34 566.91 494.91 570.85 489.71 575.35 486.53 579.85 484.68 583.24 484.15 586.94 484.06 590.81 484.23 594.28 485.12 597.27 486.27 602.32 487.77 606.74 489.09 609.42 490.07 611.63 489.62 613.6 487.5 614.7 475.93 619.36 458.43 626.69 444.3 632.45 437.41 635.29 430.6 638.84 425.04 641.6 418.41 644.67 414.79 647.28 412.84 649.56 410.37 651.61 408.34 653.66 406.75 653.74 405.24 653.43 402.68 652.09 384.04 638.13 359.92 620.86 348.25 612.97 337.74 606.82 331.91 603.35 325.19 599.96 318.57 597.12 313.18 595.15 303.01 592.7 296.92 591.12 288.52 589.39 276.77 587.18 268.82 585.29 253.8 582.68 244.79 580.16 238.87 577.95 230.65 575.67 225.08 573.69 220.14 571.25 209.53 563.84 205.29 558.79 202.11 555.06 199.81 550.82 195.66 542.07 193.01 533.31 191.86 524.95 192.3 520.22 192.66 516.04 193.54 511.23 196.9 503.98 199.37 498.46 202.64 494.43 206.62 489.39 210.77 484.42 215.36 479.21 236.31 452.95 251.41 432.52 265.55 413.99 281.99 392.46 300.63 368.33 317.15 347.27 327.93 333.63 340.92 316.91 376.44 271.32 433.16 197.11 499.87 113.12 505.18 106.57 506.24 105.23 507.56 104.84 509.33 104.84 510.92 105.47 498.28 98.13 190.09 495.98 184.44 506.03 181.72 518.33 181.72 530.11 184.09 539.78 189.39 551.14 195.22 562.5 208.83 573.82 223.67 583.95 239.22 587.73 259.12 593.16 282.34 597.2 302.48 600.67 315.21 605.4 331.71 613.44 340.2 619.02 352.49 627.47 363.63 635.37 378.47 646.41 394.02 657.45 399.22 661.24 401.61 664.71 397.38 669.75 391.01 680.48 388.72 687.1 385.89 695.31 384.48 699.09 378.83 706.66 391.02 712.18 389.07 709.5 390.84 707.13 394.2 702.09 395.08 697.67 396.14 693.1 398.62 687.73 401.8 682.37 405.86 673.38 409.93 666.76 413.28 662.02 415.23 658.71 420.35 653.82 431.83 648.3 439.26 643.88 454.11 638.05 479.73 627.17 495.81 619.91 502.52 616.28 509.24 612.18 516.84 608.71 524.44 605.24 531.33 601.14 547.59 589.78 553.24 584.58 560.66 577.8 569.15 569.28 573.56 565.84 582.34 562.18 592.64 556.97 602.19 552.56 607.67 549.88 611.15 547.19 617.04 539.78 619.51 536.78 621.45 535.39 684.98 570.46 691.61 574.32 696.56 578.5 696.82 580.87 695.94 583.39 694.08 586.23 692.14 588.92 691.17 591.52 690.55 594.91 690.55 597.35 692.05 600.27 693.64 602.56 696.47 605.63 698.77 607.13 702.03 608.79 704.69 610.05 705.83 610.45 708.31 606.82 705.66 605.24 703.18 603.9 699.83 601.53 698.15 599.48 697 597.35 696.03 594.44 696.29 592.07 697.35 590.1 698.59 588.13 700.8 585.29 701.5 583.32 701.86 580.71 701.5 577.16 698.68 574.32 695.41 571.56 690.46 568.17 685.6 565.26 626.75 530.55 625.69 528.82 626.4 527.24 629.14 524.01 635.06 515.57 638.77 509.5 642.04 503.35 644.34 496.25 645.66 488.91 646.1 481.82 645.84 475.19 644.16 470.77 642.57 467.86 641.6 465.81 641.16 463.28 641.16 460.36 641.95 457.6 652.2 440.41 657.24 431.1 662.63 421.4 666.78 414.78 670.49 410.13 672.97 406.97 677.47 404.76 681.89 403.58 685.34 403.19 690.73 403.74 694.79 404.92 698.32 406.89 701.42 409.1 703.89 411.15 710.69 416.12 713.7 420.22 714.85 426.14 712.64 432.68 708.49 438.6 697.71 455.79 682.68 480.32 662.89 510.6 655.03 524.01 647.61 535.29 644.19 540.6 653.2 546.48"/>
  </g>
  <g id="outline">
    <polygon id="bottom_lot_left_" data-name="bottom lot(left)" class="cls-2" points="436.53 158.94 359.66 261.58 353.88 258.14 346.94 267.44 165.43 159.68 175.56 146.08 159.52 136.56 228.74 43.66 245.3 53.49 257.21 37.5 431.5 140.98 423.45 151.11 436.53 158.94"/>
    <path id="bottom_lot_right_" data-name="bottom lot(right)" class="cls-2" d="M152.57,500.99l1.4.02c1.34-.92,2.48-2.01,3.4-3.24l102.72-138.06-.47-2.67-10.26-6.09-1.42-1.08c-2.19-2.57-1.98-5.45.65-6.43.77-.29,2.26-.26,3.19-.1l2.48,1.04,22.45,13.13,2.68,3.34c.57.77,2.14,3.19,2.28,3.96.47,2.61.68,3.63.73,3.75.06.15-.04,1.76,0,1.91.04.13-.57,1.35-.63,1.45l69.14-91.7-3.8.24-4.45-.65-7.93-2.82-5.77-3.73c-3.38-2.3-5.58-8.29-2.93-10.41l4.05-5.44-28.96-17.19-9.77,13.11-2.25.16-4.58-3.18-1.17-3.06.48-2.58,5.67-7.6-80.54-47.72-5.1,6.84-1.18.33c-2.49.71-5.5.69-8.62-.05l-2.2-.52-8.07-4.39c-3.82-2.26-9.1-1.56-10.25-.4l-1.29.43L13.12,405.13c-.65.87-.74,2.02-.27,3.23,1.07,2.83,2.98,5.66,5.58,8.25.37.37.79.7,1.24,1.01l1.7,1.17,124.72,79.13,3.82,2.27c.84.5,1.8.79,2.68.8ZM228.57,255.4l-7.41-4.4-4.33-2.57-1.62-1.66-1.45-1.89-.83-1.58-.75-2.11-.34-1.68.22-1.28.73-.98.93-1.25,1.28-.72,1.97-.37,2.82.33,34.4,20.42.74,1.14.29.75.66.97.26.79-.8,1.07-1.42.63-1.84.06-2.4-.33-1.97-.34-4.97-.58-3-.37-3.13-.77-3.8-1.29-2.25-.82-1.98-1.18ZM256.31,295.18l2.32-3.11,2.83-3.22,2.74-2.81,3.01-2.59,2.58-2.59,1.42-.6,1.46.21,1.27.75.48.81.04.67-12.01,16.12-6.13-3.64ZM284.12,311.69l20.03-25.78,1.19.05,1.52.33,6.96,4.13.92.96.53,1.47,2.07,7.23,1.52,6.33.91,5.88.3,5.61-.22,1.02-.92,2.33-5.74,7.7-29.06-17.25ZM247.9,313.27l-.7-.94.08-1.13.37-1.8,2.96-5.56,2.63-3.53,1.59-2.13,5.6,3.33-9.15,12.28-.85.41-1.28-.17-1.27-.75ZM280.21,333.87l-3.05-3.37-1.84-2.82-.43-2.15.78-2.5,6.54-8.78,29.06,17.25-3.99,5.36-3.12,2.18-5.3,1.29-4.86.33-4.94-1.2-4.77-2.34-4.09-3.25ZM102.3,431.94l-1.25-.74-1.83-1.09-.82-1.45-.71-1.32-.25-1.37.18-1.24,42.52-57.05,7.12-9.56,4.61-5.47,6.95-8.19,8.54-9.75,7.17-8.06,6.65-7.08,5.98-6.46,1.99-.68,2.22.29,1.82.82,1.54,1.62.5,1.32-.08,1.24-6.26,8.4-38.44,51.59-40.46,54.3-1.25.54-1.28.59-2.16.06-1.59-.43-1.39-.83Z"/>
    <path id="top_parkinglot" data-name="top parkinglot" class="cls-2" d="M697.37,380.2l-3.52-1.29s-.03-.02-.04-.03l-2.44-3.15s-.12-.05-.14,0l-10.36,18.69c-.03.06.05.12.12.1l2.02-.74s.01,0,.02,0l2.81-.41s0,0,0,0l4.13-.27s.02,0,.03,0l4.05.82s0,0,.01,0l4.53,1.45s.01,0,.02,0l3.29,1.87s.01,0,.02.01l3.58,3.25s.02.02.02.03l1.83,4.09s0,0,0,.01l.67,3.43s0,.01,0,.02l-.46,2.26s0,.01,0,.02l-1.14,1.59s-.02.02-.03.02l-3.5,1.04s-.02,0-.04,0l-4.6-.53s-.01,0-.02,0l-11.19-3.41s-.09,0-.1.04l-5.2,21.75-2.3,8.93s0,0,0,0l-3.52,8.68-4.22,11.78-3.23,7.62-3.71,8.76s0,.07.05.09l11.9,4.69s.01,0,.02,0l3.19,1.99s.03.02.04.04l1.34,3.44s0,.02,0,.03l-.62,3.13s0,0,0,.01l-5.48,10.45-10.58,18.41-5.75,9.52-7.44,10.74-8.05,11.27s0,0,0,0l-11.63,13.52-11.62,13.18-7.28,7.42-1.69,1.72s-.03.02-.05.02l-1.73.04s-.01,0-.02,0l-1.94-.33s-.02,0-.03-.01l-1.88-1.07s0,0,0,0l-3.3-2.22-8.24-6.08s-.09-.03-.11,0l-8.17,7.88-6.08,5.91-8.37,7.32s0,0,0,0l-13.25,10.24-15.36,11.57s0,0,0,0l-12.22,7.5-16.39,9.59-19.8,10.62s0,0,0,0l-14.64,6.82-12.11,5.72-13.94,5.99s0,0,0,0l-3.62,1.05s-.06.05-.03.09l2.42,3.54,4.63,6.81.93,1.5s0,.02,0,.03l.07,1.01s0,.01,0,.02l-.22,1s0,.01,0,.02l-.5.69-.54.76-.57.8s-.02.02-.03.02l-.79.29s0,0,0,0l-3.06.85s-.06.05-.03.09l11.98,18.06s.06.05.09.04l1.11-.09s0,0,.01,0l1.15.06s.02,0,.03,0l1.81.66s.02,0,.03.02l1.47,1.14s.02.01.02.02l.79,1.28,5.69,9.72s.08.06.12.04l19.52-8.19,11.24-5,7.86-3.66,11.78-5.75,10.63-5.27,13.51-6.9,10.16-5.61s0,0,0,0l19.6-12.32,14.2-8.86s0,0,0,0l21.98-17.49s0,0,0,0l8.52-7.83,7.16-6.64,8.98-9.32,11.55-11.66,5.64-6.21,5.46-6.09,7.14-8.02,7.13-8.86,5.34-6.91s0-.07-.03-.1l-11.19-6.37s0,0-.01,0l-1.62-1.22s-.02-.02-.02-.03l-.95-1.73s0-.02,0-.02l-.1-1.09s0-.02,0-.03l.66-1.2s0,0,0,0l4.13-6.06s.02-.02.03-.02l1.97-.82s.02,0,.03,0l1.75.03s.03,0,.05.01l2.13,1.21,10.55,6s.09.02.11-.02l14.66-22.64s0,0,0,0l7.69-14.31,6.56-12.3,8.28-17.54s0,0,0,0l5.83-16.65,6.64-20.75,4.75-19.1,1.06-3.57s-.02-.08-.07-.09l-9.75-2.31-3.39-.87s-.03,0-.04-.02l-2.17-1.69s-.02-.02-.03-.03l-.87-1.99s0-.01,0-.02l-.13-2.34-.04-7.01s0,0,0,0l-1.06-6.14s0,0,0-.01l-2.06-5.72s0,0,0-.01l-3.46-5.45s0,0,0-.01l-4.68-5.16s0,0-.01-.01l-6.04-4.8s-.01,0-.02-.01l-4.54-2.35s-.03-.01-.05-.01l-4.14-.04c-.09,0-3.45,0-3.36.02l-3.49-.1h0"/>
    <polygon id="left_parking_lot" data-name="left parking lot" class="cls-2" points="670.87 353.2 579.35 297.3 575.93 289.42 605.79 254.32 700.5 314.54 670.87 353.2"/>
    <polygon id="middle_left_lot" data-name="middle left lot" class="cls-14" points="576.24 367.41 566.47 379.36 543.32 364.27 544.56 362.75 532.28 354.75 532.65 354.3 527.83 351.16 550.06 324 549.42 323.58 549.99 322.88 552.57 322.74 554.8 322.76 555.76 322.88 562.49 314.66 563.92 314.02 565.52 313.62 566.93 313.6 567.92 313.68 568.75 314.22 585.06 324.86 586.03 325.49 586.52 326.25 587.04 327.34 587.43 328.41 587.31 329.59 586.63 330.59 574.51 345.39 573.62 346.82 572.84 348.64 572.88 350.23 572.63 352.07 572.59 353.93 572.59 356.25 572.64 358.42 572.61 360.34 572.7 362.03 572.99 363.66 573.88 365.49 574.76 366.39 575.5 367.12 576.24 367.41"/>
    <polygon id="bottom_lot_left_left_" data-name="bottom lot (left left)" class="cls-2" points="442.05 151.75 443.34 150.06 472.54 111.97 368.63 48.5 342.46 82.64 440.27 142.38 442 144.19 443.02 146.1 443.67 148.33 442.05 151.75"/>
    <polyline class="cls-15" points="214.29 186.53 333.56 248.83 319.57 269.05 204.87 197.42"/>
    <polygon class="cls-15" points="275.97 233.6 277.56 273.3 313.7 267.98 302.98 223.67 275.97 233.6"/>
  </g>
  <g id="berlin">
    <polyline class="cls-1" points="824.84 393.35 814.59 387.09 813.78 388.14 793.44 375.72 794.31 374.59 788.4 370.99 787.64 371.98 778.5 366.39 779.2 365.48 774.55 362.64 771.02 367.25 771.73 367.69 766.11 375.02 752.87 366.94 739.26 384.7 750.96 391.84 750.43 392.52 757.4 396.77 758.26 395.65 769.78 402.68 768.91 403.81 776.06 408.18 776.53 407.57 794.29 418.42 793.82 419.02 801.23 423.54 803.83 420.16 802.69 419.46 814.77 403.7 815.08 403.29 814.26 402.79 814.73 402.71 816.73 403.93 824.84 393.35 816.73 403.93 824.84 393.35"/>
    <polyline class="cls-1" points="752.87 366.94 748.7 364.39 760.37 349.18 757.46 347.4 763.19 339.93 760.04 338.01 759.11 339.23 741.88 328.7 761.22 303.47 769.95 308.8 768.32 310.92 771.07 312.6 774.23 308.48 781.26 312.78 778.13 316.86 781.89 319.16 783.47 317.11 792.02 322.33 790.56 326.42 759.75 366.62 756.17 369.1"/>
    <polyline class="cls-1" points="717.68 361.79 724.43 365.91 724.11 366.32 726.47 367.76 735.24 356.32 747.73 363.95 748.63 364.49 760.37 349.18 757.46 347.4 763.19 339.93 760.04 338.01 759.15 339.18 741.92 328.65 716.88 361.31"/>
    <g id="LWPOLYLINE">
      <polygon class="cls-4" points="722.1 373.15 725.84 368.27 716.06 362.3 712.32 367.18 722.1 373.15"/>
    </g>
    <g id="POLYLINE">
      <polyline class="cls-4" points="727.02 374.41 724.98 373.17 732.92 362.81 740.11 367.21 743.89 362.27 748.63 365.17 758.6 352.16 757.64 351.58 759.77 348.81 760.68 349.37 763.83 351.29 745.27 375.49 745.27 375.49 745.27 375.49 745.27 375.49 743.39 377.95 743.39 377.95 739.68 375.68 739.22 376.27 741.31 377.55 738.47 381.26 736.06 379.79 735.04 381.11 731.25 378.8 731.1 378.71 732.96 376.29 732.3 375.89 731.39 377.08 729.49 375.92"/>
    </g>
    <g id="LWPOLYLINE-2" data-name="LWPOLYLINE">
      <polygon class="cls-4" points="743.39 361.97 739.96 366.44 731.86 361.5 735.29 357.02 743.39 361.97"/>
    </g>
    <g id="LWPOLYLINE-3" data-name="LWPOLYLINE">
      <polygon class="cls-4" points="762.86 345.21 760.19 348.69 757.94 347.32 760.61 343.84 762.86 345.21"/>
    </g>
    <g id="LWPOLYLINE-4" data-name="LWPOLYLINE">
      <polygon class="cls-4" points="759.58 362.3 759.12 362.9 756.16 361.09 756.62 360.49 759.58 362.3"/>
    </g>
    <path class="cls-4" d="M775.93,311.26l.06.03.91-1.19-.06-.03-.71,1.29c.66.28,1.4.16,1.9-.32l.14-.16-2.24.37Z"/>
    <text class="cls-12" transform="translate(770.46 390.92) rotate(.07) scale(1.12 1) skewX(-.02)"><tspan x="0" y="0">DIA</tspan><tspan class="cls-16" x="8.84" y="0">L</tspan><tspan class="cls-18" x="11.1" y="0">Y</tspan><tspan x="14.18" y="0">SIS</tspan></text>
    <text class="cls-11" transform="translate(734.93 345.34) rotate(1.53) scale(1.12 1) skewX(-.35)"><tspan class="cls-24" x="0" y="0">R</tspan><tspan x="3.16" y="0">AD</tspan><tspan x="0" y="6.99">ADMIN</tspan></text>
    <text class="cls-13" transform="translate(755.59 319.48) rotate(-.17) scale(1.12 1) skewX(.04)"><tspan class="cls-17" x="0" y="0">C</tspan><tspan x="3.19" y="0">OMM</tspan><tspan x="0" y="6.85">MR</tspan><tspan class="cls-22" x="7.67" y="6.85">K</tspan><tspan x="10.88" y="6.85">TING</tspan><tspan x="0" y="13.71">PH LANTH</tspan></text>
  </g>
  <g id="faulknerfloor1">
    <g>
      <polygon class="cls-2" points="333.12 595.31 353.18 568.93 359.73 572.93 371.1 558.09 416.72 585.95 478.34 505.58 510.29 525.09 511.88 524.03 523.03 530.83 528.85 530.01 538.14 526.83 545.35 523.78 557.72 517.01 563.29 513.06 571.18 505.94 577.54 498.79 583.02 490.49 587.43 480.56 590.64 469.88 592.42 460.63 592.64 451.12 591.55 441.3 578.9 433.58 582.48 428.9 569.99 421.27 581.1 406.77 558.06 392.7 588.65 352.81 581.65 348.53 582.22 347.78 497.27 300.98 550.59 231.68 526.22 216.02 531.59 209.01 501.33 190.53 475 224.87 463.82 218.04 439.52 249.75 451.26 256.92 429.3 285.57 417.55 278.4 289.66 445.25 301.06 452.21 279.02 480.97 267.61 474 243.16 505.91 254.45 512.73 227.88 547.3 257.98 565.47 266.38 554.95 333.12 595.31"/>
      <polyline class="cls-4" points="447.47 415.57 397.63 385.13 404.07 376.73 392.33 369.56 375.53 391.47 393.15 402.23 399.79 393.56 444.06 420.6 429.96 438.99 367.93 401.1 359.24 412.44 370.38 419.24 266.57 554.67 272.52 558.3 278.25 550.81 280.4 552.13 283.98 547.45 282.06 546.28 338.3 472.92 344.81 476.89 348.6 471.95 342.17 468.02 381.5 416.7 441.69 453.46 353.18 568.93 358.37 572.1 446.78 456.77 480.17 477.16 465.92 495.75 471.34 499.06 503.63 456.93 510.79 461.3 509.98 462.35 511.68 463.38 510.4 465.04 512.51 466.33 511.73 467.35 515.46 469.62"/>
      <polygon class="cls-4" points="511.88 524.03 523.03 530.83 528.85 530.01 538.14 526.83 545.35 523.78 557.72 517.01 563.29 513.06 571.18 505.94 577.54 498.79 583.02 490.49 587.43 480.56 590.64 469.88 592.42 460.63 592.64 451.12 591.55 441.3 578.9 433.58 582.48 428.9 569.99 421.27 581.1 406.77 558.06 392.7 588.65 352.81 581.65 348.53 582.22 347.78 518.98 309.16 518.71 310.09 500.11 298.74 551.63 231.54 526.22 216.02 531.59 209.01 501.33 190.53 475 224.87 463.82 218.04 439.52 249.75 451.26 256.92 429.3 285.57 417.55 278.4 289.66 445.25 301.06 452.21 279.02 480.97 267.61 474 243.16 505.91 254.11 512.6 227.63 547.15 258.23 565.84 266.72 554.76 333.12 595.31 353.29 568.99 359.73 572.93 371.1 558.09 416.72 585.95 478.34 505.58 510.29 525.09 511.88 524.03"/>
      <polyline class="cls-4" points="500.11 298.74 493.41 294.64 459.51 338.88 482.09 352.67 476.38 360.12 486.01 366.01 487.94 363.5 493.13 366.67 486.12 375.82 537.69 407.31 551.55 389.23 557.8 393.04"/>
      <polygon class="cls-1" points="577.08 435.95 561.61 456.13 548.43 448.09 545.89 451.41 528.88 441.02 531.63 437.43 534.04 438.9 537.57 434.29 528.31 428.64 542.43 410.21 563.13 422.85 560.95 425.7 577.08 435.95"/>
      <polygon class="cls-1" points="527.44 495.47 506.5 522.78 483.82 508.93 494.96 494.4 481.86 486.4 494.49 469.91 514.97 482.42 512.17 486.08 527.44 495.47"/>
      <text/>
      <polygon class="cls-1" points="385.75 411.59 395.69 417.66 400 412.04 407.6 416.68 412.69 410.04 405.54 405.67 409.9 399.98 400.64 394.33 397.16 398.87 401.45 401.49 397.09 407.18 391.67 403.87 385.75 411.59"/>
      <polygon class="cls-1" points="403.97 422.72 420.53 432.83 425.88 425.85 421.29 423.05 422.43 421.56 415.2 417.15 422.47 407.66 417.73 404.77 403.97 422.72"/>
      <polygon class="cls-1" points="427.26 425.5 436.14 430.93 443.93 420.77 437.46 416.81 436.11 418.57 433.7 417.1 427.26 425.5"/>
      <polygon class="cls-1" points="433.68 415.1 426.2 424.86 421.91 422.24 422.43 421.56 423.11 420.68 416.71 416.77 423.3 408.17 431.06 412.9 430.74 413.31 433.68 415.1"/>
      <polygon class="cls-1" points="435.12 442.64 483.3 472.06 497.27 453.84 449.09 424.41 435.12 442.64"/>
      <polygon class="cls-1" points="453.04 419.27 468.39 428.65 480.96 412.25 489.69 417.59 496.65 408.51 488.37 403.45 501.51 386.31 485.7 376.66 453.04 419.27"/>
      <polygon class="cls-1" points="503.25 449.93 469.15 429.11 481.19 413.39 489.17 418.26 486.63 421.58 496.19 427.42 497.85 425.25 514.42 435.37 503.25 449.93"/>
      <polygon class="cls-1" points="521.06 426.7 512.56 421.5 515.83 417.23 512.82 415.4 509.08 420.27 499.89 414.66 511.52 399.49 527.41 409.19 529.73 415.38 521.06 426.7"/>
      <polygon class="cls-1" points="509.79 391.37 503.71 399.3 496.19 394.7 489.59 403.3 497.12 407.9 502.57 400.79 507.16 403.59 514.38 394.17 509.79 391.37"/>
      <polygon class="cls-4" points="370.24 419.42 302.79 507.42 295.79 503.14 293.35 506.33 286.19 501.96 249.69 549.58 234.71 540.43 294.37 462.6 302.88 467.79 311.08 457.09 302.35 451.76 345.56 395.4 363.4 406.29 358.62 412.52 370.24 419.42"/>
      <polygon class="cls-4" points="441.61 453.56 402.36 504.77 385.91 494.73 348.26 543.84 343.82 541.13 337.51 549.36 328.06 543.59 324.94 547.65 326.04 548.32 313.13 565.15 308.28 562.19 299.37 573.81 273.21 557.83 278.48 550.95 280.4 552.13 283.98 547.45 282.06 546.28 338.3 472.92 344.81 476.89 348.6 471.95 342.17 468.02 381.5 416.7 441.61 453.56"/>
      <line class="cls-4" x1="425.19" y1="485.3" x2="446.68" y2="457.26"/>
      <polygon class="cls-4" points="401.63 505.43 333.4 594.44 305.21 577.22 305.43 576.93 300.43 573.88 308.36 563.53 313.34 566.57 327.52 548.08 326.14 547.24 328.19 544.57 337.76 550.42 344.07 542.19 348.57 544.94 386.24 495.79 401.76 505.27 401.63 505.43"/>
      <polyline class="cls-4" points="227.63 547.15 258.23 565.84 266.57 554.67 370.38 419.24 359.24 412.44 367.93 401.1 429.96 438.99 443.93 420.77"/>
      <polyline class="cls-4" points="471.34 499.06 481.31 486.06 494.96 494.4 483.82 508.93 478.34 505.58 417.24 585.47 370.35 556.84 425.19 485.3"/>
      <polygon class="cls-4" points="465.39 495.43 479.36 477.21 446.68 457.26 479.36 477.21 465.39 495.43"/>
      <polyline class="cls-4" points="486.12 375.82 453.04 419.27 503.35 449.99 518.12 430.73 517.36 430.27 514.52 433.98 499.02 424.51 503.48 418.68 507.2 420.95 507.88 420.97 508.41 420.66 508.7 420.38 509.08 420.27 512.82 415.4 515.83 417.23 512.56 421.5 521.06 426.7 529.73 415.38 527.41 409.19 525.23 407.86 529.48 402.3"/>
      <polyline class="cls-4" points="518.35 471.19 525.61 475.62 526.08 475.01 528.26 476.35 529.64 474.55 531.79 475.86 531.06 476.81 532.34 477.59 533.35 476.27 534.82 477.17 534.14 478.05 537.19 479.91 535.25 482.45 537.54 483.85 538.4 482.74 541.15 484.41 538.91 487.33 540.91 488.54 539.14 490.85 538.54 490.48 526.31 506.43 527.14 506.94 525.22 509.45 522.21 507.61 512.42 520.38 515.4 522.4 519.45 522.09 526.3 520.8 533.48 518.57 540.09 516.14 545.04 513.79 550.11 511.07 555.17 507.5 558.45 504.73 562.02 501.59 563.82 499.9 566.63 496.8 569.33 493.72 571.09 491.41 572.25 489.33 574.41 485.43 578.79 475.68 581.05 467.46 582.3 459.27 582.34 451.44 581.74 446.75 580.96 442.64 579.94 438.78 579.65 437.71 576.98 436.08 566.52 449.73 569.53 451.57 567.71 453.94 566.73 453.34 554.58 469.2 555.63 469.84 553.84 472.18 552.98 471.65 551.68 473.34 547.53 471.76 543.35 470.15 543.92 469.4 541.7 468.04 539.65 470.72 538.18 469.82 539.09 468.64 537.85 467.88 536.94 469.07 534.87 467.8 535.99 466.34 534.65 464.63 534.01 464.24 534.37 463.77 533.62 463.31 534.09 462.7 532.09 461.48"/>
      <polyline class="cls-4" points="397.56 385.22 447.58 415.77 482.54 370.15 472.66 364.12 476.21 359.48 476.66 359.75 476.38 360.12 486.01 366.01 487.94 363.5 493.13 366.67 486.12 375.82 537.69 407.31 551.55 389.23 557.72 393.16 558.06 392.7 581.1 406.77 577.54 411.41 573.93 409.21 560.79 401.18 561.05 400.85 551.87 395.24 547.27 401.23 547.95 401.64 547.04 402.83 547.64 403.2 546.58 404.59 549.29 406.24 549.68 405.73 555.25 409.14 555.71 408.53 554.28 407.65 559.19 401.25 575.9 411.46 568.04 421.72 569.17 422.41 566.7 425.63 565.65 424.98 564.87 426 562.61 424.62 563.7 423.2 542.43 410.21 529.58 426.98 528.9 426.56 508.21 453.56 513.97 457.07 515.01 455.72 516.85 456.85 518.1 455.22 520.61 456.41 521.99 454.61"/>
      <polygon class="cls-4" points="526.02 447.33 539.95 455.84 534.74 462.63 530.88 460.27 531.23 459.81 529.89 458.99 529.61 459.35 525.58 456.89 525.84 456.55 525.19 456.16 524.95 456.47 520.91 454 526.02 447.33"/>
      <polyline class="cls-4" points="518.39 471.01 517.94 471.6 516.62 473.33 523.99 477.83 523.73 478.17 529.61 481.76 525.05 487.7 523.65 486.84 523.39 487.18 519 484.5 518.88 484.64 511.21 479.95 511.39 479.72 509.12 478.33 509.38 477.99 508.17 477.25 513.02 470.93 514.03 471.55 515.63 469.46"/>
      <polyline class="cls-4" points="538.92 487.61 536.82 490.34 537.05 490.48 535.17 492.93 530.73 490.22 532.65 487.71 528.04 484.9 533.48 477.81 533.92 478.08"/>
      <polyline class="cls-4" points="500.17 461.45 504.41 464.04 503.95 464.65 500.31 462.42 494.54 469.94 502.32 474.69 508.07 467.2 506.79 466.42 507.27 465.78 508.28 466.4 510.53 463.46 509.5 462.83 509.91 462.3"/>
      <polyline class="cls-1" points="509.88 451.66 516.41 455.65 526.31 442.73 519.63 438.65"/>
      <polyline class="cls-1" points="521.45 436.48 528.02 440.5 530.83 436.84 533.41 438.42 536.73 434.08 529.11 429.42 527.7 431.25 526.07 430.25"/>
      <polyline class="cls-4" points="403.36 374.16 404.23 374.69 409.05 368.41 399.39 362.51 394.33 368.64 394.88 368.98 393.84 370.33 396.42 371.91 397.45 370.55 400.79 372.59 399.56 374.18 402.25 375.62 403.36 374.16"/>
      <polyline class="cls-4" points="404.57 389.5 412.74 378.84 423.03 385.13 416.31 393.9 408.82 389.33 407.44 391.12"/>
    </g>
    <path class="cls-5" d="M568.3,503.61c-3.69-2.25-4.64-6.75-2.11-10.05s7.57-4.14,11.26-1.88,4.64,6.75,2.11,10.05c-2.53,3.3-7.57,4.14-11.26,1.88Z"/>
    <path class="cls-5" d="M572.88,497.64l5.02,3.07-5.02-3.07Z"/>
    <polyline class="cls-5" points="567.09 498.62 572.52 497.48 572.13 492.05"/>
    <polyline id="emergency_department" data-name="emergency department" class="cls-6" points="588.25 353.3 581.29 349.06 581.86 348.32 519.04 309.96 518.48 310.69 493.65 295.53 460 339.43 482.43 353.13 476.77 360.53 486.34 366.37 488.24 363.88 493.4 367.04 486.45 376.11 537.67 407.4 551.43 389.45 557.37 393.08 557.91 392.99"/>
    <polygon id="operations_room" data-name="operations room" class="cls-6" points="441.58 453.61 381.41 416.86 342.16 468.06 348.6 471.99 344.81 476.93 338.3 472.95 282.08 546.3 284 547.47 280.41 552.14 278.27 550.83 273 557.7 299.38 573.82 308.28 562.2 313.14 565.17 326.04 548.34 324.95 547.67 328.06 543.61 337.51 549.38 343.81 541.15 348.25 543.86 385.89 494.76 402.33 504.8 441.58 453.61"/>
    <polygon class="cls-1" points="404.9 373.86 423.34 385.12 414.89 396.15 447.53 416.08 482.58 370.35 472.63 364.27 480.98 353.38 450.8 334.96 421.12 373.68 410.16 366.99 404.9 373.86"/>
    <polygon id="recovery" class="cls-6" points="401.61 505.46 386.1 495.98 348.56 544.95 344.06 542.21 337.76 550.44 328.19 544.59 326.14 547.26 327.52 548.1 313.35 566.59 308.37 563.54 300.44 573.89 305.43 576.94 305.21 577.23 333.4 594.44 401.61 505.46"/>
    <polygon id="labs" class="cls-6" points="370.37 419.3 359.23 412.49 363.76 406.58 345.55 395.46 302.36 451.8 311.09 457.13 302.89 467.83 294.38 462.64 234.73 540.45 249.71 549.6 286.21 501.99 293.36 506.36 295.8 503.17 302.8 507.45 370.37 419.3"/>
    <polygon class="cls-1" points="370.34 556.85 446.65 457.3 479.31 477.25 465.35 495.46 471.3 499.1 481.26 486.09 494.91 494.43 483.78 508.95 478.29 505.61 417.11 585.42 370.34 556.85"/>
    <polygon class="cls-1" points="302.8 507.45 263.86 558.24 249.71 549.6 286.21 501.99 293.36 506.36 295.8 503.17 302.8 507.45"/>
    <line class="cls-1" x1="305.93" y1="503.36" x2="266.66" y2="555.06"/>
    <text class="cls-10" transform="translate(539.65 439.58) rotate(-.68) scale(1.12 1) skewX(.16)"><tspan x="0" y="0">ADMI</tspan><tspan class="cls-23" x="13.07" y="0">T</tspan><tspan x="16.09" y="0">TING</tspan></text>
    <polygon class="cls-2" points="478.29 505.61 482.52 500.1 474.52 495.21 481.43 486.2 494.91 494.43 483.78 508.95 478.29 505.61"/>
  </g>
  <g id="Icon">
    <text class="cls-8" transform="translate(547.87 636.43) scale(1.12 1)"><tspan class="cls-19" x="0" y="0">L</tspan><tspan x="13.34" y="0">ot A</tspan></text>
    <text class="cls-7" transform="translate(605.87 296.51) rotate(30.68) scale(1.04 .99) skewX(-5.71)"><tspan class="cls-20" x="0" y="0">L</tspan><tspan x="13.86" y="0">ot B</tspan></text>
    <text class="cls-9" transform="translate(264.83 211.14) rotate(-1.83) scale(1.12 1) skewX(.42)"><tspan class="cls-21" x="0" y="0">L</tspan><tspan x="13.35" y="0">ot C</tspan></text>
  </g>
</svg>