<?xml version="1.0" encoding="UTF-8"?>
<svg xmlns="http://www.w3.org/2000/svg" viewBox="0 0 1140 1033">
  <defs>
    <style>
      .cls-1 {
        font-size: 4.28px;
      }

      .cls-1, .cls-2, .cls-3, .cls-4, .cls-5, .cls-6 {
        font-family: AcuminConcept-Bold, 'Acumin Variable Concept';
        font-variation-settings: 'wght' 700, 'wdth' 100, 'slnt' 0;
        font-weight: 700;
      }

      .cls-1, .cls-7, .cls-8 {
        fill: #fff;
      }

      .cls-9 {
        fill: #d7ffd6;
      }

      .cls-10 {
        fill: #93278f;
        stroke: #42210b;
      }

      .cls-10, .cls-11, .cls-12, .cls-13, .cls-14, .cls-15, .cls-16, .cls-17, .cls-18, .cls-19, .cls-20, .cls-21, .cls-7, .cls-22, .cls-23, .cls-24, .cls-25, .cls-8, .cls-26, .cls-27, .cls-28, .cls-29 {
        stroke-miterlimit: 10;
      }

      .cls-30 {
        fill: #a67c52;
      }

      .cls-11, .cls-12, .cls-13, .cls-14, .cls-15, .cls-16, .cls-17, .cls-18, .cls-19, .cls-20, .cls-21, .cls-22, .cls-23, .cls-26, .cls-27, .cls-28, .cls-29 {
        fill: none;
      }

      .cls-11, .cls-7, .cls-24 {
        stroke: #231f20;
      }

      .cls-12 {
        stroke: #fbb03b;
      }

      .cls-13 {
        opacity: .98;
      }

      .cls-13, .cls-22 {
        stroke: #00acda;
      }

      .cls-14 {
        stroke: #00b4ee;
      }

      .cls-31 {
        fill: #eafcff;
      }

      .cls-32 {
        fill: #2fb56c;
      }

      .cls-33 {
        letter-spacing: 0em;
      }

      .cls-15 {
        stroke: red;
      }

      .cls-34 {
        opacity: .31;
      }

      .cls-34, .cls-35 {
        fill: #231f20;
      }

      .cls-34, .cls-35, .cls-36 {
        font-family: SourceSansPro-Regular, 'SourceSansPro Regular';
        font-size: 50.31px;
      }

      .cls-35 {
        opacity: .3;
      }

      .cls-16 {
        stroke: #3fa9f5;
      }

      .cls-37 {
        fill: #e56c3c;
      }

      .cls-37, .cls-38, .cls-39, .cls-40, .cls-36 {
        opacity: .3;
      }

      .cls-41 {
        letter-spacing: 0em;
      }

      .cls-42 {
        letter-spacing: 0em;
      }

      .cls-43 {
        letter-spacing: 0em;
      }

      .cls-44 {
        letter-spacing: 0em;
      }

      .cls-45 {
        letter-spacing: 0em;
      }

      .cls-46 {
        letter-spacing: 0em;
      }

      .cls-47 {
        letter-spacing: 0em;
      }

      .cls-48 {
        letter-spacing: 0em;
      }

      .cls-49 {
        letter-spacing: 0em;
      }

      .cls-2 {
        font-size: 6.6px;
      }

      .cls-3 {
        font-size: 6.6px;
      }

      .cls-38 {
        fill: #2fb46c;
      }

      .cls-50, .cls-24, .cls-25 {
        fill: #ffe4ee;
      }

      .cls-51 {
        letter-spacing: 0em;
      }

      .cls-52 {
        letter-spacing: 0em;
      }

      .cls-53 {
        letter-spacing: 0em;
      }

      .cls-17 {
        stroke: #666;
      }

      .cls-18 {
        stroke: #8cc63f;
      }

      .cls-54 {
        letter-spacing: 0em;
      }

      .cls-19 {
        stroke: #00acda;
      }

      .cls-20 {
        stroke: #000;
      }

      .cls-21 {
        stroke: #c7b299;
      }

      .cls-4 {
        font-size: 3.4px;
      }

      .cls-5 {
        font-size: 5.18px;
      }

      .cls-55 {
        fill: #e4fdff;
      }

      .cls-56 {
        fill: #f2f2f2;
      }

      .cls-57 {
        fill: #fff5e4;
      }

      .cls-23, .cls-25 {
        stroke: #c1272d;
      }

      .cls-40 {
        fill: #ffd01d;
      }

      .cls-24 {
        stroke-linecap: round;
      }

      .cls-58 {
        letter-spacing: -.07em;
      }

      .cls-59 {
        letter-spacing: -.02em;
      }

      .cls-60 {
        letter-spacing: -.02em;
      }

      .cls-61 {
        letter-spacing: -.02em;
      }

      .cls-62 {
        letter-spacing: -.02em;
      }

      .cls-63 {
        letter-spacing: -.02em;
      }

      .cls-64 {
        letter-spacing: -.01em;
      }

      .cls-65 {
        letter-spacing: -.01em;
      }

      .cls-66 {
        letter-spacing: -.02em;
      }

      .cls-67 {
        letter-spacing: 0em;
      }

      .cls-68 {
        letter-spacing: 0em;
      }

      .cls-69 {
        letter-spacing: 0em;
      }

      .cls-70 {
        letter-spacing: 0em;
      }

      .cls-71 {
        letter-spacing: 0em;
      }

      .cls-72 {
        letter-spacing: 0em;
      }

      .cls-73 {
        letter-spacing: 0em;
      }

      .cls-74 {
        letter-spacing: 0em;
      }

      .cls-75 {
        letter-spacing: 0em;
      }

      .cls-76 {
        fill: #fdffea;
      }

      .cls-77 {
        letter-spacing: 0em;
      }

      .cls-6 {
        font-size: 4.4px;
      }

      .cls-78 {
        letter-spacing: 0em;
      }

      .cls-79 {
        letter-spacing: -.01em;
      }

      .cls-80 {
        letter-spacing: -.01em;
      }

      .cls-81 {
        letter-spacing: -.01em;
      }

      .cls-82 {
        letter-spacing: -.01em;
      }

      .cls-83 {
        letter-spacing: -.01em;
      }

      .cls-84 {
        letter-spacing: -.01em;
      }

      .cls-85 {
        letter-spacing: -.01em;
      }

      .cls-86 {
        letter-spacing: 0em;
      }

      .cls-87 {
        letter-spacing: 0em;
      }

      .cls-88 {
        letter-spacing: 0em;
      }

      .cls-89 {
        letter-spacing: 0em;
      }

      .cls-90 {
        letter-spacing: 0em;
      }

      .cls-91 {
        letter-spacing: 0em;
      }

      .cls-92 {
        letter-spacing: 0em;
      }

      .cls-93 {
        letter-spacing: 0em;
      }

      .cls-94 {
        letter-spacing: 0em;
      }

      .cls-95 {
        letter-spacing: 0em;
      }

      .cls-96 {
        letter-spacing: 0em;
      }

      .cls-97 {
        letter-spacing: 0em;
      }

      .cls-98 {
        letter-spacing: 0em;
      }

      .cls-8, .cls-29 {
        stroke: #00aee0;
      }

      .cls-26 {
        stroke: aqua;
      }

      .cls-99 {
        fill: #ffd29a;
      }

      .cls-100 {
        letter-spacing: .01em;
      }

      .cls-101 {
        letter-spacing: .02em;
      }

      .cls-102 {
        letter-spacing: .02em;
      }

      .cls-27 {
        stroke: #fcee21;
      }

      .cls-28 {
        stroke: #f7931e;
      }

      .cls-103 {
        letter-spacing: .03em;
      }

      .cls-104 {
        letter-spacing: 0em;
      }

      .cls-105 {
        letter-spacing: 0em;
      }

      .cls-106 {
        letter-spacing: 0em;
      }

      .cls-107 {
        letter-spacing: 0em;
      }

      .cls-108 {
        letter-spacing: 0em;
      }

      .cls-109 {
        letter-spacing: 0em;
      }

      .cls-110 {
        letter-spacing: 0em;
      }

      .cls-111 {
        letter-spacing: 0em;
      }

      .cls-112 {
        letter-spacing: 0em;
      }

      .cls-113 {
        letter-spacing: 0em;
      }

      .cls-114 {
        letter-spacing: 0em;
      }

      .cls-115 {
        letter-spacing: 0em;
      }

      .cls-116 {
        letter-spacing: .01em;
      }

      .cls-117 {
        letter-spacing: 0em;
      }

      .cls-118 {
        letter-spacing: 0em;
      }
    </style>
  </defs>
  <g id="parking_lot" data-name="parking lot">
    <polyline class="cls-37" points="610.86 974.81 612.98 873.25 244.65 869.76 203.23 868.71 202.46 970.5"/>
    <g class="cls-39">
      <path class="cls-32" d="M741.26,513.47l3.82-47.14-2.99.21-2.5-1.43s1.28-21.55.21-22.79-83.76,3.84-112.1,4.8c-10.65.36-41.7,3-42.37,3.36-.7.38.92,24.97.92,24.97,0,0-11.73,39.63-11.71,40.55.02.83-2.93,25.25-1.63,25.69,1.37.46,156.38,1.42,156.38,1.42l.95-4.82.9-7.32.24-5.63.5-5.77.97-3.32,1.91-2.78s6.34,1.34,5.63,1.1.87-1.11.87-1.11Z"/>
      <polyline class="cls-32" points="572.49 531.96 586.86 475.87 585.55 463.71 584.14 475.14 580.83 477.72 576.43 477.79 574.21 477.01 572.37 474.72 571.74 472.95 529.27 473.39 518.23 473.13 520.15 356.78 230.61 357.15 229.9 392.97 227.59 393.13 209.49 392.98 206.93 520.55 230.6 521.63 230.14 537.56 245.71 537.42 275.13 537.64 307.24 538.16 337.38 538.52 356.13 538.7 385 539.24 412.18 539.72 442.84 540.39 480.36 540.73 522.1 541.72 523.03 539.33 522.78 537.15 522.94 535.2 522.83 532.72 522.93 531.13 522.9 529.29 522.97 527.69 522.99 526.41 523.05 525.28 523.1 524.15 523.01 522.6 523.19 520.82 523.23 518.86 523.37 517.29 523.39 516.19 523.65 515.34 523.83 515.05 525.95 515.03 528.91 515.02 532.01 515.38 534.72 515.29 536.95 515.35 539.53 515.49 541.89 515.51 544.74 515.83 546.94 515.62 552.82 515.9 557.38 515.83 560.98 515.81 564.62 515.97 567.99 516.26 568.58 515.96 570.78 516.19 572.26 516.12 573.34 516.29 573.04 516.32"/>
      <path class="cls-40" d="M668.84,873.12l112.92.03,12.63-115.14,6.93-64.31,8.61-77.25,9.82-88.85,6.02-55.85,4.53-42.39-26.24-4.33-3.22-2.51-40.29-6.15-13.24,1.05-1.1,17.16,2.16,2.24,1.04,5.7-1.01,16.2-.69,5.11-1.47,1.72-.99.67-3.82,47.25.28.8.79,2.99v3.79s-3.63,34.85-3.63,34.85l-1,2.09-1.72,1.61-2.98-.25-9.27-.19-14.19-.26-12.03-.43-.51,15.13-.99,25.28-.79,21.65-1.04,21-.3,3.65-2.34.56-4.45,1.26-9.13.22h-4.37s-.36,10.07-.36,10.07l-.24,10.03.22,4.19-.16,4.12,12.22-.04,13.66.25.22,5.53-.05,6.16-.06,13.34-.06,6.64.06,6.6v7.97s-.5.59-.5.59l-26.14-.54-.26,7.48-.37,21.53-.49,17.36-.3,17.15-.15,18.4-.46,25.8-.17.42c.17.19.27.43.27.67v.44c-.01.14-.02.28-.04.42v.65s-.01,0-.01,0c0,.07.02.1.02.16,0,.28-.14.53-.34.73-.17.16-.4.23-.63.26,0,.02,0,.04-.01.06-.02.08-.04.17-.07.24,0,.03-.02.05-.02.08.01-.15,0-.14-.02.02-.03.18-.1.32-.16.49-.02.06-.03.11-.05.17-.02.06-.05.11-.08.16,0,0,0,0,0,.01,0,0,0,.02-.01.02,0,.03,0,.04-.01.07-.03.07-.07.14-.1.21-.06.2-.14.4-.21.56-.06.13-.15.25-.22.38-.06.2-.16.38-.33.54.3-.28-.07.1-.15.18-.05.06-.11.11-.17.16-.12.11-.27.17-.43.21l-.44,1.09,1.69,34.82Z"/>
      <path class="cls-38" d="M586.82,377.27l-1.6,73.39,41.4-4.19s-1.28-4.75-1.07-4.55,1.74-6.25,1.74-6.25l1.84-7.81,2.73-5.1,4.06-5.08,3.2-3.89,1.12-.86,5.9,1.36,28.67,5.51,34.46,7.2,36.91,8.15,1.28-17.22-13.04-3.69-2.69-5.9-10.59-3.68-10.3-2.62-18.79-3.22-20.15-3.54-10.91-2.41-22.47-5.13-22.89-4.69-10.01-1.81-10.86-2.25s-8.18-.79-7.92-1.71Z"/>
    </g>
    <line class="cls-7" x1="230.17" y1="387.45" x2="230.8" y2="356.77"/>
    <line class="cls-7" x1="230.61" y1="521.31" x2="207" y2="520.92"/>
    <line class="cls-7" x1="460.43" y1="381.37" x2="460.42" y2="381.37"/>
    <line class="cls-7" x1="349.64" y1="509.73" x2="349.63" y2="509.73"/>
    <line class="cls-7" x1="573.07" y1="521.78" x2="573.19" y2="515.97"/>
    <line class="cls-14" x1="507.13" y1="541.14" x2="507.67" y2="514.9"/>
    <line class="cls-14" x1="492.12" y1="540.9" x2="492.65" y2="514.65"/>
    <line class="cls-14" x1="477.49" y1="540.66" x2="478.02" y2="514.41"/>
    <line class="cls-14" x1="462.05" y1="540.4" x2="462.58" y2="514.16"/>
    <line class="cls-14" x1="446.72" y1="540.15" x2="447.26" y2="513.91"/>
    <line class="cls-14" x1="431.4" y1="539.9" x2="432.17" y2="513.66"/>
    <line class="cls-14" x1="416.08" y1="539.65" x2="416.61" y2="513.41"/>
    <line class="cls-14" x1="402.11" y1="539.52" x2="402.65" y2="513.18"/>
    <line class="cls-29" x1="386.18" y1="539.16" x2="386.71" y2="512.92"/>
    <line class="cls-29" x1="370.19" y1="538.9" x2="370.72" y2="512.66"/>
    <line class="cls-29" x1="356.05" y1="538.76" x2="356.59" y2="512.43"/>
    <line class="cls-29" x1="339.94" y1="538.41" x2="340.47" y2="512.16"/>
    <line class="cls-29" x1="324.74" y1="538.16" x2="325.28" y2="511.91"/>
    <line class="cls-29" x1="309.81" y1="537.91" x2="310.35" y2="511.67"/>
    <line class="cls-29" x1="294.2" y1="537.66" x2="294.74" y2="511.41"/>
    <line class="cls-29" x1="518.85" y1="443.86" x2="287.98" y2="440.09"/>
    <polygon class="cls-11" points="287.29 440.3 286.78 465.13 285.93 469.5 283.37 471.92 281.78 472.88 279.08 473.54 275.7 473.27 272.91 472.51 270.73 470.83 269.32 468.29 269.36 463.86 269.69 421.51 270.37 419.66 272.04 418.07 273.89 416.52 276.23 415.82 278.39 415.64 281.53 416.02 282.8 416.8 284.64 418.15 286 420.14 286.46 421.46 287.05 422.62 287.44 425.38 287.29 440.3"/>
    <line class="cls-14" x1="506.62" y1="416.95" x2="505.47" y2="473.3"/>
    <line class="cls-14" x1="492.76" y1="416.73" x2="491.61" y2="473.07"/>
    <line class="cls-14" x1="478.35" y1="443.2" x2="478.9" y2="416.5"/>
    <line class="cls-14" x1="450.21" y1="474.16" x2="450.87" y2="441.81"/>
    <line class="cls-14" x1="437.09" y1="474.88" x2="437.75" y2="442.54"/>
    <line class="cls-14" x1="464.03" y1="442.97" x2="464.57" y2="416.26"/>
    <line class="cls-14" x1="450.85" y1="442.75" x2="451.39" y2="416.05"/>
    <line class="cls-14" x1="423.27" y1="475.13" x2="423.93" y2="442.78"/>
    <line class="cls-14" x1="438.3" y1="415.83" x2="437.75" y2="442.54"/>
    <line class="cls-14" x1="410.03" y1="441.15" x2="409.37" y2="473.5"/>
    <line class="cls-14" x1="424.48" y1="415.61" x2="423.94" y2="442.31"/>
    <line class="cls-14" x1="410.01" y1="442.08" x2="410.55" y2="415.38"/>
    <line class="cls-14" x1="396.56" y1="441.86" x2="397.1" y2="415.16"/>
    <line class="cls-14" x1="383.1" y1="441.64" x2="383.65" y2="414.94"/>
    <line class="cls-14" x1="369.53" y1="441.42" x2="370.07" y2="414.72"/>
    <line class="cls-14" x1="355.52" y1="473.55" x2="356.2" y2="440.27"/>
    <line class="cls-14" x1="368.87" y1="473.77" x2="369.55" y2="440.48"/>
    <line class="cls-14" x1="382.43" y1="474.93" x2="383.1" y2="441.64"/>
    <line class="cls-14" x1="395.9" y1="474.21" x2="396.56" y2="441.86"/>
    <path class="cls-14" d="M301.64,440.31c.17-8.56.35-17.13.52-25.69"/>
    <path class="cls-14" d="M314.64,440.52l.5-24.62"/>
    <line class="cls-14" x1="328.87" y1="440.75" x2="329.42" y2="414.05"/>
    <line class="cls-14" x1="342.58" y1="440.98" x2="343.12" y2="414.28"/>
    <line class="cls-14" x1="342.59" y1="440.51" x2="341.91" y2="473.79"/>
    <line class="cls-14" x1="328.87" y1="440.75" x2="328.21" y2="473.1"/>
    <line class="cls-14" x1="314.64" y1="440.52" x2="313.97" y2="473.81"/>
    <path class="cls-14" d="M384.3,383.05c.18-9.01.37-18.03.55-27.04"/>
    <line class="cls-14" x1="301.64" y1="440.16" x2="300.96" y2="473.75"/>
    <line class="cls-14" x1="356.18" y1="441.2" x2="356.72" y2="414.5"/>
    <line class="cls-14" x1="478.35" y1="443.2" x2="477.75" y2="472.84"/>
    <line class="cls-14" x1="464.03" y1="442.97" x2="463.43" y2="472.61"/>
    <line class="cls-14" x1="507.33" y1="382.14" x2="507.85" y2="356.27"/>
    <path class="cls-14" d="M493.41,384.7c.19-9.41.38-18.82.57-28.23"/>
    <path class="cls-14" d="M492.73,418.34l.07-3.53"/>
    <path class="cls-14" d="M507.27,385.07c.2-9.6.39-19.2.59-28.81"/>
    <path class="cls-14" d="M506.59,418.57l.09-4.21"/>
    <path class="cls-14" d="M479.61,381.62c.17-8.43.34-16.87.51-25.3"/>
    <path class="cls-14" d="M478.86,418.11l.09-4.24"/>
    <path class="cls-14" d="M465.23,384.24c.19-9.3.38-18.6.57-27.9"/>
    <path class="cls-14" d="M464.54,417.88l.07-3.61"/>
    <path class="cls-14" d="M452.05,383.6c.18-9.08.37-18.16.55-27.24"/>
    <path class="cls-14" d="M451.36,417.66l.07-3.55"/>
    <path class="cls-14" d="M438.95,383.75c.18-8.73.36-17.47.53-26.2"/>
    <path class="cls-14" d="M438.26,417.45l.07-3.55"/>
    <path class="cls-14" d="M425.1,385.29c.19-9.32.38-18.64.57-27.97"/>
    <path class="cls-14" d="M411.18,384.44c.19-9.33.38-18.67.57-28"/>
    <path class="cls-14" d="M397.74,383.76c.18-8.96.36-17.92.55-26.89"/>
    <path class="cls-14" d="M370.71,383.58c.18-9.02.37-18.05.55-27.07"/>
    <path class="cls-14" d="M357.36,383.09c.18-8.85.36-17.7.54-26.55"/>
    <path class="cls-14" d="M343.76,382.9c.18-8.78.36-17.56.54-26.33"/>
    <path class="cls-14" d="M330.05,383.13c.18-8.85.36-17.69.54-26.54"/>
    <path class="cls-14" d="M315.83,382c.18-8.63.35-17.26.53-25.89"/>
    <path class="cls-14" d="M302.83,381.94c.17-8.44.34-16.87.51-25.31"/>
    <line class="cls-14" x1="288.45" y1="382.86" x2="288.99" y2="356.66"/>
    <line class="cls-14" x1="273.53" y1="382.61" x2="274.04" y2="357.48"/>
    <line class="cls-14" x1="260.11" y1="382.39" x2="260.63" y2="356.72"/>
    <line class="cls-14" x1="245.01" y1="383.51" x2="245.55" y2="357.01"/>
    <line class="cls-8" x1="234.09" y1="407.6" x2="209.33" y2="407.2"/>
    <line class="cls-8" x1="233.81" y1="421.2" x2="209.06" y2="420.79"/>
    <line class="cls-8" x1="233.5" y1="436.32" x2="208.75" y2="435.92"/>
    <line class="cls-8" x1="233.23" y1="449.77" x2="208.48" y2="449.36"/>
    <line class="cls-8" x1="232.93" y1="464.35" x2="208.18" y2="463.95"/>
    <line class="cls-8" x1="232.64" y1="478.92" x2="207.88" y2="478.51"/>
    <line class="cls-8" x1="232.35" y1="492.89" x2="207.6" y2="492.48"/>
    <line class="cls-8" x1="232.86" y1="507.34" x2="207.31" y2="506.92"/>
    <line class="cls-8" x1="607.17" y1="542.55" x2="607.82" y2="510.61"/>
    <line class="cls-8" x1="642.03" y1="541.79" x2="642.65" y2="511.18"/>
    <line class="cls-8" x1="678.49" y1="542.39" x2="679.12" y2="511.78"/>
    <line class="cls-8" x1="714.79" y1="541.88" x2="715.39" y2="512.37"/>
    <g>
      <line class="cls-8" x1="700.7" y1="542.75" x2="701.32" y2="512.14"/>
      <line class="cls-8" x1="693.12" y1="541.52" x2="693.72" y2="512.01"/>
      <line class="cls-8" x1="701.32" y1="512.14" x2="693.72" y2="512.01"/>
    </g>
    <line class="cls-8" x1="664.48" y1="542.16" x2="665.1" y2="511.55"/>
    <line class="cls-8" x1="656.14" y1="542.02" x2="656.76" y2="511.41"/>
    <line class="cls-8" x1="665.1" y1="511.55" x2="656.76" y2="511.41"/>
    <line class="cls-8" x1="627.99" y1="541.56" x2="628.61" y2="510.95"/>
    <line class="cls-8" x1="620.95" y1="541.45" x2="621.57" y2="510.83"/>
    <line class="cls-8" x1="628.61" y1="510.95" x2="621.57" y2="510.83"/>
    <line class="cls-8" x1="592.94" y1="541.74" x2="593.58" y2="510.38"/>
    <line class="cls-8" x1="586.01" y1="541.63" x2="586.65" y2="510.26"/>
    <line class="cls-8" x1="593.58" y1="510.38" x2="586.65" y2="510.26"/>
    <path class="cls-8" d="M696.77,542.41c1.17-1.04,2.37-2.05,3.61-3.01"/>
    <path class="cls-8" d="M693.28,540.79c1.4-.37,2.33-1.56,3.3-2.58.7-.74,1.47-1.42,2.3-2.03.68-.5,1.42-.98,1.89-1.66"/>
    <path class="cls-8" d="M693.43,536.4c2.55-1.79,4.42-4.33,7.03-6.03"/>
    <path class="cls-8" d="M693.76,531.51c2.45-2.22,4.89-4.45,7.34-6.67"/>
    <path class="cls-8" d="M694.02,526.36c2.14-2.2,4.39-4.3,6.74-6.29"/>
    <path class="cls-8" d="M694.02,521.6c2.42-1.88,4.77-3.85,7.02-5.91"/>
    <path class="cls-8" d="M694.15,516.96c1.69-1.69,3.44-3.33,5.23-4.92"/>
    <path class="cls-8" d="M657.02,541.74c.77-.1,1.36-.67,1.92-1.18,1.56-1.43,3.34-2.62,5.11-3.81"/>
    <path class="cls-8" d="M656.55,538.26c2.48-2.19,4.96-4.38,7.44-6.57"/>
    <path class="cls-8" d="M656.88,532.95l7.23-6.29"/>
    <path class="cls-8" d="M656.97,527.9c2.3-2.05,4.69-4.02,7.16-5.88"/>
    <path class="cls-8" d="M657.06,523.5c1.75-1.96,3.82-3.67,6.11-5.05"/>
    <path class="cls-8" d="M657.72,518.36c1.83-2.35,4.1-4.41,6.68-6.04"/>
    <path class="cls-8" d="M657.17,523.35c2.46-1.93,4.83-3.98,7.09-6.12"/>
    <path class="cls-8" d="M622.76,541.91l4.51-3.26"/>
    <path class="cls-8" d="M621.67,538.22c1.96-1.63,3.92-3.27,5.88-4.9"/>
    <path class="cls-8" d="M621.72,533.42c1.89-1.76,3.81-3.49,5.76-5.19"/>
    <path class="cls-8" d="M621.9,528.51c1.94-2.04,4.03-3.96,6.25-5.74"/>
    <path class="cls-8" d="M621.82,523.75c1.75-1.72,3.6-3.36,5.53-4.9"/>
    <path class="cls-8" d="M621.97,519.04c2.29-2.07,4.58-4.15,6.87-6.22"/>
    <path class="cls-8" d="M622.87,513.87s-.07.08-.09.03.02-.1.06-.14c.86-.87,1.8-1.68.03.11Z"/>
    <path class="cls-8" d="M588.18,541.73c1.57-1.14,3.04-2.41,4.38-3.79"/>
    <path class="cls-8" d="M586.24,538.88c2-2.08,4.17-4.01,6.48-5.79"/>
    <path class="cls-8" d="M586.56,534.1l6.64-5.88"/>
    <path class="cls-8" d="M586.72,528.95c1.95-1.95,3.98-3.82,6.1-5.6"/>
    <path class="cls-8" d="M592.84,518.52c-2.26,1.5-3.88,3.7-5.61,5.05,1.72-1.69,3.51-3.33,5.61-5.05Z"/>
    <path class="cls-8" d="M587.23,519.34c1.66-2.23,3.66-4.24,5.9-5.96"/>
    <path class="cls-8" d="M587.31,514.23c1.28-1.16,2.61-2.26,3.99-3.31"/>
    <line class="cls-19" x1="625.83" y1="447.08" x2="585.33" y2="450.47"/>
    <line class="cls-19" x1="612.57" y1="448.19" x2="613.08" y2="422.66"/>
    <line class="cls-19" x1="598.36" y1="449.38" x2="598.93" y2="421.42"/>
    <line class="cls-19" x1="601.03" y1="478.5" x2="601.62" y2="449.43"/>
    <line class="cls-19" x1="616.78" y1="476.8" x2="617.37" y2="447.79"/>
    <line class="cls-19" x1="631.77" y1="477.05" x2="632.38" y2="447.19"/>
    <line class="cls-19" x1="647.28" y1="474.53" x2="647.86" y2="445.97"/>
    <line class="cls-19" x1="662.49" y1="473.23" x2="663.05" y2="445.37"/>
    <line class="cls-19" x1="678.45" y1="472.99" x2="679" y2="445.63"/>
    <line class="cls-19" x1="693.99" y1="471.68" x2="694.55" y2="444.11"/>
    <line class="cls-19" x1="709" y1="470.62" x2="709.53" y2="444.36"/>
    <line class="cls-19" x1="722.65" y1="469.15" x2="723.18" y2="442.97"/>
    <line class="cls-19" x1="799.48" y1="441.74" x2="828.63" y2="446.66"/>
    <line class="cls-19" x1="799.25" y1="457.31" x2="827.05" y2="461.07"/>
    <line class="cls-19" x1="796.5" y1="471.96" x2="823.76" y2="475.64"/>
    <line class="cls-19" x1="794.88" y1="485.5" x2="823.49" y2="489.29"/>
    <line class="cls-19" x1="793.27" y1="499.7" x2="822.41" y2="503.45"/>
    <line class="cls-19" x1="791.44" y1="513.61" x2="820.84" y2="517.69"/>
    <line class="cls-19" x1="789.87" y1="528.35" x2="819.28" y2="531.98"/>
    <line class="cls-19" x1="787.98" y1="542.34" x2="817.73" y2="546.12"/>
    <line class="cls-19" x1="786.17" y1="555.83" x2="816.23" y2="559.75"/>
    <line class="cls-19" x1="784" y1="570.06" x2="814.68" y2="573.91"/>
    <line class="cls-19" x1="782.33" y1="584.1" x2="813.14" y2="587.96"/>
    <line class="cls-19" x1="780.93" y1="598.4" x2="811.6" y2="602.01"/>
    <line class="cls-19" x1="778.74" y1="612.45" x2="810" y2="616.53"/>
    <line class="cls-19" x1="776.39" y1="626.57" x2="808.61" y2="629.21"/>
    <line class="cls-19" x1="774.94" y1="640.8" x2="807.03" y2="643.62"/>
    <line class="cls-19" x1="772.65" y1="654.49" x2="805.43" y2="658.26"/>
    <line class="cls-19" x1="771.13" y1="668.76" x2="803.89" y2="672.3"/>
    <line class="cls-19" x1="769.31" y1="682.69" x2="802.37" y2="686.09"/>
    <line class="cls-19" x1="800.84" y1="700.06" x2="769.02" y2="696.75"/>
    <line class="cls-19" x1="768.75" y1="710.33" x2="798.85" y2="713.7"/>
    <line class="cls-19" x1="757.92" y1="868.3" x2="782.03" y2="871.57"/>
    <line class="cls-19" x1="758.22" y1="853.56" x2="783.74" y2="856.05"/>
    <line class="cls-19" x1="763.74" y1="839.06" x2="785.26" y2="842.13"/>
    <line class="cls-19" x1="763.99" y1="826.35" x2="786.66" y2="829.38"/>
    <line class="cls-19" x1="764.28" y1="812.46" x2="786.94" y2="815.6"/>
    <line class="cls-19" x1="764.58" y1="797.75" x2="789.76" y2="801.14"/>
    <line class="cls-19" x1="764.85" y1="784.24" x2="790.04" y2="787.34"/>
    <line class="cls-19" x1="765.16" y1="768.92" x2="792.93" y2="772.19"/>
    <line class="cls-19" x1="765.45" y1="754.77" x2="794.5" y2="757.91"/>
    <line class="cls-19" x1="768.13" y1="740.58" x2="794.79" y2="743.63"/>
    <line class="cls-19" x1="768.46" y1="724.43" x2="796.83" y2="727.34"/>
    <line class="cls-19" x1="733.46" y1="575.98" x2="698.09" y2="575.4"/>
    <line class="cls-19" x1="733.15" y1="591.21" x2="696.44" y2="590.61"/>
    <line class="cls-19" x1="732.3" y1="606.02" x2="696.14" y2="605.43"/>
    <line class="cls-19" x1="731.98" y1="621.67" x2="695.54" y2="621.08"/>
    <line class="cls-19" x1="731.65" y1="637.84" x2="695.21" y2="637.24"/>
    <line class="cls-19" x1="702.68" y1="661" x2="673.37" y2="660.52"/>
    <line class="cls-19" x1="671.56" y1="749.33" x2="691.15" y2="749.65"/>
    <line class="cls-19" x1="690.57" y1="778.25" x2="671.28" y2="777.94"/>
    <line class="cls-22" x1="689.99" y1="806.93" x2="670.77" y2="806.62"/>
    <line class="cls-11" x1="244.33" y1="869.68" x2="260.57" y2="869.94"/>
    <line class="cls-22" x1="243.8" y1="895.83" x2="244.33" y2="869.68"/>
    <line class="cls-22" x1="258.3" y1="896.06" x2="258.83" y2="869.91"/>
    <line class="cls-22" x1="272.13" y1="895.16" x2="272.64" y2="870.14"/>
    <line class="cls-22" x1="286.15" y1="895.38" x2="286.66" y2="870.37"/>
    <line class="cls-22" x1="300.96" y1="895.63" x2="301.46" y2="870.61"/>
    <line class="cls-22" x1="314.95" y1="896.99" x2="315.48" y2="870.84"/>
    <line class="cls-22" x1="329" y1="896.09" x2="329.5" y2="871.07"/>
    <line class="cls-22" x1="343.3" y1="896.32" x2="343.81" y2="871.3"/>
    <line class="cls-22" x1="357.82" y1="896.56" x2="358.33" y2="871.54"/>
    <line class="cls-22" x1="372.08" y1="896.79" x2="372.6" y2="871.02"/>
    <line class="cls-22" x1="386.01" y1="897.02" x2="386.53" y2="871.25"/>
    <line class="cls-22" x1="400.1" y1="897.25" x2="400.62" y2="871.48"/>
    <line class="cls-13" x1="413.59" y1="896.81" x2="414.11" y2="871.42"/>
    <line class="cls-22" x1="428.49" y1="896.51" x2="428.99" y2="871.95"/>
    <line class="cls-22" x1="442.76" y1="897.29" x2="443.28" y2="872.18"/>
    <line class="cls-22" x1="457.1" y1="897.52" x2="457.62" y2="871.84"/>
    <line class="cls-22" x1="470.95" y1="897.75" x2="471.48" y2="871.98"/>
    <line class="cls-22" x1="485.03" y1="897.98" x2="485.55" y2="872.3"/>
    <line class="cls-22" x1="499.64" y1="897.67" x2="500.15" y2="872.54"/>
    <line class="cls-22" x1="513.79" y1="897.91" x2="514.3" y2="872.68"/>
    <line class="cls-22" x1="527.9" y1="898.68" x2="528.42" y2="872.91"/>
    <line class="cls-22" x1="542.12" y1="898.91" x2="542.65" y2="872.66"/>
    <line class="cls-22" x1="556.13" y1="899.14" x2="556.67" y2="872.8"/>
    <line class="cls-22" x1="570.46" y1="898.83" x2="570.99" y2="872.65"/>
    <line class="cls-22" x1="584.92" y1="899.07" x2="585.45" y2="873.27"/>
    <line class="cls-22" x1="598.93" y1="899.3" x2="599.46" y2="873.12"/>
    <line class="cls-22" x1="579.84" y1="974.59" x2="580.17" y2="953.33"/>
    <line class="cls-22" x1="566.19" y1="973.85" x2="566.62" y2="953.11"/>
    <line class="cls-22" x1="553.6" y1="974.32" x2="554.03" y2="952.9"/>
    <line class="cls-22" x1="540.59" y1="973.95" x2="541.02" y2="952.69"/>
    <line class="cls-22" x1="526.84" y1="973.72" x2="527.27" y2="952.46"/>
    <line class="cls-22" x1="514.1" y1="973.51" x2="514.54" y2="952.26"/>
    <line class="cls-22" x1="500.83" y1="973.3" x2="501.26" y2="952.04"/>
    <line class="cls-22" x1="487.69" y1="973.24" x2="488.13" y2="951.82"/>
    <line class="cls-22" x1="474.54" y1="973.03" x2="474.98" y2="951.61"/>
    <line class="cls-22" x1="461.05" y1="973.37" x2="461.5" y2="951.39"/>
    <line class="cls-22" x1="448.18" y1="973.24" x2="448.63" y2="951.18"/>
    <line class="cls-22" x1="434.82" y1="972.94" x2="435.26" y2="950.96"/>
    <line class="cls-22" x1="421.88" y1="972.73" x2="422.32" y2="950.75"/>
    <line class="cls-22" x1="408.48" y1="972.83" x2="408.93" y2="950.53"/>
    <line class="cls-22" x1="395.49" y1="972.62" x2="395.94" y2="950.32"/>
    <line class="cls-22" x1="382.12" y1="972.56" x2="382.58" y2="950.1"/>
    <line class="cls-22" x1="369.16" y1="972.42" x2="369.62" y2="949.89"/>
    <line class="cls-22" x1="356.06" y1="972.13" x2="356.52" y2="949.67"/>
    <line class="cls-22" x1="342.75" y1="972.15" x2="343.22" y2="949.45"/>
    <line class="cls-22" x1="329.32" y1="971.69" x2="329.78" y2="949.23"/>
    <line class="cls-22" x1="316.12" y1="971.88" x2="316.58" y2="949.02"/>
    <line class="cls-22" x1="302.9" y1="971.74" x2="303.37" y2="948.8"/>
    <line class="cls-22" x1="289.98" y1="971.61" x2="290.45" y2="948.59"/>
    <line class="cls-22" x1="276.74" y1="971.39" x2="277.21" y2="948.37"/>
    <line class="cls-22" x1="263.71" y1="971.34" x2="264.18" y2="948.16"/>
    <line class="cls-22" x1="250.53" y1="971.12" x2="251" y2="947.94"/>
    <line class="cls-22" x1="237.39" y1="970.91" x2="237.86" y2="947.73"/>
    <line class="cls-22" x1="224.32" y1="970.93" x2="224.8" y2="947.52"/>
    <line class="cls-22" x1="211.05" y1="970.72" x2="211.52" y2="947.3"/>
    <line class="cls-11" x1="613.12" y1="873.34" x2="260.57" y2="869.94"/>
    <line class="cls-7" x1="572.66" y1="542.21" x2="573.15" y2="517.93"/>
    <path class="cls-7" d="M699.02,722.71c-8.54.25-17.42-.46-25.96-.42"/>
    <line class="cls-7" x1="699.18" y1="676.01" x2="673.43" y2="675.59"/>
    <line class="cls-7" x1="699.2" y1="675.2" x2="699.02" y2="722.71"/>
    <text class="cls-36" transform="translate(330.6 415.79) rotate(.94) scale(1.07 1) skewX(-.21)"><tspan class="cls-64" x="0" y="0">L</tspan><tspan class="cls-54" x="23.04" y="0">ot A</tspan></text>
    <text/>
    <text/>
    <text class="cls-34" transform="translate(696.04 643.8) rotate(.94) scale(1.07 1) skewX(-.21)"><tspan class="cls-65" x="0" y="0">L</tspan><tspan x="23.04" y="0">ot B</tspan></text>
    <text class="cls-35" transform="translate(364.03 944.51) rotate(.94) scale(1.07 1) skewX(-.21)"><tspan class="cls-65" x="0" y="0">L</tspan><tspan x="23.04" y="0">ot C</tspan></text>
    <text/>
    <g>
      <line class="cls-7" x1="631.18" y1="423.48" x2="639.53" y2="413.23"/>
      <g>
        <line class="cls-7" x1="230.96" y1="371.1" x2="230.5" y2="393.56"/>
        <g>
          <g>
            <g>
              <line class="cls-7" x1="281.81" y1="537.72" x2="522.75" y2="541.66"/>
              <line class="cls-7" x1="522.71" y1="541.56" x2="523.25" y2="515.36"/>
              <line class="cls-7" x1="573.08" y1="516.18" x2="523.25" y2="515.36"/>
            </g>
            <g>
              <line class="cls-7" x1="210.08" y1="393.23" x2="230.5" y2="393.56"/>
              <line class="cls-7" x1="207.48" y1="521.12" x2="210.08" y2="393.23"/>
              <g>
                <line class="cls-7" x1="530.12" y1="473.98" x2="532.51" y2="356.9"/>
                <g>
                  <line class="cls-7" x1="518.2" y1="473.78" x2="530.12" y2="473.98"/>
                  <line class="cls-7" x1="520.58" y1="356.71" x2="518.2" y2="473.78"/>
                </g>
                <line class="cls-7" x1="532.51" y1="356.9" x2="526.72" y2="348.33"/>
                <g>
                  <line class="cls-7" x1="515.23" y1="343.2" x2="526.64" y2="348.3"/>
                  <line class="cls-7" x1="171.93" y1="315" x2="515.23" y2="343.2"/>
                  <path class="cls-11" d="M520.58,356.85c-.56-.75-1.74-2.06-1.74-2.06l-2.91-.8-284.25-7.42-21.59-.7-.12,47.44"/>
                  <line class="cls-7" x1="231.24" y1="357.23" x2="520.58" y2="356.71"/>
                </g>
              </g>
            </g>
          </g>
          <g>
            <path class="cls-11" d="M586.7,377.11c-.16,7.45-.31,14.9-.49,22.35"/>
            <path class="cls-11" d="M571.14,465.66c.08-31.92,2.91-62.83,1.36-94.84.19-9.28,11.32-15.29,19.08-18.26,53.68,12.23,107.42,21.36,161.08,34.62,7.53,8.38,12.8,19.81,7.09,30.04-7.74,1.94-17.62.74-25.26-2.48-1.08-1.05-2.1-5.19-3.17-6.24-15.28-6.44-31.76-7.74-49.3-11.12-32.9-5.7-63.54-14.45-95.55-19.33"/>
            <path class="cls-11" d="M586.25,398.64c-.52,25.03-1.01,48.75-1.51,73.51-.08,4.13-4.57,8.18-10.4,5.26l-1.24-1.09-.8-1.09-.82-1.37-.35-1.83-.12-1.92.08-1.41.03-1.31.02-.92v-1.1"/>
            <g>
              <path class="cls-7" d="M746.59,435.44c-35.48-7.66-71.64-15.47-107.06-22.21"/>
              <polyline class="cls-11" points="745.94 435.12 748.07 437.05 748.93 439.31 749.26 441.42 748.97 444.3 747.7 462.6 747.38 464.02 745.98 465.73 743.27 466.78 740.86 466.84 739.7 466.31 738.83 464.68 738.88 462.08 739.42 442.64 626.61 447.13 625.71 443.6 626.42 440.01 627.06 436.27 627.78 432.6 628.72 429.32 629.49 427.01 630.58 424.32 639.53 413.14"/>
              <g>
                <g>
                  <line class="cls-7" x1="230.57" y1="544.88" x2="231.05" y2="521.51"/>
                  <polyline class="cls-11" points="230.55 542.29 230.13 545.92 228.33 547.63 222.39 548.53 214.8 548.24 209.35 547.49 206.19 585.26 206.22 609.06 205.14 679.6 204.25 732.69 204.01 843.49 202.86 970.19 610.76 974.38 612.94 872.98 711.46 872.23 781.18 873.01 829.8 429.76 803.6 425.62 800.17 423.07 799.89 418.97 800.63 415.16 802.13 410.33 804.43 406.76 806.86 403.95 811.56 402.01 817.89 399.97 826.63 400.25 843 403.36"/>
                  <path class="cls-11" d="M672.82,676.13c-.27-.4-.77-.64-1.29-.74"/>
                  <path class="cls-11" d="M672.77,676.1c.06-.15.05-.34.1-.5-.84-.22-.4.48,0,0-.54.01-1.06.2-1.49.48"/>
                  <path class="cls-11" d="M672.88,676.16c.03-.17,0-.38,0-.56-.22.12-.41.29-.53.49"/>
                  <path class="cls-11" d="M672.86,676.03c0-.14,0-.28.01-.43-.14.14-.24.29-.32.45"/>
                  <path class="cls-11" d="M280.92,537.7c-9.36-.38-18.23-1.4-27.47-.84-2.59-.02-5.54-.67-8.14,1.19-2.09,26.35-.47,52.42-1.45,78.79-.01,1.57-2.61,2.49-2.62,4.06-1.55,8.15-.88,16-1.32,23.85-.66,32.02-.57,63.73.25,95.75-.02,2.2,2.93,3.16,4.77,4.43.83,30.46-1.65,60.58-1.19,91.03-.05,5.96,4.69,12.6,12.08,12.66,38.43,1.88,76.5,2.2,114.58,1.88,11.09.09,22.18.18,33.27.27,6.65.37,12.93,1.05,19.58.79,4.81-.27,10.72.09,13.34-3.97,1.5-2.81,1.16-5.64,2.66-8.45,1.5-2.19,4.82-2.16,7.41-1.82,16.62,1.39,32.89,1.52,49.47,1.54"/>
                </g>
                <path class="cls-11" d="M672.06,722.81c-.78,37.09-.75,74.2-2.19,111.29-3.4,7.52-13.06,11.53-21.95,11.77-39.63.93-79.6-.34-119.22.28-9.26.24-18.88-.47-28.13-.54-2.59-.34-3.31-2.54-4.77-4.44-.36-.63-.36-1.58-.13-2.61"/>
                <path class="cls-11" d="M572.8,541.85c8.98.67,17.87.43,26.75.5,42.94.67,85.89.7,128.84,1.05.37,0,.74-.31.75-.62.76-1.88.41-4.08.79-5.97,1.92-7.85.14-15.72,3.54-22.93,1.85-.3,3.71-.91,5.56-.9,1.11.32,1.84,1.27,2.57,1.91,1.1,1.58.34,3.15.33,4.72-.85,12.57-2.08,25.14-3.67,37.7-.38.94-1.13,2.19-1.87,2.19-12.96.52-26.28-.53-39.18-.76-.03.88,1.08.03,0,0-.6,18.99-1.14,37.54-2.05,56.4-.46,10.06-.55,20.12-1.75,30.17-2.59.29-5.2,1.53-7.79,1.82-4.08.28-8.15.25-12.22.21-.09,9.75-.91,19.17-.58,28.81"/>
              </g>
            </g>
          </g>
        </g>
      </g>
    </g>
    <text/>
  </g>
  <g id="background_colors" data-name="background colors">
    <path class="cls-31" d="M592.64,692.91c.63-.07,3.87-.41,5.95-2.78,1.63-1.86,1.57-3.88,1.53-5.33-.04-1.37-.1-3.44-1.81-5.05-.51-.48-1.44-1.17-4.43-1.92-3.85-.97-7.08-1.01-8.51-1.01-6.89,0-6.63,1.1-11.49.85-4.78-.25-6.23-1.37-9.25-.39-.88.29-3.07,1.14-4.47,3.11-1.23,1.74-1.19,3.44-1.16,5.02.05,1.94.09,3.64,1.44,5.04,1.14,1.18,2.91,1.69,7.39,1.95,11.33.65,13.47-1.81,19.62-.15,1.26.34,2.92.91,5.18.67Z"/>
    <path class="cls-24" d="M290.24,703.17c.06,0,.27.02.54.03,1.84.04,3.24-.51,3.54-.62,1.51-.61,2.34-1.5,2.98-2.18.59-.63,1.16-1.24,1.5-2.19.45-1.27.21-2.35.03-3.14-.25-1.12-.73-1.98-1.09-2.52-.19-.29-.99-1.45-2.57-2.54-.46-.32-2.09-1.38-4.8-1.93-1.86-.37-2.4-.13-6.66-.05-.31,0-2.8-.02-7.77-.06-1.97-.02-3.95-.01-5.92-.05-4.65-.09-5.77-.23-7.78.25-1.32.31-2.82.69-4.09,1.85-1.28,1.18-1.64,2.53-1.88,3.44-.21.78-.57,2.16-.03,3.77.35,1.06.94,1.78,1.83,2.84.34.41,1.28,1.54,2.2,2.22,1.97,1.44,4.67,1.39,7.02,1.32,3.95-.12,20.33-.66,22.96-.44Z"/>
    <path class="cls-50" d="M290.33,703.73c-2.23.75-4.84,1.3-7.73,1.56"/>
    <path class="cls-50" d="M563.66,704c4.82-.9,9.72.67,16.66-.18,11.83-1.44,20.08,1.31,20.29,7.71.16,4.69-8.38,9.36-20.45,9.27-12.06-.1-21.81-3.98-21.77-8.67.02-1.96-.98-4.86,1.91-6.27"/>
    <rect class="cls-57" x="265.8" y="713.31" width="27.4" height="21.38" transform="translate(553.07 1450.26) rotate(-179.53)"/>
    <rect class="cls-57" x="266.69" y="656.08" width="27.4" height="20.12" transform="translate(555.32 1334.56) rotate(-179.53)"/>
    <rect class="cls-9" x="260.58" y="635.68" width="48.87" height="20.12" transform="translate(564.74 1293.8) rotate(-179.53)"/>
    <rect class="cls-9" x="310.1" y="637.29" width="34.43" height="119.49" transform="translate(648.93 1396.72) rotate(-179.53)"/>
    <rect class="cls-9" x="261.02" y="558.15" width="233.99" height="79.24" transform="translate(751.12 1198.61) rotate(-179.53)"/>
    <rect class="cls-76" x="575.04" y="753.86" width="24.94" height="4.1" transform="translate(1168.82 1516.61) rotate(-179.53)"/>
    <rect class="cls-56" x="309.72" y="756.08" width="172.23" height="34.27" transform="translate(785.33 1549.64) rotate(-179.53)"/>
    <rect class="cls-56" x="449.92" y="790.18" width="2.59" height="8.49" transform="translate(895.92 1592.51) rotate(-179.53)"/>
    <rect class="cls-56" x="449.67" y="819.42" width="2.59" height="5.97" transform="translate(895.19 1648.47) rotate(-179.53)"/>
    <rect class="cls-56" x="452.15" y="760.75" width="29.99" height="65.4" transform="translate(927.79 1590.7) rotate(-179.53)"/>
    <rect class="cls-56" x="258.37" y="735" width="40.73" height="65.4" transform="translate(551.18 1537.65) rotate(-179.53)"/>
    <rect class="cls-56" x="259.04" y="800.28" width="162.16" height="34.27" transform="translate(673.54 1637.58) rotate(-179.53)"/>
    <rect class="cls-76" x="482.53" y="757.27" width="116.99" height="68.55" transform="translate(1075.57 1587.48) rotate(-179.53)"/>
    <rect class="cls-76" x="610.5" y="777.52" width="45.17" height="58.49" transform="translate(1259.55 1618.67) rotate(-179.53)"/>
    <rect class="cls-57" x="566.91" y="751.53" width="7.03" height="5.03" transform="translate(1134.68 1512.74) rotate(-179.53)"/>
    <rect class="cls-57" x="570.04" y="643.77" width="24.07" height="18.87" transform="translate(1158.79 1311.15) rotate(-179.53)"/>
    <rect class="cls-57" x="567.03" y="729.92" width="27.4" height="22.95" transform="translate(1155.37 1487.52) rotate(-179.53)"/>
    <rect class="cls-55" x="609.93" y="717.46" width="48.13" height="59.11" transform="translate(1261.85 1499.2) rotate(-179.53)"/>
    <rect class="cls-50" x="519.81" y="592.69" width="12.59" height="12.58" transform="translate(1047.28 1202.24) rotate(-179.53)"/>
    <rect class="cls-31" x="421.66" y="801.01" width="15.92" height="13.52" transform="translate(852.63 1619.02) rotate(-179.53)"/>
    <rect class="cls-31" x="515.35" y="717.5" width="15.92" height="13.52" transform="translate(1040.67 1452.78) rotate(-179.53)"/>
    <rect class="cls-31" x="520.77" y="682.93" width="9.63" height="29.56" transform="translate(1045.44 1399.69) rotate(-179.53)"/>
    <rect class="cls-50" x="507.13" y="592.9" width="12.59" height="32.07" transform="translate(1021.85 1222.05) rotate(-179.53)"/>
    <rect class="cls-99" x="569.77" y="559.91" width="46.65" height="83.33" transform="translate(1181.25 1207.97) rotate(-179.53)"/>
    <rect class="cls-99" x="611.63" y="560.09" width="46.65" height="119.8" transform="translate(1264.81 1245.16) rotate(-179.53)"/>
  </g>
  <g id="Outer_Walls" data-name="Outer Walls">
    <polyline class="cls-20" points="671.66 717.05 657.96 716.94 657.84 730.7"/>
    <line class="cls-20" x1="658.88" y1="716.95" x2="658.87" y2="703.98"/>
    <line class="cls-20" x1="658.82" y1="694.08" x2="659.22" y2="680.09"/>
    <polyline class="cls-20" points="556.28 535.64 566.25 535.72 566.05 558.58 659.93 559.35 659.22 680.09 671.99 680.2"/>
    <polyline class="cls-20" points="544.4 535.54 533.95 535.45 533.75 558.04 260.46 556.08 259.56 655.98 259.55 657.33 266.21 657.38 266.04 676.25 270.12 676.28 270.02 687.6 265.2 687.56 260.75 688.47 257.77 690.33 255.9 692.83 255.51 694.71 255.49 696.6 255.85 698.18 256.58 699.75 258.04 701.34 259.89 702.3 262.47 703.26 264.69 703.28 267.28 703.3 269.5 703.32 269.4 715.27 265.32 715.23 265.15 734.1 259.23 734.05 258.7 834.67 419.97 835.99 421.22 836 421.17 841.66 421.89 844.18 422.99 845.76 424.87 847.19 427.4 848.63 430.37 848.65 432.96 848.67 434.82 847.74 436.31 846.5 437.07 844.62 437.83 842.42 438.21 840.54 438.23 838.65 438.25 836.14 657.61 838.09 657.65 750.99"/>
    <polyline class="cls-20" points="345.62 692.17 346.11 637.19 528.53 638.02 528.45 646.28"/>
    <polyline class="cls-20" points="531.27 744.45 531.29 757.04 483.3 756.36"/>
    <polyline class="cls-20" points="474.14 756.29 345.05 755.42 345.57 697.62"/>
    <polyline class="cls-20" points="368.4 667.34 358.15 667.25 358.18 663.71 345.88 663.61"/>
    <polyline class="cls-20" points="377.53 667.41 396.82 667.57 396.89 659.9 398.86 659.91 398.96 648.85 388.33 648.77 388.38 643.32 383.58 643.28 383.83 637.36"/>
    <polyline class="cls-20" points="531.46 738.27 531.52 732.19 513.24 732.04 513.39 715.84 516.11 715.86 516.16 710.37 520.1 710.4 520.27 685.56 517.16 685.53 517.21 680.37 529.25 680.46 529.46 657.34"/>
    <line class="cls-20" x1="532.21" y1="714.57" x2="516.76" y2="714.45"/>
  </g>
  <g id="Inner_Walls" data-name="Inner Walls">
    <polyline class="cls-17" points="338.15 769.3 337.96 790.42 358.44 790.59"/>
    <polyline class="cls-17" points="365.97 790.65 378.59 790.75 378.14 762.14 397.94 762.3 397.68 790.91 393.47 790.88"/>
    <line class="cls-17" x1="386.99" y1="790.82" x2="377.71" y2="790.75"/>
    <line class="cls-17" x1="397.94" y1="762.3" x2="398" y2="755.66"/>
    <polyline class="cls-17" points="404.97 790.9 433.06 791.13 434.08 755.96"/>
    <polyline class="cls-17" points="433.06 791.13 449.53 791.33 449.46 799.07 451.55 799.14 451.36 819.32 448.4 819.24 448.71 826.16 482.03 826.43"/>
    <polyline class="cls-17" points="343.89 755.22 338.27 755.17 338.19 764.98 338.16 768.25 357.24 768.41 357.35 755.52"/>
    <polyline class="cls-17" points="566.51 737.26 566.48 738.57 547.09 738.26 551.7 709.67 555.06 709.73 562.92 703.64 564.25 703.65"/>
    <path class="cls-17" d="M547.24,739.24c0,.31-.15,16.74-.15,16.74l.19-17.57-15.27-.12"/>
    <line class="cls-17" x1="558.58" y1="713.23" x2="551.38" y2="713.17"/>
    <line class="cls-17" x1="260.31" y1="655.67" x2="301.21" y2="656"/>
    <polyline class="cls-17" points="308.75 756.1 308.49 790.18 329.82 789.97"/>
    <polyline class="cls-17" points="329.86 784.86 330.12 756.66 329.66 756.65"/>
    <polyline class="cls-17" points="299.48 741.96 299.43 747.98 259.71 747.66"/>
    <line class="cls-17" x1="299.42" y1="748.49" x2="299.38" y2="753.29"/>
    <line class="cls-17" x1="299.15" y1="779.54" x2="299.29" y2="763.6"/>
    <line class="cls-17" x1="299.09" y1="786.25" x2="259.37" y2="785.93"/>
    <polyline class="cls-17" points="298.38 785.84 298.25 800.09 332.06 800.37"/>
    <line class="cls-17" x1="342.64" y1="800.45" x2="411.85" y2="801.02"/>
    <line class="cls-17" x1="421.23" y1="834.74" x2="421.37" y2="819.76"/>
    <line class="cls-17" x1="438.36" y1="815.09" x2="438.18" y2="834.88"/>
  </g>
  <g id="Elevator">
    <polyline class="cls-16" points="531.62 720.27 531.65 717.64 515.46 717.51 515.35 730.67 531.53 730.81 531.56 726.85"/>
    <polyline class="cls-16" points="531.03 689.3 531.08 683.08 521.11 683 520.84 712.92 530.81 713 530.88 706.15"/>
    <polyline class="cls-16" points="584.04 692.37 593.95 692.45 597.29 690.91 599.52 689.35 600.65 687.32 600.67 685.46 600.69 683.04 599.59 681.49 598.13 679.59 596.29 678.32 594.08 677.36 590.99 677.33 564.72 677.12 561.48 679.29 559.24 681.23 558.85 683.23 558.83 685.44 559.18 687.86 561.01 689.67 562.48 691.25 564.71 692.21 567.81 692.24 576.23 692.31"/>
    <line class="cls-16" x1="417.5" y1="801.06" x2="420.86" y2="801.09"/>
    <polyline class="cls-16" points="434.44 801.05 438.49 801.08 438.36 815.09"/>
    <polyline class="cls-16" points="438.37 814.38 421.42 814.24 421.54 800.93 426 800.97"/>
  </g>
  <g id="Stairs">
    <line class="cls-23" x1="259.53" y1="700.94" x2="259.62" y2="690.72"/>
    <line class="cls-23" x1="263.59" y1="702.33" x2="263.71" y2="688.65"/>
    <line class="cls-23" x1="268.02" y1="702.99" x2="268.15" y2="687.9"/>
    <line class="cls-23" x1="271.73" y1="703.02" x2="271.87" y2="687.74"/>
    <line class="cls-23" x1="276.59" y1="703.34" x2="276.73" y2="687.97"/>
    <line class="cls-25" x1="563.72" y1="718.62" x2="564.25" y2="704.16"/>
    <line class="cls-25" x1="568.08" y1="719.27" x2="568.22" y2="703.61"/>
    <line class="cls-25" x1="573.1" y1="719.32" x2="573.24" y2="703.66"/>
    <line class="cls-25" x1="577.78" y1="719.36" x2="577.92" y2="704.03"/>
    <line class="cls-25" x1="530.67" y1="605.78" x2="530.78" y2="593.04"/>
    <line class="cls-25" x1="526.04" y1="605.74" x2="526.16" y2="592.53"/>
    <line class="cls-25" x1="521.81" y1="605.23" x2="521.92" y2="593.12"/>
    <line class="cls-25" x1="519.93" y1="605.69" x2="507.76" y2="605.59"/>
    <line class="cls-25" x1="519.89" y1="610.34" x2="507.72" y2="610.24"/>
    <line class="cls-25" x1="519.84" y1="615.28" x2="507.67" y2="615.18"/>
    <line class="cls-25" x1="519.8" y1="620.15" x2="507.63" y2="620.05"/>
    <polyline class="cls-23" points="507.59 624.77 507.88 592.38 533.2 592.59"/>
    <polyline class="cls-23" points="519.76 624.87 519.93 605.69 532.39 605.79"/>
    <line class="cls-23" x1="564.25" y1="703.65" x2="585.14" y2="703.69"/>
    <polyline class="cls-23" points="595.49 704.95 594.02 704.4 592.54 704.39"/>
    <path class="cls-23" d="M562.06,704.5c-.45.42-.99.89-1.19.89-.37,0-1.13,2.19-1.13,2.19l-.76,1.92-.02,1.72-.02,1.7.36,1.26.73,1.58,1.84,1.59,1.84,1.27,1.85.64,27.06.22,2.2-.61,2.23-.93,1.65-1.49,1.34-1.63.39-2.2.02-1.87-.73-1.6-1.1-1.58-1.83-1.9-1.84-.96"/>
    <path class="cls-23" d="M563.3,703.23s-.56.61-1.24,1.27"/>
    <line class="cls-23" x1="564.55" y1="703.65" x2="562.74" y2="703.83"/>
    <polyline class="cls-23" points="271.12 687.92 291.7 688.09 294.07 689.06 295.54 690.01 297.01 691.28 297.74 692.54 298.83 694.44 298.81 696.52 298.8 698.12 298.04 699.78 297.3 700.72 296.55 701.34 295.43 701.96 294.32 702.58 293.46 703.02 292.09 703.19 291.31 703.18 290.36 703.18 289.1 703.17"/>
    <line class="cls-23" x1="282.83" y1="703.43" x2="270.35" y2="703.33"/>
  </g>
  <g id="Doors">
    <ellipse class="cls-15" cx="550.39" cy="533.14" rx="2.36" ry="2.78" transform="translate(13.92 1080.29) rotate(-89.65)"/>
    <ellipse class="cls-15" cx="513.65" cy="624.66" rx="2.36" ry="2.78" transform="translate(-114.11 1134.52) rotate(-89.65)"/>
    <ellipse class="cls-15" cx="498.09" cy="585.23" rx="2.36" ry="2.78" transform="translate(-90.15 1079.76) rotate(-89.65)"/>
    <ellipse class="cls-15" cx="309.02" cy="735.24" rx="2.36" ry="2.78" transform="translate(-428.09 1039.8) rotate(-89.65)"/>
    <ellipse class="cls-15" cx="304.52" cy="659.43" rx="2.36" ry="2.78" transform="translate(-356.74 959.94) rotate(-89.65)"/>
    <ellipse class="cls-15" cx="282.82" cy="683.78" rx="2.36" ry="2.78" transform="translate(-402.65 962.45) rotate(-89.65)"/>
    <ellipse class="cls-15" cx="285.62" cy="702.04" rx="2.36" ry="2.78" transform="translate(-418.13 983.4) rotate(-89.65)"/>
    <ellipse class="cls-15" cx="281.12" cy="707.97" rx="2.36" ry="2.78" transform="translate(-428.54 984.8) rotate(-89.65)"/>
    <ellipse class="cls-15" cx="429.87" cy="801.01" rx="2.36" ry="2.78" transform="translate(-373.73 1226.01) rotate(-89.65)"/>
    <ellipse class="cls-15" cx="533.5" cy="723.24" rx="2.36" ry="2.78" transform="translate(-192.97 1252.35) rotate(-89.65)"/>
    <ellipse class="cls-15" cx="533.04" cy="650.92" rx="2.36" ry="2.78" transform="translate(-121.1 1180) rotate(-89.65)"/>
    <ellipse class="cls-15" cx="533.73" cy="697.78" rx="2.36" ry="2.78" transform="translate(-167.27 1227.26) rotate(-89.65)"/>
    <ellipse class="cls-15" cx="578.45" cy="665.75" rx="2.36" ry="2.78" transform="translate(-90.8 1240.15) rotate(-89.65)"/>
    <ellipse class="cls-15" cx="578.61" cy="729.59" rx="2.36" ry="2.78" transform="translate(-154.47 1303.77) rotate(-89.65)"/>
    <ellipse class="cls-15" cx="588.84" cy="703.89" rx="2.36" ry="2.78" transform="translate(-118.6 1288.45) rotate(-89.65)"/>
    <ellipse class="cls-15" cx="580.79" cy="693.44" rx="2.36" ry="2.78" transform="translate(-116.17 1270.02) rotate(-89.65)"/>
    <ellipse class="cls-15" cx="513.32" cy="826.53" rx="2.36" ry="2.78" transform="translate(-316.31 1334.83) rotate(-89.65)"/>
    <ellipse class="cls-15" cx="659.29" cy="734.02" rx="2.36" ry="2.78" transform="translate(-78.72 1388.85) rotate(-89.65)"/>
    <ellipse class="cls-15" cx="659.19" cy="745.03" rx="2.36" ry="2.78" transform="translate(-89.82 1399.68) rotate(-89.65)"/>
    <ellipse class="cls-15" cx="606.89" cy="755.29" rx="2.36" ry="2.78" transform="translate(-152.07 1357.59) rotate(-89.65)"/>
    <ellipse class="cls-15" cx="646.79" cy="682.66" rx="2.36" ry="2.78" transform="translate(-39.78 1325.3) rotate(-89.65)"/>
    <ellipse class="cls-15" cx="662.94" cy="698.83" rx="2.36" ry="2.78" transform="translate(-39.9 1357.52) rotate(-89.65)"/>
  </g>
  <g id="Bathroom">
    <polyline class="cls-21" points="600.84 665.85 600.88 662.06 582 661.85 581.96 665.97"/>
    <polyline class="cls-21" points="593.85 661.01 594.01 643.93 569.75 643.73 569.59 661.34 575.34 661.48 575.3 665.09 572.39 665.06 572.33 666.49 563.39 666.42 563.48 656.25 565.34 656.27 565.47 647.25 563.16 647.23 563.24 637.88 565.18 637.89 565.21 634.36 569.43 634.39 569.34 628.73"/>
    <line class="cls-21" x1="600.26" y1="730.86" x2="582.21" y2="730.71"/>
    <polyline class="cls-21" points="575.17 730.83 571.88 730.78 571.91 729.31 566.67 729.22 566.51 737.26"/>
    <line class="cls-21" x1="566.67" y1="738.56" x2="566.51" y2="756.22"/>
    <line class="cls-21" x1="593.69" y1="753.48" x2="593.57" y2="730.81"/>
    <polyline class="cls-21" points="299.36 676.52 282.99 676.39 282.95 680.68"/>
    <polyline class="cls-21" points="282.4 710.34 282.38 712.8 299.74 712.94 299.73 714.52"/>
    <line class="cls-21" x1="299.58" y1="730.94" x2="299.53" y2="736.86"/>
    <line class="cls-21" x1="265.64" y1="735.05" x2="299.54" y2="735.32"/>
    <line class="cls-21" x1="294.3" y1="677.22" x2="294.49" y2="656.51"/>
    <line class="cls-21" x1="293.42" y1="735.27" x2="293.62" y2="713.42"/>
  </g>
  <g id="Suite_102_-_AB" data-name="Suite 102 - AB">
    <polyline class="cls-27" points="610.05 836.39 610.44 792.37 610.59 776.39"/>
    <line class="cls-27" x1="630.48" y1="792.96" x2="610.44" y2="792.95"/>
    <polyline class="cls-27" points="642.65 793.16 637.47 793.12 637.47 792.28 637.53 786.47"/>
    <line class="cls-27" x1="637.61" y1="776.66" x2="637.57" y2="781.27"/>
    <polyline class="cls-27" points="514.75 765.53 498.99 765.4 498.88 777.43"/>
    <line class="cls-27" x1="497.76" y1="765.39" x2="483.22" y2="765.28"/>
    <polyline class="cls-27" points="482.04 825.8 508.78 826.02 508.93 809.23 514.36 809.27 515.35 785.2"/>
    <line class="cls-27" x1="541.06" y1="787.92" x2="523.14" y2="787.77"/>
    <path class="cls-27" d="M541.71,826.29l.63-69.96-.63,69.96Z"/>
    <line class="cls-27" x1="495.89" y1="808.94" x2="482.83" y2="808.83"/>
    <line class="cls-27" x1="527.41" y1="762.34" x2="527.45" y2="757.6"/>
    <polyline class="cls-27" points="599.66 797.62 557.56 797.28 557.6 792.81 557.66 786.42 559.94 786.43"/>
    <line class="cls-27" x1="558" y1="826.43" x2="558.18" y2="806.51"/>
    <line class="cls-27" x1="557.47" y1="807.69" x2="551.16" y2="807.64"/>
    <line class="cls-27" x1="549.72" y1="793.03" x2="557.6" y2="792.81"/>
    <line class="cls-27" x1="565.89" y1="786.48" x2="565.8" y2="797.34"/>
    <line class="cls-27" x1="574.21" y1="797.41" x2="574.32" y2="784.92"/>
    <line class="cls-27" x1="573.6" y1="786.55" x2="572.03" y2="786.53"/>
    <line class="cls-27" x1="574.39" y1="777.18" x2="599.84" y2="777.39"/>
    <polyline class="cls-27" points="563.18 777.09 546.54 776.95 546.61 769.07 542.23 769.03 524.39 768.89 524.28 780.56"/>
    <polyline class="cls-27" points="555.84 771.07 555.89 765.87 548.91 765.81 548.99 756.9"/>
    <line class="cls-27" x1="568.82" y1="768.66" x2="574.46" y2="768.7"/>
    <polyline class="cls-27" points="555.86 768.55 563.25 768.61 563.31 762.64"/>
    <line class="cls-27" x1="587.11" y1="777.28" x2="587.19" y2="769.4"/>
    <line class="cls-27" x1="599.97" y1="762.94" x2="587.24" y2="762.83"/>
    <polyline class="cls-27" points="482.65 757.24 483.12 777.3 514.65 777.56 514.7 771.78"/>
    <polyline class="cls-27" points="574.44 771.44 574.57 757.39 574.59 754.42 574.6 753.32 600.06 753.53 599.4 826.76 518.23 826.1"/>
    <polyline class="cls-27" points="574.21 757.1 562.32 757.01 532.08 756.88"/>
    <line class="cls-27" x1="482.03" y1="826.43" x2="482.48" y2="776.43"/>
    <line class="cls-27" x1="587.29" y1="757.5" x2="587.32" y2="754.52"/>
  </g>
  <g id="Suite_103" data-name="Suite 103">
    <polyline class="cls-26" points="623.46 774.98 623.59 760.03 609.75 759.91 609.7 766.16"/>
    <line class="cls-26" x1="656.88" y1="760.3" x2="645.84" y2="760.21"/>
    <polyline class="cls-26" points="623.79 738.45 609.95 738.34 609.83 750.99 630.86 751.16 630.97 738.51 657.76 738.73"/>
    <polyline class="cls-26" points="633.59 729.01 610.03 728.82 610.14 716.55 617.06 716.61 658.62 716.95"/>
    <line class="cls-26" x1="641.91" y1="729.71" x2="642.02" y2="717.44"/>
    <line class="cls-26" x1="609.65" y1="772.05" x2="609.61" y2="776.38"/>
    <line class="cls-26" x1="610.59" y1="776.39" x2="637.61" y2="776.66"/>
    <line class="cls-26" x1="657.64" y1="776.82" x2="637.61" y2="776.66"/>
  </g>
  <g id="Suite_130" data-name="Suite 130">
    <polyline class="cls-18" points="496.72 582.19 496.77 576.93 461.69 576.6 461.85 558.64"/>
    <polyline class="cls-18" points="495.21 636.93 495.34 622.79 491.7 622.76 491.74 619.28 496.39 619.32 496.49 608.05 492.88 607.98 492.55 604.21 496.52 604.24 496.63 592.72 493.02 592.58 493.05 588.8 496.66 588.83 496.67 588.01"/>
    <polyline class="cls-18" points="491.73 619.92 469.82 619.74 469.8 621.76 467.66 621.74"/>
    <line class="cls-18" x1="462.49" y1="621.7" x2="459.02" y2="621.67"/>
    <line class="cls-18" x1="441.45" y1="621.53" x2="418.71" y2="621.21"/>
    <line class="cls-18" x1="412.06" y1="621.28" x2="405.48" y2="621.23"/>
    <line class="cls-18" x1="399" y1="621.18" x2="385.85" y2="621.07"/>
    <line class="cls-18" x1="460.61" y1="637.71" x2="460.75" y2="622"/>
    <polyline class="cls-18" points="447.79 637.66 447.93 621.58 453.85 621.63"/>
    <line class="cls-18" x1="411.54" y1="636.56" x2="411.68" y2="621.22"/>
    <line class="cls-18" x1="378.85" y1="636.8" x2="379" y2="620.95"/>
    <polyline class="cls-18" points="365.61 636.69 365.75 621.23 372.06 621.14"/>
    <line class="cls-18" x1="359.36" y1="621.04" x2="349.13" y2="620.96"/>
    <line class="cls-18" x1="349.64" y1="636.56" x2="349.78" y2="621.09"/>
    <polyline class="cls-18" points="340.51 629.63 340.52 629.24 340.59 620.7 344.53 620.73"/>
    <line class="cls-18" x1="349.05" y1="629.46" x2="340.52" y2="629.24"/>
    <polyline class="cls-18" points="459.86 616.2 459.89 612.23 459.94 606.46"/>
    <polyline class="cls-18" points="459.89 612.23 431.01 612.19 431.07 605.73"/>
    <polyline class="cls-18" points="431.12 600.29 431.27 583.57 461.91 583.82 461.97 577.06"/>
    <line class="cls-18" x1="461.34" y1="598.15" x2="461.46" y2="583.81"/>
    <polyline class="cls-18" points="428.77 573.81 418.05 573.72 418.19 558"/>
    <polyline class="cls-18" points="439.73 558.18 439.65 567.07 435.19 567.04 435.1 576.84"/>
    <polyline class="cls-18" points="411.45 573.67 398.36 573.56 398.5 558.12"/>
    <polyline class="cls-18" points="391.66 573.51 379.42 573.41 379.57 557.68"/>
    <polyline class="cls-18" points="372.94 573.36 361.78 573.26 361.92 557.82"/>
    <polyline class="cls-18" points="355.09 573.21 343.16 573.11 343.3 557.39"/>
    <polyline class="cls-18" points="336.66 573.06 305.03 572.8 305.17 557.36"/>
    <polyline class="cls-18" points="316.72 610.64 304.69 610.55 305.02 573.55"/>
    <polyline class="cls-18" points="303.91 610.54 288.11 610.4 288.22 598.71"/>
    <line class="cls-18" x1="288.33" y1="586.27" x2="288.44" y2="574.08"/>
    <line class="cls-18" x1="288.49" y1="568.8" x2="288.59" y2="557.22"/>
    <line class="cls-18" x1="304.07" y1="592.74" x2="288.27" y2="592.61"/>
    <line class="cls-18" x1="305" y1="575.7" x2="288.43" y2="575.56"/>
    <polyline class="cls-18" points="328.47 610.41 322.62 610.36 322.79 591.64 304.86 591.49"/>
    <polyline class="cls-18" points="323.46 591.19 322.71 591.18 322.82 579.04"/>
    <line class="cls-18" x1="395.05" y1="636.63" x2="395.19" y2="621.47"/>
    <polyline class="cls-18" points="420.29 612.11 423.18 612.13 423.27 601.11 423.43 583.5"/>
    <polyline class="cls-18" points="423.27 601.11 380.39 600.77 380.55 583.15"/>
    <polyline class="cls-18" points="395.38 600.89 395.53 583.27 386.57 583.2"/>
    <polyline class="cls-18" points="401.99 583.71 411.36 583.78 411.21 601.03"/>
    <polyline class="cls-18" points="406.42 611.99 380.29 611.78 380.34 606.62"/>
    <polyline class="cls-18" points="369.54 609.11 369.52 611.69 354.74 611.57"/>
    <polyline class="cls-18" points="348.55 611.52 348.65 600.51 341.19 600.45 341.1 611.46"/>
    <line class="cls-18" x1="340.15" y1="610.51" x2="336.85" y2="610.48"/>
    <polyline class="cls-18" points="341.19 600.45 341.35 582.83 337.1 582.8"/>
    <line class="cls-18" x1="328.71" y1="583.11" x2="323.53" y2="583.06"/>
    <polyline class="cls-18" points="348.17 582.89 355.83 582.95 355.59 599.94 348.65 600.51 369.62 600.69 369.77 583.06"/>
    <line class="cls-18" x1="280.69" y1="570.85" x2="280.82" y2="557.16"/>
    <polyline class="cls-18" points="280.5 592.1 280.63 578.26 261.18 578.1"/>
    <line class="cls-18" x1="279.95" y1="598.64" x2="261" y2="598.49"/>
    <polyline class="cls-18" points="272.66 599.26 272.58 608.74 271.33 608.73 271.28 613.82"/>
    <line class="cls-18" x1="271.74" y1="619.38" x2="281.58" y2="619.46"/>
    <line class="cls-18" x1="287.95" y1="628.68" x2="288.03" y2="619.81"/>
    <line class="cls-18" x1="316.19" y1="620.69" x2="304.92" y2="620.6"/>
    <line class="cls-18" x1="323.18" y1="620.56" x2="323.03" y2="637.85"/>
    <line class="cls-18" x1="323.18" y1="620.88" x2="330.73" y2="620.94"/>
    <line class="cls-18" x1="273.54" y1="625.06" x2="273.59" y2="619.84"/>
    <polyline class="cls-18" points="260.58 625.26 280.84 625.43 280.78 631.7"/>
    <polyline class="cls-18" points="330.04 641.31 330.07 638.1 304.76 637.99 304.79 634.87 304.93 619.65 287.56 619.51"/>
    <polyline class="cls-18" points="345.23 637.05 340.62 637.01 340.46 635.35"/>
    <line class="cls-18" x1="287.89" y1="634.61" x2="304.49" y2="634.74"/>
    <line class="cls-18" x1="280.73" y1="637.79" x2="260.47" y2="637.63"/>
    <line class="cls-18" x1="329.66" y1="756.65" x2="308.75" y2="756.48"/>
    <polyline class="cls-18" points="328.78 739.97 333.91 740.01 333.78 754.8"/>
    <polyline class="cls-18" points="332.97 755.96 332.96 757.13 330.11 757.11"/>
    <polyline class="cls-18" points="338.28 754.84 332.98 754.8 332.97 755.96"/>
    <polyline class="cls-18" points="328.87 730.62 308.95 730.46 309.68 638.03"/>
    <line class="cls-18" x1="329.67" y1="723.94" x2="329.85" y2="703.32"/>
    <line class="cls-18" x1="329.92" y1="696.37" x2="309.29" y2="696.2"/>
    <line class="cls-18" x1="309.14" y1="713.46" x2="329.76" y2="713.63"/>
    <polyline class="cls-18" points="329.98 689.65 329.88 679.62 329.79 669.59"/>
    <line class="cls-18" x1="309.44" y1="679.45" x2="329.88" y2="679.62"/>
    <line class="cls-18" x1="330.22" y1="662.76" x2="309.6" y2="662.59"/>
    <line class="cls-18" x1="310.28" y1="650.66" x2="330.46" y2="650.82"/>
    <line class="cls-18" x1="329.96" y1="650.82" x2="329.99" y2="647.57"/>
    <line class="cls-18" x1="339.56" y1="735.65" x2="339.62" y2="728.62"/>
    <line class="cls-18" x1="340.29" y1="740.12" x2="345.19" y2="740.1"/>
    <line class="cls-18" x1="339.68" y1="722.44" x2="339.74" y2="716.05"/>
    <line class="cls-18" x1="339.79" y1="710.29" x2="339.85" y2="703.58"/>
    <line class="cls-18" x1="339.98" y1="688.92" x2="340.04" y2="682.22"/>
    <line class="cls-18" x1="340.09" y1="676.25" x2="340.15" y2="669.68"/>
    <line class="cls-18" x1="308.89" y1="739.11" x2="308.75" y2="756.1"/>
    <line class="cls-18" x1="308.9" y1="739.86" x2="322.31" y2="739.97"/>
  </g>
  <g id="Suite_100" data-name="Suite 100">
    <polyline class="cls-28" points="601.05 643.14 600.83 626.16 584.33 626.02 576.8 625.96 577.19 619.68 569.24 619.61"/>
    <polyline class="cls-12" points="601.2 626.49 606.29 626.53 606.17 608.59 589.19 608.46 589.33 592.94 569.88 592.79 569.92 589.28"/>
    <line class="cls-28" x1="569.56" y1="583.29" x2="569.78" y2="559.41"/>
    <polyline class="cls-28" points="578.79 606.8 571.06 606.74 571.03 609.17"/>
    <line class="cls-28" x1="571.08" y1="603.6" x2="571.02" y2="606.11"/>
    <line class="cls-28" x1="600.57" y1="593.14" x2="589.71" y2="593.05"/>
    <line class="cls-12" x1="610.99" y1="643.67" x2="601.05" y2="643.59"/>
    <polyline class="cls-28" points="600.1 584.33 587.83 584.23 588.06 559.56"/>
    <line class="cls-12" x1="606.72" y1="572.05" x2="587.94" y2="571.9"/>
    <line class="cls-12" x1="657.73" y1="680.08" x2="650.66" y2="680.02"/>
    <polyline class="cls-12" points="642.93 679.65 610.67 679.38 610.7 676.53"/>
    <polyline class="cls-12" points="611.08 670.54 611.15 662.9 624.2 663.01 624.05 678.86"/>
    <line class="cls-12" x1="611.15" y1="662.15" x2="611.35" y2="640.54"/>
    <polyline class="cls-12" points="606.62 608.25 606.17 608.59 606.59 593.19"/>
    <polyline class="cls-12" points="617.8 648.77 624.33 648.68 624.4 640.05 640.32 640.32"/>
    <polyline class="cls-12" points="640.38 633.96 640.42 629.01 624.87 628.87 624.78 639.73"/>
    <line class="cls-12" x1="624.96" y1="618.77" x2="624.87" y2="628.87"/>
    <polyline class="cls-12" points="624.96 619.3 640.51 619.43 640.55 614.61"/>
    <polyline class="cls-12" points="640.61 608.52 640.65 603.36 621.14 603.2"/>
    <line class="cls-12" x1="649.32" y1="603.43" x2="659.67" y2="603.52"/>
    <line class="cls-12" x1="620.49" y1="662.22" x2="620.61" y2="649.16"/>
    <line class="cls-12" x1="657.95" y1="655.41" x2="648.86" y2="655.33"/>
    <line class="cls-12" x1="642.18" y1="655.87" x2="639.52" y2="655.85"/>
    <line class="cls-12" x1="640.24" y1="649.32" x2="640.18" y2="655.85"/>
    <line class="cls-12" x1="640.29" y1="643.46" x2="640.33" y2="639.85"/>
    <line class="cls-12" x1="640.42" y1="629.01" x2="640.46" y2="624.84"/>
    <line class="cls-12" x1="606.83" y1="584.75" x2="607" y2="566.22"/>
  </g>
  <g id="Reception">
    <polygon class="cls-10" points="633.11 680.82 633.02 690.63 633.02 691.04 632.52 692.31 632.03 693.16 631.53 694.01 631.04 694.85 630.06 695.7 629.08 696.54 628.59 696.96 627.62 697.38 626.64 697.8 625.67 698.21 624.7 698.21 623.24 698.19 607.77 698.07 607.23 696.36 607.25 695.08 607.26 693.81 607.32 687 610.23 687.02 610.21 690 624.66 689.91 624.85 680.76 633.11 680.82"/>
  </g>
  <g id="Text">
    <text/>
    <text class="cls-6" transform="translate(267.5 724.29) rotate(.47) scale(1.17 1) skewX(-.04)"><tspan x="0" y="0">B</tspan><tspan class="cls-94" x="2.97" y="0">a</tspan><tspan class="cls-70" x="5.39" y="0">t</tspan><tspan x="6.96" y="0">h</tspan><tspan class="cls-87" x="9.57" y="0">r</tspan><tspan class="cls-106" x="11.26" y="0">o</tspan><tspan x="13.84" y="0">om</tspan></text>
    <text class="cls-6" transform="translate(569.89 653.5) rotate(.47) scale(1.17 1) skewX(-.04)"><tspan x="0" y="0">B</tspan><tspan class="cls-92" x="2.97" y="0">a</tspan><tspan class="cls-95" x="5.39" y="0">t</tspan><tspan x="6.96" y="0">h</tspan><tspan class="cls-86" x="9.57" y="0">r</tspan><tspan class="cls-107" x="11.27" y="0">o</tspan><tspan x="13.84" y="0">om</tspan></text>
    <text class="cls-6" transform="translate(268.01 667.38) rotate(.47) scale(1.17 1) skewX(-.04)"><tspan x="0" y="0">B</tspan><tspan class="cls-94" x="2.97" y="0">a</tspan><tspan class="cls-70" x="5.39" y="0">t</tspan><tspan x="6.96" y="0">h</tspan><tspan class="cls-87" x="9.57" y="0">r</tspan><tspan class="cls-106" x="11.26" y="0">o</tspan><tspan x="13.84" y="0">om</tspan></text>
    <text class="cls-4" transform="translate(421.94 808.44) rotate(.47) scale(1.1 1) skewX(-.04)"><tspan class="cls-67" x="0" y="0">E</tspan><tspan class="cls-52" x="2.08" y="0">l</tspan><tspan class="cls-112" x="3.01" y="0">e</tspan><tspan class="cls-62" x="4.91" y="0">v</tspan><tspan class="cls-84" x="6.63" y="0">at</tspan><tspan x="9.7" y="0">or</tspan></text>
    <text class="cls-4" transform="translate(515.57 724.55) rotate(.47) scale(1.1 1) skewX(-.04)"><tspan class="cls-74" x="0" y="0">E</tspan><tspan x="2.08" y="0">l</tspan><tspan class="cls-112" x="3.01" y="0">e</tspan><tspan class="cls-61" x="4.91" y="0">v</tspan><tspan class="cls-91" x="6.63" y="0">at</tspan><tspan x="9.7" y="0">or</tspan></text>
    <text class="cls-5" transform="translate(527.98 705.76) rotate(-89.48) scale(.84 1) skewX(.06)"><tspan class="cls-73" x="0" y="0">E</tspan><tspan x="3.17" y="0">l</tspan><tspan class="cls-110" x="4.58" y="0">e</tspan><tspan class="cls-66" x="7.48" y="0">v</tspan><tspan class="cls-81" x="10.11" y="0">at</tspan><tspan x="14.78" y="0">or</tspan></text>
    <text class="cls-6" transform="translate(508.01 600.96) rotate(.47) scale(1.17 1) skewX(-.04)"><tspan class="cls-79" x="0" y="0">S</tspan><tspan class="cls-72" x="2.74" y="0">t</tspan><tspan x="4.31" y="0">airs</tspan></text>
    <text class="cls-6" transform="translate(278.34 695.93) rotate(.47) scale(1.17 1) skewX(-.04)"><tspan class="cls-79" x="0" y="0">S</tspan><tspan class="cls-71" x="2.74" y="0">t</tspan><tspan x="4.31" y="0">airs</tspan></text>
    <text class="cls-6" transform="translate(580.56 713.18) rotate(.47) scale(1.17 1) skewX(-.04)"><tspan class="cls-79" x="0" y="0">S</tspan><tspan class="cls-72" x="2.74" y="0">t</tspan><tspan x="4.31" y="0">airs</tspan></text>
    <text class="cls-1" transform="translate(608.55 694.8) rotate(.47) scale(1.07 1) skewX(-.04)"><tspan class="cls-69" x="0" y="0">R</tspan><tspan class="cls-118" x="2.81" y="0">e</tspan><tspan class="cls-111" x="5.22" y="0">c</tspan><tspan class="cls-46" x="7.54" y="0">e</tspan><tspan class="cls-98" x="9.93" y="0">p</tspan><tspan class="cls-90" x="12.48" y="0">t</tspan><tspan x="13.99" y="0">ion</tspan></text>
    <text class="cls-6" transform="translate(569.5 685.84) rotate(.47) scale(1.17 1) skewX(-.04)"><tspan class="cls-68" x="0" y="0">E</tspan><tspan x="2.69" y="0">l</tspan><tspan class="cls-108" x="3.89" y="0">e</tspan><tspan class="cls-63" x="6.36" y="0">v</tspan><tspan class="cls-92" x="8.58" y="0">at</tspan><tspan x="12.55" y="0">or</tspan></text>
    <text class="cls-6" transform="translate(567.54 742.2) rotate(.47) scale(1.17 1) skewX(-.04)"><tspan x="0" y="0">B</tspan><tspan class="cls-92" x="2.97" y="0">a</tspan><tspan class="cls-95" x="5.39" y="0">t</tspan><tspan x="6.96" y="0">h</tspan><tspan class="cls-86" x="9.57" y="0">r</tspan><tspan class="cls-107" x="11.27" y="0">o</tspan><tspan x="13.84" y="0">om</tspan></text>
    <text class="cls-3" transform="translate(405.24 574.99) rotate(.47) scale(1.17 1) skewX(-.04)"><tspan class="cls-85" x="0" y="0">S</tspan><tspan class="cls-51" x="4.13" y="0">u</tspan><tspan class="cls-43" x="7.99" y="0">i</tspan><tspan class="cls-82" x="9.79" y="0">t</tspan><tspan class="cls-86" x="12.12" y="0">e</tspan><tspan x="15.73" y="0"> </tspan><tspan class="cls-78" x="17.33" y="0">1</tspan><tspan class="cls-45" x="19.93" y="0">3</tspan><tspan x="23.64" y="0">0</tspan><tspan class="cls-59" x="0" y="7.92">M</tspan><tspan x="5.72" y="7.92">u</tspan><tspan class="cls-43" x="9.58" y="7.92">l</tspan><tspan class="cls-89" x="11.38" y="7.92">t</tspan><tspan class="cls-96" x="13.72" y="7.92">i</tspan><tspan class="cls-33" x="15.51" y="7.92">-</tspan><tspan class="cls-86" x="18.06" y="7.92">S</tspan><tspan class="cls-105" x="22.19" y="7.92">p</tspan><tspan class="cls-117" x="26.18" y="7.92">e</tspan><tspan class="cls-48" x="29.91" y="7.92">c</tspan><tspan class="cls-78" x="33.48" y="7.92">i</tspan><tspan x="35.25" y="7.92">a</tspan><tspan class="cls-42" x="38.94" y="7.92">l</tspan><tspan class="cls-101" x="40.74" y="7.92">t</tspan><tspan x="43.24" y="7.92">y </tspan><tspan class="cls-60" x="48.27" y="7.92">C</tspan><tspan class="cls-51" x="52.87" y="7.92">lini</tspan><tspan class="cls-89" x="62.17" y="7.92">c</tspan><tspan x="65.67" y="7.92"> </tspan></text>
    <text class="cls-2" transform="translate(484.01 800.63) rotate(.47) scale(1.12 1) skewX(-.04)"><tspan class="cls-83" x="0" y="0">S</tspan><tspan class="cls-53" x="4.13" y="0">u</tspan><tspan class="cls-44" x="7.99" y="0">i</tspan><tspan class="cls-93" x="9.79" y="0">t</tspan><tspan class="cls-88" x="12.12" y="0">e</tspan><tspan x="15.73" y="0"> </tspan><tspan class="cls-97" x="17.33" y="0">1</tspan><tspan class="cls-113" x="19.94" y="0">0</tspan><tspan x="23.87" y="0">2B</tspan><tspan x="0" y="7.92">R</tspan><tspan class="cls-97" x="4.37" y="7.92">a</tspan><tspan class="cls-53" x="8.04" y="7.92">diol</tspan><tspan class="cls-115" x="19.44" y="7.92">o</tspan><tspan class="cls-41" x="23.3" y="7.92">g</tspan><tspan class="cls-58" x="27.25" y="7.92">y</tspan><tspan class="cls-53" x="30.19" y="7.92">, </tspan><tspan class="cls-44" x="33.58" y="7.92">M</tspan><tspan class="cls-109" x="39.43" y="7.92">R</tspan><tspan x="43.84" y="7.92">I/</tspan><tspan class="cls-49" x="48.98" y="7.92">C</tspan><tspan x="53.7" y="7.92">T </tspan><tspan class="cls-115" x="59.18" y="7.92">s</tspan><tspan x="62.61" y="7.92">can </tspan></text>
    <text class="cls-3" transform="translate(614.6 664.88) rotate(.47) scale(1.16 1) skewX(-.04)"><tspan class="cls-75" x="0" y="0">S</tspan><tspan class="cls-114" x="4.16" y="0">u</tspan><tspan class="cls-104" x="8.06" y="0">i</tspan><tspan class="cls-75" x="9.89" y="0">t</tspan><tspan class="cls-77" x="12.26" y="0">e</tspan><tspan class="cls-114" x="15.89" y="0"> </tspan><tspan class="cls-47" x="17.52" y="0">1</tspan><tspan class="cls-100" x="20.17" y="0">0</tspan><tspan class="cls-114" x="24.17" y="0">0 </tspan><tspan class="cls-102" x="0" y="7.92">L</tspan><tspan class="cls-114" x="3.97" y="7.92">a</tspan><tspan class="cls-116" x="7.7" y="7.92">b</tspan><tspan class="cls-114" x="11.74" y="7.92">o</tspan><tspan class="cls-80" x="15.6" y="7.92">r</tspan><tspan class="cls-75" x="18.12" y="7.92">at</tspan><tspan class="cls-114" x="24.15" y="7.92">o</tspan><tspan class="cls-103" x="28.01" y="7.92">r</tspan><tspan class="cls-114" x="30.83" y="7.92">y</tspan></text>
  </g>
  <g id="Nodes">
    <g id="D">
      <ellipse class="cls-30" cx="550.39" cy="533.14" rx="4.4" ry="5.18" transform="translate(13.92 1080.29) rotate(-89.65)"/>
    </g>
    <g id="F">
      <ellipse class="cls-30" cx="550.03" cy="696.97" rx="4.4" ry="5.18" transform="translate(-150.26 1242.76) rotate(-89.65)"/>
    </g>
    <g id="G">
      <ellipse class="cls-30" cx="617.38" cy="700.03" rx="4.4" ry="5.18" transform="translate(-86.38 1313.16) rotate(-89.65)"/>
    </g>
    <g id="H">
      <ellipse class="cls-30" cx="662.56" cy="699.77" rx="4.4" ry="5.18" transform="translate(-41.22 1358.08) rotate(-89.65)"/>
    </g>
    <g id="E">
      <ellipse class="cls-30" cx="548.11" cy="621.48" rx="4.4" ry="5.18" transform="translate(-76.68 1165.82) rotate(-89.65)"/>
    </g>
    <g id="A">
      <ellipse class="cls-30" cx="384.23" cy="441.85" rx="4.4" ry="5.18" transform="translate(-59.95 823.39) rotate(-89.65)"/>
    </g>
    <g id="B">
      <ellipse class="cls-30" cx="383.76" cy="494.05" rx="4.4" ry="5.18" transform="translate(-112.61 874.8) rotate(-89.65)"/>
    </g>
    <g id="C">
      <ellipse class="cls-30" cx="548.14" cy="495.39" rx="4.4" ry="5.18" transform="translate(49.43 1040.51) rotate(-89.65)"/>
    </g>
    <g id="I">
      <ellipse class="cls-30" cx="757.31" cy="497.1" rx="4.4" ry="5.18" transform="translate(255.63 1251.39) rotate(-89.65)"/>
    </g>
    <g id="J">
      <ellipse class="cls-30" cx="748.1" cy="697.96" rx="4.4" ry="5.18" transform="translate(45.62 1441.81) rotate(-89.65)"/>
    </g>
    <g id="L">
      <ellipse class="cls-30" cx="434.9" cy="858.91" rx="4.4" ry="5.18" transform="translate(-426.63 1288.59) rotate(-89.65)"/>
    </g>
    <g id="K">
      <ellipse class="cls-30" cx="740.05" cy="851.66" rx="4.4" ry="5.18" transform="translate(-116.07 1586.53) rotate(-89.65)"/>
    </g>
  </g>
</svg>